<?xml version="1.0" encoding="UTF-8"?>
<svg id="reviews-product-icon" width="100px" height="100px" viewBox="0 0 100 100" version="1.1" xmlns="http://www.w3.org/2000/svg" xmlns:xlink="http://www.w3.org/1999/xlink" style="background: #FFFFFF;">
    <style>
      #reviews-product-icon:hover .scale-y-up {
        animation: .3s scale-y-up linear forwards;
        transform-origin: left bottom;
        transform: scaleY(0);
      }

      @keyframes scale-y-up {
        0% {
          transform: scaleY(0);
        }
        100% {
          transform: scaleY(1);
        }
      }

      #reviews-product-icon:hover #bar-2.scale-y-up {
        animation-delay: .1s;
      }

      #reviews-product-icon:hover #bar-3.scale-y-up {
        animation-delay: .2s;
      }

      #reviews-product-icon:hover #bar-4.scale-y-up {
        animation-delay: .3s;
      }

      #reviews-product-icon:hover #bar-5.scale-y-up {
        animation-delay: .4s;
      }

      #reviews-product-icon:hover .fade-in {
        animation: .2s fade-in .3s ease-out forwards;
        transform-origin: left bottom;
        opacity: 0;
      }

      @keyframes fade-in {
        0% {
          transform: translateY(14px);
          opacity: 0;
        }
        100% {
          transform: translateY(0px);
          opacity: 1;
        }
      }

      #reviews-product-icon:hover #text.fade-in {
        animation-delay: .1s;
      }
    </style>
    <g id="Page-1" stroke="none" stroke-width="1" fill="none" fill-rule="evenodd">
        <g id="reviews">
            <g id="icon" transform="translate(14.000000, 14.000000)">
                <rect fill="#EDF6FE" x="0" y="0" width="72" height="72" rx="36"></rect>
                <rect id="bg" fill="#4EA6EC" x="20" y="20" width="32" height="36" rx="2"></rect>
                <rect id="bg" fill="#EDF6FE" opacity="0.599999964" x="23" y="23" width="26" height="30" rx="1"></rect>
                <rect id="bg" fill="#EDF6FE" x="23" y="22" width="26" height="30" rx="1"></rect>
                <g id="stats" transform="translate(29.000000, 33.000000)" fill="#4EA6EC" opacity="0.599999964">
                    <rect id="bar-5" class="scale-y-up" x="6" y="8" width="2" height="5" rx="1"></rect>
                    <rect id="bar-4" class="scale-y-up" x="12" y="0" width="2" height="13" rx="1"></rect>
                    <rect id="bar-3" class="scale-y-up" x="3" y="2" width="2" height="11" rx="1"></rect>
                    <rect id="bar-2" class="scale-y-up" x="9" y="5" width="2" height="8" rx="1"></rect>
                    <rect id="bar-1" class="scale-y-up" x="0" y="5" width="2" height="8" rx="1"></rect>
                </g>
                <g id="text" class="fade-in"><rect fill="#4EA6EC" x="29" y="28" width="8" height="2" rx="1"></rect></g>
                <g id="title" class="fade-in"><rect fill="#4EA6EC" opacity="0.5" x="29" y="31" width="5" height="2" rx="1"></rect></g>
                <path d="M32.1260175,19 C32.043753,18.6803801 32,18.3452996 32,18 C32,15.790861 33.790861,14 36,14 C38.209139,14 40,15.790861 40,18 C40,18.3452996 39.956247,18.6803801 39.8739825,19 L44.0092049,19 C45.1086907,19 46,19.8877296 46,21 C46,22.1045695 45.1017876,23 44.0092049,23 L27.9907951,23 C26.8913093,23 26,22.1122704 26,21 C26,19.8954305 26.8982124,19 27.9907951,19 L32.1260175,19 Z M36,19 C36.5522847,19 37,18.5522847 37,18 C37,17.4477153 36.5522847,17 36,17 C35.4477153,17 35,17.4477153 35,18 C35,18.5522847 35.4477153,19 36,19 Z" id="bg" fill="#007EE5"></path>
            </g>
        </g>
    </g>
</svg>
