<?xml version="1.0" encoding="UTF-8"?>
<svg width="653px" height="438px" viewBox="0 0 653 438" version="1.1" xmlns="http://www.w3.org/2000/svg" xmlns:xlink="http://www.w3.org/1999/xlink">
    <!-- Generator: Sketch 40.3 (33839) - http://www.bohemiancoding.com/sketch -->
    <title>illustration</title>
    <desc>Created with Sketch.</desc>
    <defs>
        <circle id="path-1" cx="604.5" cy="63.5" r="32.5"></circle>
        <mask id="mask-2" maskContentUnits="userSpaceOnUse" maskUnits="objectBoundingBox" x="0" y="0" width="65" height="65" fill="white">
            <use xlink:href="#path-1"></use>
        </mask>
        <path d="M481,201.972692 C471.524011,201.45381 464,193.605568 464,184 C464,175.05454 470.525422,167.633174 479.075853,166.236317 C483.190889,158.93258 491.019412,154 500,154 C512.581414,154 522.901692,163.681072 523.917873,176.000254 C523.945229,176.000085 523.972605,176 524,176 C531.179702,176 537,181.820298 537,189 C537,196.179702 531.179702,202 524,202 C523.663528,202 523.330042,201.987217 523,201.96211 L523,202 L481,202 L481,201.972692 Z" id="path-3"></path>
        <mask id="mask-4" maskContentUnits="userSpaceOnUse" maskUnits="objectBoundingBox" x="0" y="0" width="73" height="48" fill="white">
            <use xlink:href="#path-3"></use>
        </mask>
        <rect id="path-5" x="10" y="53" width="74" height="385"></rect>
        <mask id="mask-6" maskContentUnits="userSpaceOnUse" maskUnits="objectBoundingBox" x="0" y="0" width="74" height="385" fill="white">
            <use xlink:href="#path-5"></use>
        </mask>
        <rect id="path-7" x="20" y="48" width="54" height="7"></rect>
        <mask id="mask-8" maskContentUnits="userSpaceOnUse" maskUnits="objectBoundingBox" x="0" y="0" width="54" height="7" fill="white">
            <use xlink:href="#path-7"></use>
        </mask>
        <rect id="path-9" x="46" y="0" width="2" height="50"></rect>
        <mask id="mask-10" maskContentUnits="userSpaceOnUse" maskUnits="objectBoundingBox" x="0" y="0" width="2" height="50" fill="white">
            <use xlink:href="#path-9"></use>
        </mask>
        <polygon id="path-11" points="46 4 52.3085938 3 57.8808594 5 65 4 65 18 58.2910156 19 52.3085938 17 46 18"></polygon>
        <mask id="mask-12" maskContentUnits="userSpaceOnUse" maskUnits="objectBoundingBox" x="0" y="0" width="19" height="16" fill="white">
            <use xlink:href="#path-11"></use>
        </mask>
        <polygon id="path-13" points="40 43 54 43 94 368 0 368"></polygon>
        <mask id="mask-14" maskContentUnits="userSpaceOnUse" maskUnits="objectBoundingBox" x="0" y="0" width="94" height="325" fill="white">
            <use xlink:href="#path-13"></use>
        </mask>
        <rect id="path-15" x="74" y="0" width="192" height="149" rx="9"></rect>
        <mask id="mask-16" maskContentUnits="userSpaceOnUse" maskUnits="objectBoundingBox" x="0" y="0" width="192" height="149" fill="white">
            <use xlink:href="#path-15"></use>
        </mask>
        <rect id="path-17" x="70" y="0" width="192" height="149" rx="9"></rect>
        <mask id="mask-18" maskContentUnits="userSpaceOnUse" maskUnits="objectBoundingBox" x="0" y="0" width="192" height="149" fill="white">
            <use xlink:href="#path-17"></use>
        </mask>
        <rect id="path-19" x="80" y="14" width="172" height="121"></rect>
        <mask id="mask-20" maskContentUnits="userSpaceOnUse" maskUnits="objectBoundingBox" x="0" y="0" width="172" height="121" fill="white">
            <use xlink:href="#path-19"></use>
        </mask>
        <rect id="path-21" x="0" y="2" width="76" height="69" rx="2"></rect>
        <mask id="mask-22" maskContentUnits="userSpaceOnUse" maskUnits="objectBoundingBox" x="0" y="0" width="76" height="69" fill="white">
            <use xlink:href="#path-21"></use>
        </mask>
        <rect id="path-23" x="0" y="0" width="76" height="6"></rect>
        <mask id="mask-24" maskContentUnits="userSpaceOnUse" maskUnits="objectBoundingBox" x="0" y="0" width="76" height="6" fill="white">
            <use xlink:href="#path-23"></use>
        </mask>
        <rect id="path-25" x="0" y="3" width="116" height="86" rx="4"></rect>
        <mask id="mask-26" maskContentUnits="userSpaceOnUse" maskUnits="objectBoundingBox" x="0" y="0" width="116" height="86" fill="white">
            <use xlink:href="#path-25"></use>
        </mask>
        <circle id="path-27" cx="23" cy="41" r="12"></circle>
        <mask id="mask-28" maskContentUnits="userSpaceOnUse" maskUnits="objectBoundingBox" x="0" y="0" width="24" height="24" fill="white">
            <use xlink:href="#path-27"></use>
        </mask>
        <path d="M37.6,10 L116,10 L116,4.009763 C116,1.7877996 114.212281,0 112.007017,0 L3.99298257,0 C1.7988029,0 0,1.79523205 0,4.009763 L0,10 L14.4,10 L16,6 L36,6 L37.6,10 Z" id="path-29"></path>
        <mask id="mask-30" maskContentUnits="userSpaceOnUse" maskUnits="objectBoundingBox" x="0" y="0" width="116" height="10" fill="white">
            <use xlink:href="#path-29"></use>
        </mask>
        <rect id="path-31" x="66" y="143" width="192" height="10" rx="5"></rect>
        <mask id="mask-32" maskContentUnits="userSpaceOnUse" maskUnits="objectBoundingBox" x="0" y="0" width="192" height="10" fill="white">
            <use xlink:href="#path-31"></use>
        </mask>
        <rect id="path-33" x="242" y="147" width="10" height="2" rx="1"></rect>
        <mask id="mask-34" maskContentUnits="userSpaceOnUse" maskUnits="objectBoundingBox" x="0" y="0" width="10" height="2" fill="white">
            <use xlink:href="#path-33"></use>
        </mask>
        <rect id="path-35" x="0" y="143" width="192" height="10" rx="5"></rect>
        <mask id="mask-36" maskContentUnits="userSpaceOnUse" maskUnits="objectBoundingBox" x="0" y="0" width="192" height="10" fill="white">
            <use xlink:href="#path-35"></use>
        </mask>
        <rect id="path-37" x="5" y="0" width="122" height="209" rx="16"></rect>
        <mask id="mask-38" maskContentUnits="userSpaceOnUse" maskUnits="objectBoundingBox" x="0" y="0" width="122" height="209" fill="white">
            <use xlink:href="#path-37"></use>
        </mask>
        <rect id="path-39" x="0" y="0" width="122" height="209" rx="16"></rect>
        <mask id="mask-40" maskContentUnits="userSpaceOnUse" maskUnits="objectBoundingBox" x="0" y="0" width="122" height="209" fill="white">
            <use xlink:href="#path-39"></use>
        </mask>
        <rect id="path-41" x="51" y="13" width="20" height="2" rx="1"></rect>
        <mask id="mask-42" maskContentUnits="userSpaceOnUse" maskUnits="objectBoundingBox" x="0" y="0" width="20" height="2" fill="white">
            <use xlink:href="#path-41"></use>
        </mask>
        <circle id="path-43" cx="61" cy="195" r="7"></circle>
        <mask id="mask-44" maskContentUnits="userSpaceOnUse" maskUnits="objectBoundingBox" x="0" y="0" width="14" height="14" fill="white">
            <use xlink:href="#path-43"></use>
        </mask>
        <rect id="path-45" x="10" y="26" width="102" height="157"></rect>
        <mask id="mask-46" maskContentUnits="userSpaceOnUse" maskUnits="objectBoundingBox" x="0" y="0" width="102" height="157" fill="white">
            <use xlink:href="#path-45"></use>
        </mask>
        <rect id="path-47" x="24" y="68" width="74" height="74"></rect>
        <mask id="mask-48" maskContentUnits="userSpaceOnUse" maskUnits="objectBoundingBox" x="0" y="0" width="74" height="74" fill="white">
            <use xlink:href="#path-47"></use>
        </mask>
        <circle id="path-49" cx="61" cy="105" r="27"></circle>
        <mask id="mask-50" maskContentUnits="userSpaceOnUse" maskUnits="objectBoundingBox" x="0" y="0" width="54" height="54" fill="white">
            <use xlink:href="#path-49"></use>
        </mask>
        <circle id="path-51" cx="61" cy="105" r="5"></circle>
        <mask id="mask-52" maskContentUnits="userSpaceOnUse" maskUnits="objectBoundingBox" x="0" y="0" width="10" height="10" fill="white">
            <use xlink:href="#path-51"></use>
        </mask>
        <rect id="path-53" x="10" y="165" width="102" height="18"></rect>
        <mask id="mask-54" maskContentUnits="userSpaceOnUse" maskUnits="objectBoundingBox" x="0" y="0" width="102" height="18" fill="white">
            <use xlink:href="#path-53"></use>
        </mask>
        <rect id="path-55" x="10" y="26" width="102" height="18"></rect>
        <mask id="mask-56" maskContentUnits="userSpaceOnUse" maskUnits="objectBoundingBox" x="0" y="0" width="102" height="18" fill="white">
            <use xlink:href="#path-55"></use>
        </mask>
        <path d="M216.539233,19 C216.187765,17.7265637 216,16.3852093 216,15 C216,6.71572875 222.715729,0 231,0 C236.354483,0 241.053693,2.80556077 243.707805,7.02685871 C243.969563,7.00904983 244.233724,7 244.5,7 C250.851275,7 256,12.1487254 256,18.5 C256,18.6675275 255.996418,18.8342183 255.989326,19 L216.539233,19 Z" id="path-57"></path>
        <mask id="mask-58" maskContentUnits="userSpaceOnUse" maskUnits="objectBoundingBox" x="0" y="0" width="40" height="19" fill="white">
            <use xlink:href="#path-57"></use>
        </mask>
        <path d="M0.539232722,19 C0.187765304,17.7265637 0,16.3852093 0,15 C0,6.71572875 6.71572875,0 15,0 C20.3544834,0 25.053693,2.80556077 27.7078051,7.02685871 C27.9695625,7.00904983 28.2337244,7 28.5,7 C34.8512746,7 40,12.1487254 40,18.5 C40,18.6675275 39.9964178,18.8342183 39.9893258,19 L0.539232722,19 Z" id="path-59"></path>
        <mask id="mask-60" maskContentUnits="userSpaceOnUse" maskUnits="objectBoundingBox" x="0" y="0" width="40" height="19" fill="white">
            <use xlink:href="#path-59"></use>
        </mask>
        <rect id="path-61" x="97" y="40" width="110" height="64"></rect>
        <mask id="mask-62" maskContentUnits="userSpaceOnUse" maskUnits="objectBoundingBox" x="0" y="0" width="110" height="64" fill="white">
            <use xlink:href="#path-61"></use>
        </mask>
        <rect id="path-63" x="178" y="64" width="20" height="40"></rect>
        <mask id="mask-64" maskContentUnits="userSpaceOnUse" maskUnits="objectBoundingBox" x="0" y="0" width="20" height="40" fill="white">
            <use xlink:href="#path-63"></use>
        </mask>
        <rect id="path-65" x="132" y="63" width="40" height="23"></rect>
        <mask id="mask-66" maskContentUnits="userSpaceOnUse" maskUnits="objectBoundingBox" x="0" y="0" width="40" height="23" fill="white">
            <use xlink:href="#path-65"></use>
        </mask>
        <rect id="path-67" x="149" y="81" width="24" height="5"></rect>
        <mask id="mask-68" maskContentUnits="userSpaceOnUse" maskUnits="objectBoundingBox" x="0" y="0" width="24" height="5" fill="white">
            <use xlink:href="#path-67"></use>
        </mask>
        <rect id="path-69" x="176" y="63" width="24" height="5"></rect>
        <mask id="mask-70" maskContentUnits="userSpaceOnUse" maskUnits="objectBoundingBox" x="0" y="0" width="24" height="5" fill="white">
            <use xlink:href="#path-69"></use>
        </mask>
        <rect id="path-71" x="127" y="91" width="53" height="10"></rect>
        <mask id="mask-72" maskContentUnits="userSpaceOnUse" maskUnits="objectBoundingBox" x="0" y="0" width="53" height="10" fill="white">
            <use xlink:href="#path-71"></use>
        </mask>
        <rect id="path-73" x="196" y="91" width="11" height="10"></rect>
        <mask id="mask-74" maskContentUnits="userSpaceOnUse" maskUnits="objectBoundingBox" x="0" y="0" width="11" height="10" fill="white">
            <use xlink:href="#path-73"></use>
        </mask>
        <rect id="path-75" x="178" y="93" width="20" height="11"></rect>
        <mask id="mask-76" maskContentUnits="userSpaceOnUse" maskUnits="objectBoundingBox" x="0" y="0" width="20" height="11" fill="white">
            <use xlink:href="#path-75"></use>
        </mask>
        <rect id="path-77" x="178" y="96" width="20" height="5"></rect>
        <mask id="mask-78" maskContentUnits="userSpaceOnUse" maskUnits="objectBoundingBox" x="0" y="0" width="20" height="5" fill="white">
            <use xlink:href="#path-77"></use>
        </mask>
        <rect id="path-79" x="97" y="40" width="113" height="10"></rect>
        <mask id="mask-80" maskContentUnits="userSpaceOnUse" maskUnits="objectBoundingBox" x="0" y="0" width="113" height="10" fill="white">
            <use xlink:href="#path-79"></use>
        </mask>
        <rect id="path-81" x="97" y="45" width="115" height="5"></rect>
        <mask id="mask-82" maskContentUnits="userSpaceOnUse" maskUnits="objectBoundingBox" x="0" y="0" width="115" height="5" fill="white">
            <use xlink:href="#path-81"></use>
        </mask>
        <polygon id="path-83" points="15 51 129 31 129 104 15 104"></polygon>
        <mask id="mask-84" maskContentUnits="userSpaceOnUse" maskUnits="objectBoundingBox" x="0" y="0" width="114" height="73" fill="white">
            <use xlink:href="#path-83"></use>
        </mask>
        <polygon id="path-85" points="2 50 133 22 133 30 2 58"></polygon>
        <mask id="mask-86" maskContentUnits="userSpaceOnUse" maskUnits="objectBoundingBox" x="0" y="0" width="131" height="36" fill="white">
            <use xlink:href="#path-85"></use>
        </mask>
        <polygon id="path-87" points="0 55 133 27 133 33 0 61"></polygon>
        <mask id="mask-88" maskContentUnits="userSpaceOnUse" maskUnits="objectBoundingBox" x="0" y="0" width="133" height="34" fill="white">
            <use xlink:href="#path-87"></use>
        </mask>
        <rect id="path-89" x="89" y="0" width="29" height="104"></rect>
        <mask id="mask-90" maskContentUnits="userSpaceOnUse" maskUnits="objectBoundingBox" x="0" y="0" width="29" height="104" fill="white">
            <use xlink:href="#path-89"></use>
        </mask>
        <rect id="path-91" x="0" y="0" width="60" height="44"></rect>
        <mask id="mask-92" maskContentUnits="userSpaceOnUse" maskUnits="objectBoundingBox" x="0" y="0" width="60" height="44" fill="white">
            <use xlink:href="#path-91"></use>
        </mask>
        <path d="M51,8 C48.1085111,10.3357764 46,17.6061304 46,26.2131864 C46,34.8202425 48.1085111,42.0905965 51,44.4263729 C53.8914889,42.0905965 56,34.8202425 56,26.2131864 C56,17.6061304 53.8914889,10.3357764 51,8 Z" id="path-93"></path>
        <mask id="mask-94" maskContentUnits="userSpaceOnUse" maskUnits="objectBoundingBox" x="0" y="0" width="10" height="36.4263729" fill="white">
            <use xlink:href="#path-93"></use>
        </mask>
        <rect id="path-95" x="10" y="0" width="12" height="10"></rect>
        <mask id="mask-96" maskContentUnits="userSpaceOnUse" maskUnits="objectBoundingBox" x="0" y="0" width="12" height="10" fill="white">
            <use xlink:href="#path-95"></use>
        </mask>
        <rect id="path-97" x="6" y="11" width="17" height="2"></rect>
        <mask id="mask-98" maskContentUnits="userSpaceOnUse" maskUnits="objectBoundingBox" x="0" y="0" width="17" height="2" fill="white">
            <use xlink:href="#path-97"></use>
        </mask>
        <rect id="path-99" x="17" y="11" width="7" height="10"></rect>
        <mask id="mask-100" maskContentUnits="userSpaceOnUse" maskUnits="objectBoundingBox" x="0" y="0" width="7" height="10" fill="white">
            <use xlink:href="#path-99"></use>
        </mask>
        <rect id="path-101" x="2" y="13" width="2" height="2"></rect>
        <mask id="mask-102" maskContentUnits="userSpaceOnUse" maskUnits="objectBoundingBox" x="0" y="0" width="2" height="2" fill="white">
            <use xlink:href="#path-101"></use>
        </mask>
        <rect id="path-103" x="2" y="4" width="7" height="12"></rect>
        <mask id="mask-104" maskContentUnits="userSpaceOnUse" maskUnits="objectBoundingBox" x="0" y="0" width="7" height="12" fill="white">
            <use xlink:href="#path-103"></use>
        </mask>
        <rect id="path-105" x="3" y="0" width="5" height="6"></rect>
        <mask id="mask-106" maskContentUnits="userSpaceOnUse" maskUnits="objectBoundingBox" x="0" y="0" width="5" height="6" fill="white">
            <use xlink:href="#path-105"></use>
        </mask>
        <rect id="path-107" x="0" y="7" width="7" height="6" rx="2"></rect>
        <mask id="mask-108" maskContentUnits="userSpaceOnUse" maskUnits="objectBoundingBox" x="0" y="0" width="7" height="6" fill="white">
            <use xlink:href="#path-107"></use>
        </mask>
        <rect id="path-109" x="1" y="14" width="8" height="2" rx="1"></rect>
        <mask id="mask-110" maskContentUnits="userSpaceOnUse" maskUnits="objectBoundingBox" x="0" y="0" width="8" height="2" fill="white">
            <use xlink:href="#path-109"></use>
        </mask>
        <polygon id="path-111" points="23 54 25 54 27 92 21 92"></polygon>
        <mask id="mask-112" maskContentUnits="userSpaceOnUse" maskUnits="objectBoundingBox" x="0" y="0" width="6" height="38" fill="white">
            <use xlink:href="#path-111"></use>
        </mask>
        <path d="M1.16751941,59.2098865 C1.05692099,60.1244674 1,61.0555864 1,62 C1,74.7025492 11.2974508,85 24,85 C30.6829133,85 36.7001202,82.149772 40.9023263,77.5986104 C47.2689505,76.067722 52,70.3363589 52,63.5 C52,59.0795103 50.0218986,55.121031 46.9025786,52.4614447 C46.9670081,51.8163717 47,51.1620387 47,50.5 C47,39.7304474 38.2695526,31 27.5,31 C20.8967896,31 15.0601541,34.2820972 11.5324531,39.3039321 C4.9476388,40.6733962 0,46.5089066 0,53.5 C0,55.5273892 0.416084991,57.4575966 1.16751941,59.2098865 Z" id="path-113"></path>
        <mask id="mask-114" maskContentUnits="userSpaceOnUse" maskUnits="objectBoundingBox" x="0" y="0" width="52" height="54" fill="white">
            <use xlink:href="#path-113"></use>
        </mask>
        <polygon id="path-115" points="509 64 511 64 513 92 507 92"></polygon>
        <mask id="mask-116" maskContentUnits="userSpaceOnUse" maskUnits="objectBoundingBox" x="0" y="0" width="6" height="28" fill="white">
            <use xlink:href="#path-115"></use>
        </mask>
        <path d="M503.859086,22.1606889 C507.250619,9.92167837 512.751492,9.92929739 516.140914,22.1606889 L526.859086,60.8393111 C530.250619,73.0783216 522.705342,83 510,83 L510,83 C497.297451,83 489.751492,73.0707026 493.140914,60.8393111 L503.859086,22.1606889 Z" id="path-117"></path>
        <mask id="mask-118" maskContentUnits="userSpaceOnUse" maskUnits="objectBoundingBox" x="0" y="0" width="46" height="83" fill="white">
            <use xlink:href="#path-117"></use>
        </mask>
    </defs>
    <g id="home" stroke="none" stroke-width="1" fill="none" fill-rule="evenodd">
        <g transform="translate(-555.000000, -267.000000)" id="illustration">
            <g transform="translate(555.000000, 267.000000)">
                <use id="sund" stroke="#000000" mask="url(#mask-2)" stroke-width="4" fill="#FFFFFF" xlink:href="#path-1"></use>
                <use id="cloud" stroke="#000000" mask="url(#mask-4)" stroke-width="4" fill="#FFFFFF" xlink:href="#path-3"></use>
                <g id="building" transform="translate(518.000000, 0.000000)">
                    <use id="Rectangle-16" stroke="#000000" mask="url(#mask-6)" stroke-width="4" fill="#FFFFFF" xlink:href="#path-5"></use>
                    <use id="Rectangle-16" stroke="#000000" mask="url(#mask-8)" stroke-width="4" fill="#FFFFFF" transform="translate(47.000000, 51.500000) scale(1, -1) translate(-47.000000, -51.500000) " xlink:href="#path-7"></use>
                    <use id="Rectangle-16" stroke="#000000" mask="url(#mask-10)" stroke-width="4" fill="#FFFFFF" transform="translate(47.000000, 25.000000) scale(1, -1) translate(-47.000000, -25.000000) " xlink:href="#path-9"></use>
                    <use id="Rectangle-16" stroke="#000000" mask="url(#mask-12)" stroke-width="4" fill="#33CC33" transform="translate(55.500000, 11.000000) scale(-1, -1) translate(-55.500000, -11.000000) " xlink:href="#path-11"></use>
                    <circle id="Oval-9" fill="#000000" cx="54" cy="9" r="1"></circle>
                    <circle id="Oval-9" fill="#000000" cx="58" cy="10" r="1"></circle>
                    <path d="M58,12 C58,13.1045695 57.1045695,14 56,14 C54.8954305,14 54,13.1045695 54,12 C54,11.6597019 54.0849894,11.3392542 54.2349,11.058725 L58,12 Z" id="Combined-Shape" fill="#000000"></path>
                    <use id="Rectangle-16" stroke="#000000" mask="url(#mask-14)" stroke-width="4" fill="#FFFFFF" xlink:href="#path-13"></use>
                </g>
                <g id="macbook" transform="translate(363.000000, 285.000000)">
                    <use id="iphone" stroke="#000000" mask="url(#mask-16)" stroke-width="4" fill="#EDEDED" xlink:href="#path-15"></use>
                    <use id="iphone" stroke="#000000" mask="url(#mask-18)" stroke-width="4" fill="#FFFFFF" xlink:href="#path-17"></use>
                    <circle id="Oval-10" fill="#000000" cx="166" cy="8" r="1"></circle>
                    <use id="Rectangle" stroke="#000000" mask="url(#mask-20)" stroke-width="4" fill="#FFFFFF" xlink:href="#path-19"></use>
                    <g id="terminal" transform="translate(159.000000, 44.000000)">
                        <use id="Rectangle-15" stroke="#000000" mask="url(#mask-22)" stroke-width="4" fill="#000000" xlink:href="#path-21"></use>
                        <g id="Group-4" transform="translate(42.000000, 12.000000)">
                            <rect id="Rectangle-18" fill="#EDEDED" x="9" y="0" width="17" height="2" rx="1"></rect>
                            <rect id="Rectangle-18" fill="#EDEDED" x="6" y="8" width="20" height="2" rx="1"></rect>
                            <rect id="Rectangle-18" fill="#EDEDED" x="6" y="12" width="10" height="2" rx="1"></rect>
                            <rect id="Rectangle-18" fill="#FFFFFF" x="16" y="4" width="10" height="2" rx="1"></rect>
                            <rect id="Rectangle-18" fill="#EDEDED" x="0" y="4" width="10" height="2" rx="1"></rect>
                            <rect id="Rectangle-18" fill="#33CC33" x="12" y="4" width="2" height="2" rx="1"></rect>
                            <rect id="Rectangle-18" fill="#33CC33" x="18" y="12" width="2" height="2" rx="1"></rect>
                            <rect id="Rectangle-18" fill="#EDEDED" x="22" y="12" width="4" height="2" rx="1"></rect>
                        </g>
                        <g id="Group-4" transform="translate(57.000000, 35.000000) scale(-1, -1) translate(-57.000000, -35.000000) translate(46.000000, 28.000000)">
                            <rect id="Rectangle-18" fill="#EDEDED" x="4" y="0" width="17" height="2" rx="1"></rect>
                            <rect id="Rectangle-18" fill="#EDEDED" x="0" y="8" width="20" height="2" rx="1"></rect>
                            <rect id="Rectangle-18" fill="#EDEDED" x="0" y="12" width="10" height="2" rx="1"></rect>
                            <rect id="Rectangle-18" fill="#EDEDED" x="12" y="4" width="10" height="2" rx="1"></rect>
                            <rect id="Rectangle-18" fill="#FFFFFF" x="0" y="4" width="10" height="2" rx="1"></rect>
                            <rect id="Rectangle-18" fill="#33CC33" x="0" y="0" width="2" height="2" rx="1"></rect>
                            <rect id="Rectangle-18" fill="#33CC33" x="12" y="12" width="2" height="2" rx="1"></rect>
                            <rect id="Rectangle-18" fill="#EDEDED" x="16" y="12" width="4" height="2" rx="1"></rect>
                        </g>
                        <use id="Rectangle-15" stroke="#000000" mask="url(#mask-24)" stroke-width="4" fill="#EDEDED" xlink:href="#path-23"></use>
                    </g>
                    <g id="Group-3" transform="translate(97.000000, 30.000000)">
                        <use id="Rectangle-13" stroke="#000000" mask="url(#mask-26)" stroke-width="4" fill="#FFFFFF" xlink:href="#path-25"></use>
                        <path d="M66,87.2032515 L69.8284065,79.4624788 C71.7876625,75.500999 71.7606163,69.0830048 69.7811124,65.1535227 L68.1638079,61.9430367 C66.178432,58.0018983 68.1192615,54.3307341 72.4903859,53.744387 L78.0024193,53.0049971 C82.3772982,52.4181463 86.7268143,48.4482966 87.7140461,44.1524033 L88.0089855,42.8689885 C88.99769,38.5666868 93.237202,36.0797061 97.4766573,37.3137125 L101.476871,38.4780814 C105.717018,39.712289 110.642461,37.4485095 112.471432,33.4365398 L115.269531,27.2987225" id="Path-3" stroke="#000000" stroke-width="2"></path>
                        <rect id="Rectangle-21" fill="#000000" x="11" y="58" width="42" height="2" rx="1"></rect>
                        <rect id="Rectangle-21" fill="#000000" x="11" y="65" width="22" height="2" rx="1"></rect>
                        <use id="Oval-13" stroke="#000000" mask="url(#mask-28)" stroke-width="4" fill="#FFFFFF" xlink:href="#path-27"></use>
                        <use id="Combined-Shape" stroke="#000000" mask="url(#mask-30)" stroke-width="4" fill="#FFFFFF" xlink:href="#path-29"></use>
                        <circle id="Oval-8" fill="#000000" cx="5" cy="5" r="1"></circle>
                        <circle id="Oval-8" fill="#000000" cx="8" cy="5" r="1"></circle>
                        <circle id="Oval-8" fill="#000000" cx="11" cy="5" r="1"></circle>
                    </g>
                    <use id="iphone" stroke="#000000" mask="url(#mask-32)" stroke-width="4" fill="#EDEDED" xlink:href="#path-31"></use>
                    <use id="Rectangle-2" stroke="#000000" mask="url(#mask-34)" stroke-width="2" fill="#D8D8D8" xlink:href="#path-33"></use>
                    <use id="iphone" stroke="#000000" mask="url(#mask-36)" stroke-width="4" fill="#FFFFFF" xlink:href="#path-35"></use>
                </g>
                <g id="iphone" transform="translate(248.000000, 229.000000)">
                    <use stroke="#000000" mask="url(#mask-38)" stroke-width="4" fill="#EDEDED" xlink:href="#path-37"></use>
                    <use stroke="#000000" mask="url(#mask-40)" stroke-width="4" fill="#FFFFFF" xlink:href="#path-39"></use>
                    <use id="Rectangle-2" stroke="#000000" mask="url(#mask-42)" stroke-width="2" fill="#D8D8D8" xlink:href="#path-41"></use>
                    <use id="Oval-2" stroke="#000000" mask="url(#mask-44)" stroke-width="4" fill="#EDEDED" xlink:href="#path-43"></use>
                    <use id="Rectangle" stroke="#000000" mask="url(#mask-46)" stroke-width="4" fill="#FFFFFF" xlink:href="#path-45"></use>
                    <use id="Rectangle" stroke="#000000" mask="url(#mask-48)" stroke-width="4" fill="#FFFFFF" xlink:href="#path-47"></use>
                    <use id="Oval-13" stroke="#000000" mask="url(#mask-50)" stroke-width="4" fill="#FFFFFF" xlink:href="#path-49"></use>
                    <use id="Oval-13" stroke="#000000" mask="url(#mask-52)" stroke-width="4" fill="#FFFFFF" xlink:href="#path-51"></use>
                    <use id="Rectangle" stroke="#000000" mask="url(#mask-54)" stroke-width="4" fill="#FFFFFF" xlink:href="#path-53"></use>
                    <rect id="Rectangle-22" fill="#33CC33" x="25" y="170" width="8" height="8" rx="2"></rect>
                    <rect id="Rectangle-22" fill="#000000" x="46" y="170" width="8" height="8" rx="2"></rect>
                    <rect id="Rectangle-22" fill="#000000" x="67" y="170" width="8" height="8" rx="2"></rect>
                    <rect id="Rectangle-22" fill="#000000" x="88" y="170" width="8" height="8" rx="2"></rect>
                    <use id="Rectangle" stroke="#000000" mask="url(#mask-56)" stroke-width="4" fill="#FFFFFF" xlink:href="#path-55"></use>
                    <rect id="Rectangle-2" fill="#000000" x="41" y="33" width="40" height="4" rx="1"></rect>
                </g>
                <g id="trees" transform="translate(0.000000, 419.000000)" stroke="#000000" stroke-width="4" fill="#FFFFFF">
                    <use id="Combined-Shape" mask="url(#mask-58)" transform="translate(236.000000, 9.500000) scale(-1, 1) translate(-236.000000, -9.500000) " xlink:href="#path-57"></use>
                    <use id="Combined-Shape" mask="url(#mask-60)" xlink:href="#path-59"></use>
                </g>
                <g id="garage" transform="translate(14.000000, 334.000000)">
                    <use id="Rectangle-7" stroke="#000000" mask="url(#mask-62)" stroke-width="4" fill="#FFFFFF" xlink:href="#path-61"></use>
                    <use id="Rectangle-7" stroke="#000000" mask="url(#mask-64)" stroke-width="4" fill="#EDEDED" xlink:href="#path-63"></use>
                    <use id="Rectangle-7" stroke="#000000" mask="url(#mask-66)" stroke-width="4" fill="#FFFFFF" xlink:href="#path-65"></use>
                    <use id="Rectangle-7" stroke="#000000" mask="url(#mask-68)" stroke-width="4" fill="#FFFFFF" xlink:href="#path-67"></use>
                    <rect id="Rectangle-7" fill="#000000" x="148" y="77" width="24" height="2"></rect>
                    <use id="Rectangle-7" stroke="#000000" mask="url(#mask-70)" stroke-width="4" fill="#FFFFFF" xlink:href="#path-69"></use>
                    <circle id="Oval-7" fill="#000000" cx="192.5" cy="82.5" r="1.5"></circle>
                    <use id="Rectangle-7" stroke="#000000" mask="url(#mask-72)" stroke-width="4" fill="#FFFFFF" transform="translate(153.500000, 96.000000) scale(-1, 1) translate(-153.500000, -96.000000) " xlink:href="#path-71"></use>
                    <use id="Rectangle-7" stroke="#000000" mask="url(#mask-74)" stroke-width="4" fill="#FFFFFF" transform="translate(201.500000, 96.000000) scale(-1, 1) translate(-201.500000, -96.000000) " xlink:href="#path-73"></use>
                    <use id="Rectangle-7" stroke="#000000" mask="url(#mask-76)" stroke-width="4" fill="#FFFFFF" xlink:href="#path-75"></use>
                    <use id="Rectangle-7" stroke="#000000" mask="url(#mask-78)" stroke-width="4" fill="#FFFFFF" xlink:href="#path-77"></use>
                    <use id="Rectangle-7" stroke="#000000" mask="url(#mask-80)" stroke-width="4" fill="#FFFFFF" xlink:href="#path-79"></use>
                    <use id="Rectangle-7" stroke="#000000" mask="url(#mask-82)" stroke-width="4" fill="#EDEDED" xlink:href="#path-81"></use>
                    <use id="Rectangle-6" stroke="#000000" mask="url(#mask-84)" stroke-width="4" fill="#FFFFFF" xlink:href="#path-83"></use>
                    <use id="Rectangle-6" stroke="#000000" mask="url(#mask-86)" stroke-width="4" fill="#FFFFFF" xlink:href="#path-85"></use>
                    <use id="Rectangle-6" stroke="#000000" mask="url(#mask-88)" stroke-width="4" fill="#EDEDED" xlink:href="#path-87"></use>
                    <use id="Rectangle-7" stroke="#000000" mask="url(#mask-90)" stroke-width="4" fill="#FFFFFF" xlink:href="#path-89"></use>
                    <g id="door" transform="translate(23.000000, 60.000000)">
                        <use id="Rectangle-7" stroke="#000000" mask="url(#mask-92)" stroke-width="4" fill="#EDEDED" xlink:href="#path-91"></use>
                        <use id="Combined-Shape" stroke="#000000" mask="url(#mask-94)" stroke-width="4" fill="#FFFFFF" transform="translate(51.000000, 26.213186) rotate(13.000000) translate(-51.000000, -26.213186) " xlink:href="#path-93"></use>
                        <path d="M47.7275299,37.4812916 C48.4873703,37.0500922 49,36.2337426 49,35.2976619 C49,33.911986 47.8766878,32.7886738 46.491012,32.7886738 C45.2075071,32.7886738 44.1491022,33.7524412 44,34.9957731 C44.3649477,34.7886701 44.7869228,34.6704149 45.2365179,34.6704149 C46.6221938,34.6704149 47.745506,35.7937271 47.745506,37.1794029 C47.745506,37.2815739 47.7393989,37.3823185 47.7275299,37.4812916 Z" id="Combined-Shape" fill="#000000"></path>
                        <g id="Group-5" transform="translate(3.000000, 23.000000)">
                            <use id="Rectangle-7" stroke="#000000" mask="url(#mask-96)" stroke-width="4" fill="#FFFFFF" xlink:href="#path-95"></use>
                            <rect id="Rectangle-12" fill="#D8D8D8" x="13" y="3" width="6" height="1"></rect>
                            <rect id="Rectangle-10" fill="#33CC33" x="13" y="3" width="1" height="1"></rect>
                            <rect id="Rectangle-20" fill="#000000" x="15" y="10" width="3" height="1"></rect>
                            <use id="Rectangle-7" stroke="#000000" mask="url(#mask-98)" stroke-width="4" fill="#FFFFFF" xlink:href="#path-97"></use>
                            <use id="Rectangle-7" stroke="#000000" mask="url(#mask-100)" stroke-width="4" fill="#FFFFFF" transform="translate(20.500000, 16.000000) scale(1, -1) translate(-20.500000, -16.000000) " xlink:href="#path-99"></use>
                            <rect id="Rectangle-19" fill="#000000" x="8" y="14" width="2" height="6"></rect>
                            <polygon id="Rectangle-19" fill="#000000" points="8 8 14 10 14 12 8 10"></polygon>
                            <rect id="Rectangle-19" fill="#000000" x="8" y="18" width="3" height="2"></rect>
                            <rect id="Rectangle-19" fill="#000000" x="4" y="14" width="2" height="6"></rect>
                            <rect id="Rectangle-19" fill="#000000" x="4" y="18" width="3" height="2"></rect>
                            <use id="Rectangle-7" stroke="#000000" mask="url(#mask-102)" stroke-width="4" fill="#FFFFFF" xlink:href="#path-101"></use>
                            <use id="Combined-Shape" stroke="#000000" mask="url(#mask-104)" stroke-width="4" fill="#FFFFFF" xlink:href="#path-103"></use>
                            <use id="Rectangle-7" stroke="#000000" mask="url(#mask-106)" stroke-width="4" fill="#FFFFFF" xlink:href="#path-105"></use>
                            <use id="Rectangle-7" stroke="#000000" mask="url(#mask-108)" stroke-width="4" fill="#FFFFFF" xlink:href="#path-107"></use>
                            <use id="Rectangle-7" stroke="#000000" mask="url(#mask-110)" stroke-width="4" fill="#FFFFFF" xlink:href="#path-109"></use>
                        </g>
                        <rect id="Rectangle-8" fill="#FFFFFF" x="2" y="2" width="56" height="12"></rect>
                        <rect id="Rectangle-8" fill="#000000" x="2" y="8" width="56" height="2"></rect>
                        <rect id="Rectangle-8" fill="#FFFFFF" x="2" y="10" width="56" height="11"></rect>
                        <rect id="Rectangle-8" fill="#000000" x="2" y="19" width="56" height="2"></rect>
                        <rect id="Rectangle-8" fill="#000000" x="27" y="14" width="6" height="2"></rect>
                    </g>
                </g>
                <g id="trees" transform="translate(125.000000, 346.000000)" stroke="#000000" stroke-width="4" fill="#FFFFFF">
                    <use id="Rectangle-4" mask="url(#mask-112)" xlink:href="#path-111"></use>
                    <use id="Combined-Shape" mask="url(#mask-114)" xlink:href="#path-113"></use>
                    <use id="Rectangle-4" mask="url(#mask-116)" xlink:href="#path-115"></use>
                    <use id="Triangle" mask="url(#mask-118)" xlink:href="#path-117"></use>
                </g>
            </g>
        </g>
    </g>
</svg>