<?xml version="1.0" encoding="UTF-8"?>
<svg width="482px" height="310px" viewBox="0 0 482 310" version="1.1" xmlns="http://www.w3.org/2000/svg" xmlns:xlink="http://www.w3.org/1999/xlink">
    <!-- Generator: Sketch 40.3 (33839) - http://www.bohemiancoding.com/sketch -->
    <title>illustration</title>
    <desc>Created with Sketch.</desc>
    <defs>
        <rect id="path-1" x="24" y="8" width="420" height="294"></rect>
        <mask id="mask-2" maskContentUnits="userSpaceOnUse" maskUnits="objectBoundingBox" x="0" y="0" width="420" height="294" fill="white">
            <use xlink:href="#path-1"></use>
        </mask>
        <rect id="path-3" x="24" y="8" width="420" height="294"></rect>
        <mask id="mask-4" maskContentUnits="userSpaceOnUse" maskUnits="objectBoundingBox" x="0" y="0" width="420" height="294" fill="white">
            <use xlink:href="#path-3"></use>
        </mask>
        <rect id="path-5" x="44" y="28" width="380" height="254"></rect>
        <mask id="mask-6" maskContentUnits="userSpaceOnUse" maskUnits="objectBoundingBox" x="0" y="0" width="380" height="254" fill="white">
            <use xlink:href="#path-5"></use>
        </mask>
        <polygon id="path-7" points="424 28 424 282 44 282"></polygon>
        <mask id="mask-8" maskContentUnits="userSpaceOnUse" maskUnits="objectBoundingBox" x="0" y="0" width="380" height="254" fill="white">
            <use xlink:href="#path-7"></use>
        </mask>
        <polygon id="path-9" points="424 28 424 282 44 282"></polygon>
        <mask id="mask-10" maskContentUnits="userSpaceOnUse" maskUnits="objectBoundingBox" x="0" y="0" width="380" height="254" fill="white">
            <use xlink:href="#path-9"></use>
        </mask>
        <rect id="path-11" x="335" y="224" width="89" height="58"></rect>
        <mask id="mask-12" maskContentUnits="userSpaceOnUse" maskUnits="objectBoundingBox" x="0" y="0" width="89" height="58" fill="white">
            <use xlink:href="#path-11"></use>
        </mask>
        <rect id="path-13" x="68" y="48" width="82" height="82" rx="20"></rect>
        <mask id="mask-14" maskContentUnits="userSpaceOnUse" maskUnits="objectBoundingBox" x="0" y="0" width="82" height="82" fill="white">
            <use xlink:href="#path-13"></use>
        </mask>
        <rect id="path-15" x="80" y="60" width="58" height="58"></rect>
        <mask id="mask-16" maskContentUnits="userSpaceOnUse" maskUnits="objectBoundingBox" x="0" y="0" width="58" height="58" fill="white">
            <use xlink:href="#path-15"></use>
        </mask>
        <circle id="path-17" cx="109" cy="89" r="29"></circle>
        <mask id="mask-18" maskContentUnits="userSpaceOnUse" maskUnits="objectBoundingBox" x="0" y="0" width="58" height="58" fill="white">
            <use xlink:href="#path-17"></use>
        </mask>
        <circle id="path-19" cx="109" cy="89" r="41"></circle>
        <mask id="mask-20" maskContentUnits="userSpaceOnUse" maskUnits="objectBoundingBox" x="0" y="0" width="82" height="82" fill="white">
            <use xlink:href="#path-19"></use>
        </mask>
        <rect id="path-21" x="0" y="5" width="122" height="209" rx="16"></rect>
        <mask id="mask-22" maskContentUnits="userSpaceOnUse" maskUnits="objectBoundingBox" x="0" y="0" width="122" height="209" fill="white">
            <use xlink:href="#path-21"></use>
        </mask>
        <rect id="path-23" x="0" y="0" width="122" height="209" rx="16"></rect>
        <mask id="mask-24" maskContentUnits="userSpaceOnUse" maskUnits="objectBoundingBox" x="0" y="0" width="122" height="209" fill="white">
            <use xlink:href="#path-23"></use>
        </mask>
        <rect id="path-25" x="51" y="13" width="20" height="2" rx="1"></rect>
        <mask id="mask-26" maskContentUnits="userSpaceOnUse" maskUnits="objectBoundingBox" x="0" y="0" width="20" height="2" fill="white">
            <use xlink:href="#path-25"></use>
        </mask>
        <circle id="path-27" cx="61" cy="195" r="7"></circle>
        <mask id="mask-28" maskContentUnits="userSpaceOnUse" maskUnits="objectBoundingBox" x="0" y="0" width="14" height="14" fill="white">
            <use xlink:href="#path-27"></use>
        </mask>
        <rect id="path-29" x="10" y="26" width="102" height="157"></rect>
        <mask id="mask-30" maskContentUnits="userSpaceOnUse" maskUnits="objectBoundingBox" x="0" y="0" width="102" height="157" fill="white">
            <use xlink:href="#path-29"></use>
        </mask>
        <rect id="path-31" x="24" y="68" width="74" height="74"></rect>
        <mask id="mask-32" maskContentUnits="userSpaceOnUse" maskUnits="objectBoundingBox" x="0" y="0" width="74" height="74" fill="white">
            <use xlink:href="#path-31"></use>
        </mask>
        <circle id="path-33" cx="61" cy="105" r="27"></circle>
        <mask id="mask-34" maskContentUnits="userSpaceOnUse" maskUnits="objectBoundingBox" x="0" y="0" width="54" height="54" fill="white">
            <use xlink:href="#path-33"></use>
        </mask>
        <circle id="path-35" cx="61" cy="105" r="5"></circle>
        <mask id="mask-36" maskContentUnits="userSpaceOnUse" maskUnits="objectBoundingBox" x="0" y="0" width="10" height="10" fill="white">
            <use xlink:href="#path-35"></use>
        </mask>
        <rect id="path-37" x="10" y="165" width="102" height="18"></rect>
        <mask id="mask-38" maskContentUnits="userSpaceOnUse" maskUnits="objectBoundingBox" x="0" y="0" width="102" height="18" fill="white">
            <use xlink:href="#path-37"></use>
        </mask>
        <rect id="path-39" x="10" y="26" width="102" height="18"></rect>
        <mask id="mask-40" maskContentUnits="userSpaceOnUse" maskUnits="objectBoundingBox" x="0" y="0" width="102" height="18" fill="white">
            <use xlink:href="#path-39"></use>
        </mask>
    </defs>
    <g id="home" stroke="none" stroke-width="1" fill="none" fill-rule="evenodd">
        <g id="ventures" transform="translate(-766.000000, -1371.000000)">
            <g id="what" transform="translate(230.000000, 1253.000000)">
                <g id="illustration" transform="translate(536.000000, 118.000000)">
                    <use id="bg" stroke="#000000" mask="url(#mask-2)" stroke-width="4" fill="#FFFFFF" transform="translate(234.000000, 155.000000) rotate(-2.000000) translate(-234.000000, -155.000000) " xlink:href="#path-1"></use>
                    <use id="bg" stroke="#000000" mask="url(#mask-4)" stroke-width="4" fill="#FFFFFF" xlink:href="#path-3"></use>
                    <use id="bg" stroke="#CCCCCC" mask="url(#mask-6)" stroke-width="4" fill="#FFFFFF" xlink:href="#path-5"></use>
                    <use id="bg" stroke="#CCCCCC" mask="url(#mask-8)" stroke-width="4" fill="#FFFFFF" xlink:href="#path-7"></use>
                    <use id="bg" stroke="#CCCCCC" mask="url(#mask-10)" stroke-width="4" transform="translate(234.000000, 155.000000) scale(-1, 1) translate(-234.000000, -155.000000) " xlink:href="#path-9"></use>
                    <use id="bg" stroke="#CCCCCC" mask="url(#mask-12)" stroke-width="4" fill="#FFFFFF" xlink:href="#path-11"></use>
                    <g id="doc" opacity="0.2" transform="translate(346.000000, 233.000000)" fill="#000000">
                        <text id="Muxu.Partnership" font-family="RobotoMono-Bold, Roboto Mono" font-size="6" font-weight="bold">
                            <tspan x="0" y="6">Muxu.Partnership</tspan>
                        </text>
                        <rect id="step" x="0" y="11" width="10" height="1"></rect>
                        <text id="We-partnership-with" font-family="RobotoMono-Bold, Roboto Mono" font-size="6" font-weight="bold">
                            <tspan x="0" y="23">We partnership with </tspan>
                            <tspan x="0" y="31">bold brands we </tspan>
                            <tspan x="0" y="39">believe in.</tspan>
                        </text>
                    </g>
                    <use id="iphone" stroke="#000000" mask="url(#mask-14)" stroke-width="4" fill="#FFFFFF" xlink:href="#path-13"></use>
                    <use id="iphone" stroke="#000000" mask="url(#mask-16)" stroke-width="4" fill="#FFFFFF" opacity="0.143399004" xlink:href="#path-15"></use>
                    <use id="Oval" stroke="#000000" mask="url(#mask-18)" stroke-width="4" fill="#FFFFFF" opacity="0.2" xlink:href="#path-17"></use>
                    <use id="Oval" stroke="#000000" mask="url(#mask-20)" stroke-width="4" fill="#FFFFFF" opacity="0.2" xlink:href="#path-19"></use>
                    <path d="M150,50 L150,128 L156,128 L156,130 L150,130 L150,136 L148,136 L148,130 L70,130 L70,136 L68,136 L68,130 L62,130 L62,128 L68,128 L68,50 L62,50 L62,48 L68,48 L68,42 L70,42 L70,48 L148,48 L148,42 L150,42 L150,48 L156,48 L156,50 L150,50 Z M148,50 L148,128 L70,128 L70,50 L148,50 Z" id="Combined-Shape" fill="#000000" opacity="0.100000001"></path>
                    <path d="M173,261 L173,51 L162,51 L162,49 L173,49 L173,39 L175,39 L175,49 L293,49 L293,39 L295,39 L295,49 L304,49 L304,51 L295,51 L295,261 L304,261 L304,263 L295,263 L295,271 L293,271 L293,263 L175,263 L175,271 L173,271 L173,263 L162,263 L162,261 L173,261 Z M175,261 L175,51 L293,51 L293,261 L175,261 Z" id="Combined-Shape" fill="#000000" opacity="0.100000001"></path>
                    <g id="ruler" transform="translate(53.492100, 53.974856) rotate(-315.000000) translate(-53.492100, -53.974856) translate(43.992100, -11.525144)">
                        <path d="M-1.42108547e-13,0.992517766 C-1.42108547e-13,0.44436534 0.441829856,1.27897692e-13 1.00091757,1.27897692e-13 L17.6158367,1.27897692e-13 C18.1686282,1.27897692e-13 18.6167543,0.446322636 18.6167543,0.992517766 L18.6167543,129.324762 C18.6167543,129.872914 18.1749244,130.31728 17.6158367,130.31728 L1.00091757,130.31728 C0.448126059,130.31728 -1.42108547e-13,129.870957 -1.42108547e-13,129.324762 L-1.42108547e-13,0.992517766 Z M9.30837713,11.9679135 C10.7771985,11.9679135 11.9679135,10.7771985 11.9679135,9.30837713 C11.9679135,7.83955578 10.7771985,6.64884081 9.30837713,6.64884081 C7.83955578,6.64884081 6.64884081,7.83955578 6.64884081,9.30837713 C6.64884081,10.7771985 7.83955578,11.9679135 9.30837713,11.9679135 Z" id="Rectangle-120" stroke="#000000" stroke-width="2" fill="#FFFFFF"></path>
                        <rect id="Rectangle-122" fill="#000000" opacity="0.221649058" x="10.6381453" y="123.668439" width="6.64884081" height="2"></rect>
                        <rect id="Rectangle-122-Copy-10" fill="#000000" opacity="0.221649058" x="10.6381453" y="70.4777126" width="6.64884081" height="2"></rect>
                        <rect id="Rectangle-122-Copy-5" fill="#000000" opacity="0.221649058" x="7.97860897" y="97.0730758" width="9.30837713" height="2"></rect>
                        <rect id="Rectangle-122-Copy-15" fill="#000000" opacity="0.221649058" x="7.97860897" y="43.8823493" width="9.30837713" height="2"></rect>
                        <rect id="Rectangle-122-Copy" fill="#000000" opacity="0.221649058" x="14.6274498" y="118.349366" width="2.65953632" height="2"></rect>
                        <rect id="Rectangle-122-Copy-2" fill="#000000" opacity="0.221649058" x="14.6274498" y="113.030294" width="2.65953632" height="2"></rect>
                        <rect id="Rectangle-122-Copy-3" fill="#000000" opacity="0.221649058" x="14.6274498" y="107.711221" width="2.65953632" height="2"></rect>
                        <rect id="Rectangle-122-Copy-4" fill="#000000" opacity="0.221649058" x="14.6274498" y="102.392148" width="2.65953632" height="2"></rect>
                        <rect id="Rectangle-122-Copy-6" fill="#000000" opacity="0.221649058" x="14.6274498" y="91.7540032" width="2.65953632" height="2"></rect>
                        <rect id="Rectangle-122-Copy-7" fill="#000000" opacity="0.221649058" x="14.6274498" y="86.4349305" width="2.65953632" height="2"></rect>
                        <rect id="Rectangle-122-Copy-8" fill="#000000" opacity="0.221649058" x="14.6274498" y="81.1158579" width="2.65953632" height="2"></rect>
                        <rect id="Rectangle-122-Copy-9" fill="#000000" opacity="0.221649058" x="14.6274498" y="75.7967852" width="2.65953632" height="2"></rect>
                        <rect id="Rectangle-122-Copy-19" fill="#000000" opacity="0.221649058" x="10.6381453" y="17.2869861" width="6.64884081" height="2"></rect>
                        <rect id="Rectangle-122-Copy-16" fill="#000000" opacity="0.221649058" x="14.6274498" y="38.5632767" width="2.65953632" height="2"></rect>
                        <rect id="Rectangle-122-Copy-17" fill="#000000" opacity="0.221649058" x="14.6274498" y="33.244204" width="2.65953632" height="2"></rect>
                        <rect id="Rectangle-122-Copy-20" fill="#000000" opacity="0.221649058" x="14.6274498" y="27.9251314" width="2.65953632" height="2"></rect>
                        <rect id="Rectangle-122-Copy-18" fill="#000000" opacity="0.221649058" x="14.6274498" y="22.6060587" width="2.65953632" height="2"></rect>
                        <rect id="Rectangle-122-Copy-14" fill="#000000" opacity="0.221649058" x="14.6274498" y="65.1586399" width="2.65953632" height="2"></rect>
                        <rect id="Rectangle-122-Copy-11" fill="#000000" opacity="0.221649058" x="14.6274498" y="59.8395673" width="2.65953632" height="2"></rect>
                        <rect id="Rectangle-122-Copy-12" fill="#000000" opacity="0.221649058" x="14.6274498" y="54.5204946" width="2.65953632" height="2"></rect>
                        <rect id="Rectangle-122-Copy-13" fill="#000000" opacity="0.221649058" x="14.6274498" y="49.201422" width="2.65953632" height="2"></rect>
                    </g>
                    <g id="pencil" transform="translate(444.779960, 197.072853) rotate(-45.000000) translate(-444.779960, -197.072853) translate(436.779960, 146.572853)">
                        <polygon id="Rectangle-92-Copy-2" stroke="#000000" stroke-width="2" fill="#FFFFFF" points="4 5.68434189e-14 7 3 7 13 4 13"></polygon>
                        <rect id="Rectangle-92" stroke="#000000" stroke-width="2" fill="#FFFFFF" x="2" y="8" width="7" height="13"></rect>
                        <rect id="Rectangle-90" fill="#000000" x="1" y="93" width="9" height="8" rx="1"></rect>
                        <rect id="Rectangle-88" stroke="#000000" stroke-width="2" fill="#FFFFFF" x="-8.81072992e-13" y="11" width="11" height="71" rx="1"></rect>
                        <rect id="Rectangle-88-Copy" stroke="#000000" stroke-width="2" fill="#FFFFFF" x="-8.52651283e-14" y="82" width="11" height="15" rx="1"></rect>
                        <rect id="Rectangle-91" fill="#C6C6C6" opacity="0.383512127" x="1" y="17" width="9" height="24"></rect>
                        <path d="M16,87.5009232 L16,60.9990768 L16,59 L14.5,59 C13.6715729,59 13,60.3431458 13,62 C13,63.3062188 13.4174038,64.4174579 14,64.8292943 L14,88 L11.9998075,88 C11.4437166,88 11,88.4477153 11,89 C11,89.5561352 11.4476291,90 11.9998075,90 L15.0001925,90 C15.5562834,90 16,89.5522847 16,89 L16,87.5009232 Z" id="Rectangle-101" fill="#000000"></path>
                    </g>
                    <g id="iphone" transform="translate(173.000000, 48.000000)">
                        <use stroke="#000000" mask="url(#mask-22)" stroke-width="4" fill="#EDEDED" xlink:href="#path-21"></use>
                        <use stroke="#000000" mask="url(#mask-24)" stroke-width="4" fill="#FFFFFF" xlink:href="#path-23"></use>
                        <use id="Rectangle-2" stroke="#000000" mask="url(#mask-26)" stroke-width="2" fill="#D8D8D8" xlink:href="#path-25"></use>
                        <use id="Oval-2" stroke="#000000" mask="url(#mask-28)" stroke-width="4" fill="#EDEDED" xlink:href="#path-27"></use>
                        <use id="Rectangle" stroke="#000000" mask="url(#mask-30)" stroke-width="4" fill="#FFFFFF" xlink:href="#path-29"></use>
                        <use id="Rectangle" stroke="#000000" mask="url(#mask-32)" stroke-width="4" fill="#FFFFFF" xlink:href="#path-31"></use>
                        <use id="Oval-13" stroke="#000000" mask="url(#mask-34)" stroke-width="4" fill="#FFFFFF" xlink:href="#path-33"></use>
                        <use id="Oval-13" stroke="#000000" mask="url(#mask-36)" stroke-width="4" fill="#FFFFFF" xlink:href="#path-35"></use>
                        <use id="Rectangle" stroke="#000000" mask="url(#mask-38)" stroke-width="4" fill="#FFFFFF" xlink:href="#path-37"></use>
                        <rect id="Rectangle-22" fill="#33CC33" x="25" y="170" width="8" height="8" rx="2"></rect>
                        <rect id="Rectangle-22" fill="#000000" x="46" y="170" width="8" height="8" rx="2"></rect>
                        <rect id="Rectangle-22" fill="#000000" x="67" y="170" width="8" height="8" rx="2"></rect>
                        <rect id="Rectangle-22" fill="#000000" x="88" y="170" width="8" height="8" rx="2"></rect>
                        <use id="Rectangle" stroke="#000000" mask="url(#mask-40)" stroke-width="4" fill="#FFFFFF" xlink:href="#path-39"></use>
                        <rect id="Rectangle-2" fill="#000000" x="41" y="33" width="40" height="4" rx="1"></rect>
                    </g>
                </g>
            </g>
        </g>
    </g>
</svg>