<?xml version="1.0" encoding="UTF-8"?>
<svg width="482px" height="310px" viewBox="0 0 482 310" version="1.1" xmlns="http://www.w3.org/2000/svg" xmlns:xlink="http://www.w3.org/1999/xlink">
    <!-- Generator: Sketch 41.1 (35376) - http://www.bohemiancoding.com/sketch -->
    <title>illustration</title>
    <desc>Created with Sketch.</desc>
    <defs>
        <rect id="path-1" x="24" y="8" width="420" height="294"></rect>
        <mask id="mask-2" maskContentUnits="userSpaceOnUse" maskUnits="objectBoundingBox" x="0" y="0" width="420" height="294" fill="white">
            <use xlink:href="#path-1"></use>
        </mask>
        <rect id="path-3" x="24" y="8" width="420" height="294"></rect>
        <mask id="mask-4" maskContentUnits="userSpaceOnUse" maskUnits="objectBoundingBox" x="0" y="0" width="420" height="294" fill="white">
            <use xlink:href="#path-3"></use>
        </mask>
        <rect id="path-5" x="44" y="28" width="380" height="254"></rect>
        <mask id="mask-6" maskContentUnits="userSpaceOnUse" maskUnits="objectBoundingBox" x="0" y="0" width="380" height="254" fill="white">
            <use xlink:href="#path-5"></use>
        </mask>
        <polygon id="path-7" points="424 28 424 282 44 282"></polygon>
        <mask id="mask-8" maskContentUnits="userSpaceOnUse" maskUnits="objectBoundingBox" x="0" y="0" width="380" height="254" fill="white">
            <use xlink:href="#path-7"></use>
        </mask>
        <polygon id="path-9" points="424 28 424 282 44 282"></polygon>
        <mask id="mask-10" maskContentUnits="userSpaceOnUse" maskUnits="objectBoundingBox" x="0" y="0" width="380" height="254" fill="white">
            <use xlink:href="#path-9"></use>
        </mask>
        <rect id="path-11" x="335" y="224" width="89" height="58"></rect>
        <mask id="mask-12" maskContentUnits="userSpaceOnUse" maskUnits="objectBoundingBox" x="0" y="0" width="89" height="58" fill="white">
            <use xlink:href="#path-11"></use>
        </mask>
        <rect id="path-13" x="68" y="48" width="82" height="82" rx="20"></rect>
        <mask id="mask-14" maskContentUnits="userSpaceOnUse" maskUnits="objectBoundingBox" x="0" y="0" width="82" height="82" fill="white">
            <use xlink:href="#path-13"></use>
        </mask>
        <rect id="path-15" x="80" y="60" width="58" height="58"></rect>
        <mask id="mask-16" maskContentUnits="userSpaceOnUse" maskUnits="objectBoundingBox" x="0" y="0" width="58" height="58" fill="white">
            <use xlink:href="#path-15"></use>
        </mask>
        <circle id="path-17" cx="109" cy="89" r="29"></circle>
        <mask id="mask-18" maskContentUnits="userSpaceOnUse" maskUnits="objectBoundingBox" x="0" y="0" width="58" height="58" fill="white">
            <use xlink:href="#path-17"></use>
        </mask>
        <circle id="path-19" cx="109" cy="89" r="41"></circle>
        <mask id="mask-20" maskContentUnits="userSpaceOnUse" maskUnits="objectBoundingBox" x="0" y="0" width="82" height="82" fill="white">
            <use xlink:href="#path-19"></use>
        </mask>
        <rect id="path-21" x="0" y="5" width="122" height="209" rx="16"></rect>
        <mask id="mask-22" maskContentUnits="userSpaceOnUse" maskUnits="objectBoundingBox" x="0" y="0" width="122" height="209" fill="white">
            <use xlink:href="#path-21"></use>
        </mask>
        <rect id="path-23" x="0" y="0" width="122" height="209" rx="16"></rect>
        <mask id="mask-24" maskContentUnits="userSpaceOnUse" maskUnits="objectBoundingBox" x="0" y="0" width="122" height="209" fill="white">
            <use xlink:href="#path-23"></use>
        </mask>
        <rect id="path-25" x="51" y="13" width="20" height="2" rx="1"></rect>
        <mask id="mask-26" maskContentUnits="userSpaceOnUse" maskUnits="objectBoundingBox" x="0" y="0" width="20" height="2" fill="white">
            <use xlink:href="#path-25"></use>
        </mask>
        <circle id="path-27" cx="61" cy="195" r="7"></circle>
        <mask id="mask-28" maskContentUnits="userSpaceOnUse" maskUnits="objectBoundingBox" x="0" y="0" width="14" height="14" fill="white">
            <use xlink:href="#path-27"></use>
        </mask>
        <rect id="path-29" x="10" y="26" width="102" height="157"></rect>
        <mask id="mask-30" maskContentUnits="userSpaceOnUse" maskUnits="objectBoundingBox" x="0" y="0" width="102" height="157" fill="white">
            <use xlink:href="#path-29"></use>
        </mask>
        <rect id="path-31" x="24" y="68" width="74" height="74"></rect>
        <mask id="mask-32" maskContentUnits="userSpaceOnUse" maskUnits="objectBoundingBox" x="0" y="0" width="74" height="74" fill="white">
            <use xlink:href="#path-31"></use>
        </mask>
        <circle id="path-33" cx="61" cy="105" r="27"></circle>
        <mask id="mask-34" maskContentUnits="userSpaceOnUse" maskUnits="objectBoundingBox" x="0" y="0" width="54" height="54" fill="white">
            <use xlink:href="#path-33"></use>
        </mask>
        <circle id="path-35" cx="61" cy="105" r="5"></circle>
        <mask id="mask-36" maskContentUnits="userSpaceOnUse" maskUnits="objectBoundingBox" x="0" y="0" width="10" height="10" fill="white">
            <use xlink:href="#path-35"></use>
        </mask>
        <rect id="path-37" x="10" y="165" width="102" height="18"></rect>
        <mask id="mask-38" maskContentUnits="userSpaceOnUse" maskUnits="objectBoundingBox" x="0" y="0" width="102" height="18" fill="white">
            <use xlink:href="#path-37"></use>
        </mask>
        <rect id="path-39" x="10" y="26" width="102" height="18"></rect>
        <mask id="mask-40" maskContentUnits="userSpaceOnUse" maskUnits="objectBoundingBox" x="0" y="0" width="102" height="18" fill="white">
            <use xlink:href="#path-39"></use>
        </mask>
    </defs>
    <g id="home" stroke="none" stroke-width="1" fill="none" fill-rule="evenodd">
        <g id="ventures" transform="translate(-766.000000, -1371.000000)">
            <g id="what" transform="translate(230.000000, 1253.000000)">
                <g id="illustration" transform="translate(536.000000, 118.000000)">
                    <use id="bg" stroke="#000000" mask="url(#mask-2)" stroke-width="4" fill="#FFFFFF" transform="translate(234.000000, 155.000000) rotate(-2.000000) translate(-234.000000, -155.000000) " xlink:href="#path-1"></use>
                    <use id="bg" stroke="#000000" mask="url(#mask-4)" stroke-width="4" fill="#FFFFFF" xlink:href="#path-3"></use>
                    <use id="bg" stroke="#CCCCCC" mask="url(#mask-6)" stroke-width="4" fill="#FFFFFF" xlink:href="#path-5"></use>
                    <use id="bg" stroke="#CCCCCC" mask="url(#mask-8)" stroke-width="4" fill="#FFFFFF" xlink:href="#path-7"></use>
                    <use id="bg" stroke="#CCCCCC" mask="url(#mask-10)" stroke-width="4" transform="translate(234.000000, 155.000000) scale(-1, 1) translate(-234.000000, -155.000000) " xlink:href="#path-9"></use>
                    <use id="bg" stroke="#CCCCCC" mask="url(#mask-12)" stroke-width="4" fill="#FFFFFF" xlink:href="#path-11"></use>
                    <g id="doc" opacity="0.2" transform="translate(346.000000, 234.000000)" fill="#000000">
                        <path d="M1.39453125,0.734375 L1.79882812,2.33691406 L2.25878906,0.734375 L3.28125,0.734375 L3.28125,5 L2.52539062,5 L2.52539062,3.73730469 L2.56054688,1.7421875 L2.00097656,3.59375 L1.59375,3.59375 L1.09277344,1.82128906 L1.12792969,3.73730469 L1.12792969,5 L0.372070312,5 L0.372070312,0.734375 L1.39453125,0.734375 Z M6.03515625,4.5546875 C5.92773384,4.71289142 5.7983406,4.83691361 5.64697266,4.92675781 C5.49560471,5.01660201 5.33007902,5.06152344 5.15039062,5.06152344 C4.9863273,5.06152344 4.83593818,5.03613307 4.69921875,4.98535156 C4.56249932,4.93457006 4.44531299,4.85400446 4.34765625,4.74365234 C4.24999951,4.63330023 4.17431667,4.49267664 4.12060547,4.32177734 C4.06689426,4.15087805 4.04003906,3.9453137 4.04003906,3.70507812 L4.04003906,1.83007812 L4.85449219,1.83007812 L4.85449219,3.7109375 C4.85449219,3.83984439 4.86376944,3.94824175 4.88232422,4.03613281 C4.900879,4.12402388 4.93066386,4.19482395 4.97167969,4.24853516 C5.01269552,4.30224636 5.06640592,4.3408202 5.1328125,4.36425781 C5.19921908,4.38769543 5.28027296,4.39941406 5.37597656,4.39941406 C5.53808675,4.39941406 5.66992137,4.36865265 5.77148438,4.30712891 C5.87304738,4.24560516 5.95019505,4.16113335 6.00292969,4.05371094 L6.00292969,1.83007812 L6.8203125,1.83007812 L6.8203125,5 L6.08203125,5 L6.03515625,4.5546875 Z M9.06445312,2.8203125 L9.76171875,1.83007812 L10.6376953,1.83007812 L9.57421875,3.38574219 L10.6757812,5 L9.796875,5 L9.06738281,3.96289062 L8.34375,5 L7.46191406,5 L8.56347656,3.38574219 L7.50292969,1.83007812 L8.37890625,1.83007812 L9.06445312,2.8203125 Z M13.2363281,4.5546875 C13.1289057,4.71289142 12.9995125,4.83691361 12.8481445,4.92675781 C12.6967766,5.01660201 12.5312509,5.06152344 12.3515625,5.06152344 C12.1874992,5.06152344 12.0371101,5.03613307 11.9003906,4.98535156 C11.7636712,4.93457006 11.6464849,4.85400446 11.5488281,4.74365234 C11.4511714,4.63330023 11.3754885,4.49267664 11.3217773,4.32177734 C11.2680661,4.15087805 11.2412109,3.9453137 11.2412109,3.70507812 L11.2412109,1.83007812 L12.0556641,1.83007812 L12.0556641,3.7109375 C12.0556641,3.83984439 12.0649413,3.94824175 12.0834961,4.03613281 C12.1020509,4.12402388 12.1318357,4.19482395 12.1728516,4.24853516 C12.2138674,4.30224636 12.2675778,4.3408202 12.3339844,4.36425781 C12.400391,4.38769543 12.4814448,4.39941406 12.5771484,4.39941406 C12.7392586,4.39941406 12.8710932,4.36865265 12.9726562,4.30712891 C13.0742193,4.24560516 13.1513669,4.16113335 13.2041016,4.05371094 L13.2041016,1.83007812 L14.0214844,1.83007812 L14.0214844,5 L13.2832031,5 L13.2363281,4.5546875 Z M15.6386719,4.52832031 C15.6386719,4.45214806 15.6513671,4.38134798 15.6767578,4.31591797 C15.7021486,4.25048795 15.7392576,4.1938479 15.7880859,4.14599609 C15.8369143,4.09814429 15.896484,4.06005874 15.9667969,4.03173828 C16.0371097,4.00341783 16.1162105,3.98925781 16.2041016,3.98925781 C16.2919926,3.98925781 16.3710934,4.00341783 16.4414062,4.03173828 C16.5117191,4.06005874 16.5708005,4.09814429 16.6186523,4.14599609 C16.6665041,4.1938479 16.7036131,4.25048795 16.7299805,4.31591797 C16.7563478,4.38134798 16.7695312,4.45214806 16.7695312,4.52832031 C16.7695312,4.60253943 16.7563478,4.67187468 16.7299805,4.73632812 C16.7036131,4.80078157 16.6665041,4.85693335 16.6186523,4.90478516 C16.5708005,4.95263696 16.5117191,4.99023424 16.4414062,5.01757812 C16.3710934,5.04492201 16.2919926,5.05859375 16.2041016,5.05859375 C16.1162105,5.05859375 16.0371097,5.04492201 15.9667969,5.01757812 C15.896484,4.99023424 15.8369143,4.95263696 15.7880859,4.90478516 C15.7392576,4.85693335 15.7021486,4.80078157 15.6767578,4.73632812 C15.6513671,4.67187468 15.6386719,4.60253943 15.6386719,4.52832031 Z M19.2626953,3.43554688 L19.2626953,5 L18.4394531,5 L18.4394531,0.734375 L19.8984375,0.734375 C20.1308605,0.734375 20.3408194,0.768066069 20.5283203,0.835449219 C20.7158212,0.902832368 20.8754876,0.996581431 21.0073242,1.11669922 C21.1391608,1.23681701 21.2407223,1.38085854 21.3120117,1.54882812 C21.3833011,1.71679771 21.4189453,1.90331929 21.4189453,2.10839844 C21.4189453,2.29980564 21.3833011,2.47656169 21.3120117,2.63867188 C21.2407223,2.80078206 21.1391608,2.94091738 21.0073242,3.05908203 C20.8754876,3.17724668 20.7158212,3.26953092 20.5283203,3.3359375 C20.3408194,3.40234408 20.1308605,3.43554688 19.8984375,3.43554688 L19.2626953,3.43554688 Z M19.2626953,2.76757812 L19.8984375,2.76757812 C20.0156256,2.76757812 20.1171871,2.75000018 20.203125,2.71484375 C20.2890629,2.67968732 20.3608396,2.63183624 20.418457,2.57128906 C20.4760745,2.51074188 20.5190428,2.44091836 20.5473633,2.36181641 C20.5756837,2.28271445 20.5898438,2.20019574 20.5898438,2.11425781 C20.5898438,2.01464794 20.5756837,1.92187543 20.5473633,1.8359375 C20.5190428,1.74999957 20.4760745,1.67480501 20.418457,1.61035156 C20.3608396,1.54589812 20.2890629,1.49511737 20.203125,1.45800781 C20.1171871,1.42089825 20.0156256,1.40234375 19.8984375,1.40234375 L19.2626953,1.40234375 L19.2626953,2.76757812 Z M23.9970703,5 C23.977539,4.9609373 23.9609376,4.91601588 23.9472656,4.86523438 C23.9335937,4.81445287 23.921875,4.76074247 23.9121094,4.70410156 C23.8671873,4.75292993 23.81543,4.79882791 23.7568359,4.84179688 C23.6982419,4.88476584 23.6333011,4.92236312 23.5620117,4.95458984 C23.4907223,4.98681657 23.4121098,5.01220694 23.3261719,5.03076172 C23.2402339,5.0493165 23.1474614,5.05859375 23.0478516,5.05859375 C22.8857414,5.05859375 22.7368171,5.03515648 22.6010742,4.98828125 C22.4653314,4.94140602 22.3486333,4.87597698 22.2509766,4.79199219 C22.1533198,4.70800739 22.0771487,4.60791074 22.0224609,4.49169922 C21.9677732,4.3754877 21.9404297,4.24902412 21.9404297,4.11230469 C21.9404297,3.77831864 22.0649402,3.52002044 22.3139648,3.33740234 C22.5629895,3.15478424 22.9345678,3.06347656 23.4287109,3.06347656 L23.8828125,3.06347656 L23.8828125,2.87597656 C23.8828125,2.72363205 23.8330083,2.60302779 23.7333984,2.51416016 C23.6337886,2.42529252 23.4902353,2.38085938 23.3027344,2.38085938 C23.1367179,2.38085938 23.0156254,2.41650355 22.9394531,2.48779297 C22.8632809,2.55908239 22.8251953,2.65429628 22.8251953,2.7734375 L22.0107422,2.7734375 C22.0107422,2.6386712 22.040527,2.51074279 22.1000977,2.38964844 C22.1596683,2.26855408 22.2465815,2.16210983 22.3608398,2.0703125 C22.4750982,1.97851517 22.6147453,1.90576199 22.7797852,1.85205078 C22.944825,1.79833958 23.133788,1.77148438 23.3466797,1.77148438 C23.5380869,1.77148438 23.7163078,1.79492164 23.8813477,1.84179688 C24.0463875,1.88867211 24.1894525,1.95800735 24.3105469,2.04980469 C24.4316412,2.14160202 24.5263668,2.25732352 24.5947266,2.39697266 C24.6630863,2.53662179 24.6972656,2.69824127 24.6972656,2.88183594 L24.6972656,4.24121094 C24.6972656,4.41113366 24.7080077,4.55175726 24.7294922,4.66308594 C24.7509767,4.77441462 24.7822264,4.87011679 24.8232422,4.95019531 L24.8232422,5 L23.9970703,5 Z M23.2207031,4.42871094 C23.3027348,4.42871094 23.3789059,4.41894541 23.4492188,4.39941406 C23.5195316,4.37988271 23.5830075,4.35449234 23.6396484,4.32324219 C23.6962893,4.29199203 23.745117,4.25634786 23.7861328,4.21630859 C23.8271486,4.17626933 23.8593749,4.13574239 23.8828125,4.09472656 L23.8828125,3.54980469 L23.4667969,3.54980469 C23.3398431,3.54980469 23.2314458,3.5620116 23.1416016,3.58642578 C23.0517574,3.61083997 22.9785159,3.64501931 22.921875,3.68896484 C22.8652341,3.73291038 22.8232423,3.78564422 22.7958984,3.84716797 C22.7685546,3.90869171 22.7548828,3.97558558 22.7548828,4.04785156 C22.7548828,4.15722711 22.7934566,4.24804651 22.8706055,4.3203125 C22.9477543,4.39257849 23.0644523,4.42871094 23.2207031,4.42871094 Z M27.8935547,1.77148438 C28.0166022,1.77148438 28.1303706,1.77978507 28.2348633,1.79638672 C28.339356,1.81298836 28.4238278,1.83105459 28.4882812,1.85058594 L28.3681641,2.66210938 C28.2607417,2.63671862 28.1508795,2.61767584 28.0385742,2.60498047 C27.926269,2.59228509 27.8193364,2.5859375 27.7177734,2.5859375 C27.4892567,2.5859375 27.306153,2.62988237 27.168457,2.71777344 C27.030761,2.8056645 26.9277347,2.9316398 26.859375,3.09570312 L26.859375,5 L26.0449219,5 L26.0449219,1.83007812 L26.8037109,1.83007812 L26.8417969,2.34863281 C26.9707038,2.16894441 27.1249991,2.02783254 27.3046875,1.92529297 C27.4843759,1.82275339 27.680663,1.77148438 27.8935547,1.77148438 Z M30.7119141,1.05371094 L30.7119141,1.83007812 L31.8955078,1.83007812 L31.8955078,2.43066406 L30.7119141,2.43066406 L30.7119141,3.79296875 C30.7119141,3.9082037 30.7250975,4.00439415 30.7514648,4.08154297 C30.7778322,4.15869179 30.8154294,4.22021461 30.8642578,4.26611328 C30.9130862,4.31201195 30.9721676,4.34472646 31.0415039,4.36425781 C31.1108402,4.38378916 31.1884761,4.39355469 31.2744141,4.39355469 C31.3369144,4.39355469 31.4008786,4.39062503 31.4663086,4.38476562 C31.5317386,4.37890622 31.594238,4.37158208 31.6538086,4.36279297 C31.7133792,4.35400386 31.7690427,4.34472661 31.8208008,4.33496094 C31.8725589,4.32519526 31.916992,4.31542974 31.9541016,4.30566406 L32.0332031,4.86523438 C31.9765622,4.89843767 31.9101566,4.92724597 31.8339844,4.95166016 C31.7578121,4.97607434 31.6767582,4.99609367 31.5908203,5.01171875 C31.5048824,5.02734383 31.4155278,5.03955074 31.3227539,5.04833984 C31.22998,5.05712895 31.1386723,5.06152344 31.0488281,5.06152344 C30.8749991,5.06152344 30.7172859,5.03857445 30.5756836,4.99267578 C30.4340813,4.94677711 30.3129888,4.87548876 30.2124023,4.77880859 C30.1118159,4.68212842 30.03418,4.55908278 29.9794922,4.40966797 C29.9248044,4.26025316 29.8974609,4.08105573 29.8974609,3.87207031 L29.8974609,2.43066406 L29.1738281,2.43066406 L29.1738281,1.83007812 L29.8974609,1.83007812 L29.8974609,1.05371094 L30.7119141,1.05371094 Z M33.5566406,1.83007812 L33.6064453,2.26953125 C33.7197271,2.11132733 33.8574211,1.98876997 34.0195312,1.90185547 C34.1816414,1.81494097 34.3613271,1.77148438 34.5585938,1.77148438 C34.7187508,1.77148438 34.8652337,1.79492164 34.9980469,1.84179688 C35.13086,1.88867211 35.245605,1.96337839 35.3422852,2.06591797 C35.4389653,2.16845754 35.5141599,2.30029216 35.5678711,2.46142578 C35.6215823,2.6225594 35.6484375,2.81835822 35.6484375,3.04882812 L35.6484375,5 L34.8339844,5 L34.8339844,3.06054688 C34.8339844,2.93554625 34.8198244,2.83251994 34.7915039,2.75146484 C34.7631835,2.67040975 34.7226565,2.60644555 34.6699219,2.55957031 C34.6171872,2.51269508 34.5537113,2.47998056 34.4794922,2.46142578 C34.4052731,2.442871 34.3212895,2.43359375 34.2275391,2.43359375 C34.0888665,2.43359375 33.9707036,2.4614255 33.8730469,2.51708984 C33.7753901,2.57275418 33.6962894,2.64941357 33.6357422,2.74707031 L33.6357422,5 L32.8183594,5 L32.8183594,1.83007812 L33.5566406,1.83007812 Z M37.9570312,5.05859375 C37.7128894,5.05859375 37.4912119,5.01855509 37.2919922,4.93847656 C37.0927724,4.85839804 36.9218757,4.74951241 36.7792969,4.61181641 C36.636718,4.47412041 36.5268559,4.31201265 36.449707,4.12548828 C36.3725582,3.93896391 36.3339844,3.73925888 36.3339844,3.52636719 L36.3339844,3.40917969 C36.3339844,3.16699098 36.3720699,2.94580178 36.4482422,2.74560547 C36.5244144,2.54540916 36.6308587,2.3730476 36.7675781,2.22851562 C36.9042976,2.08398365 37.0664053,1.97168009 37.2539062,1.89160156 C37.4414072,1.81152304 37.6455067,1.77148438 37.8662109,1.77148438 C38.0947277,1.77148438 38.298339,1.80908166 38.4770508,1.88427734 C38.6557626,1.95947303 38.8071283,2.065429 38.9311523,2.20214844 C39.0551764,2.33886787 39.1494137,2.50341701 39.2138672,2.69580078 C39.2783206,2.88818456 39.3105469,3.10058478 39.3105469,3.33300781 L39.3105469,3.67871094 L37.1601562,3.67871094 C37.1757813,3.78613335 37.2075193,3.8842769 37.2553711,3.97314453 C37.3032229,4.06201216 37.3642574,4.13867155 37.4384766,4.203125 C37.5126957,4.26757845 37.5976558,4.31738264 37.6933594,4.35253906 C37.789063,4.38769549 37.8935541,4.40527344 38.0068359,4.40527344 C38.0869145,4.40527344 38.1665035,4.39746102 38.2456055,4.38183594 C38.3247074,4.36621086 38.4003903,4.34326187 38.4726562,4.31298828 C38.5449222,4.28271469 38.6123044,4.24511741 38.6748047,4.20019531 C38.737305,4.15527321 38.791992,4.10253937 38.8388672,4.04199219 L39.2460938,4.48144531 C39.1953122,4.5537113 39.1293949,4.62451137 39.0483398,4.69384766 C38.9672848,4.76318394 38.8715826,4.82470676 38.7612305,4.87841797 C38.6508784,4.93212917 38.528321,4.97558577 38.3935547,5.00878906 C38.2587884,5.04199235 38.113282,5.05859375 37.9570312,5.05859375 Z M37.8603516,2.43066406 C37.7685542,2.43066406 37.6845707,2.44677718 37.6083984,2.47900391 C37.5322262,2.51123063 37.4653323,2.55761688 37.4077148,2.61816406 C37.3500974,2.67871124 37.301758,2.75097614 37.2626953,2.83496094 C37.2236326,2.91894573 37.194336,3.01269479 37.1748047,3.11621094 L38.5107422,3.11621094 L38.5107422,3.05175781 C38.5068359,2.96581988 38.4902345,2.88476601 38.4609375,2.80859375 C38.4316405,2.73242149 38.3896487,2.66650418 38.3349609,2.61083984 C38.2802732,2.5551755 38.2133793,2.51123063 38.1342773,2.47900391 C38.0551754,2.44677718 37.9638677,2.43066406 37.8603516,2.43066406 Z M42.2958984,1.77148438 C42.4189459,1.77148438 42.5327143,1.77978507 42.637207,1.79638672 C42.7416997,1.81298836 42.8261716,1.83105459 42.890625,1.85058594 L42.7705078,2.66210938 C42.6630854,2.63671862 42.5532232,2.61767584 42.440918,2.60498047 C42.3286127,2.59228509 42.2216802,2.5859375 42.1201172,2.5859375 C41.8916004,2.5859375 41.7084968,2.62988237 41.5708008,2.71777344 C41.4331048,2.8056645 41.3300785,2.9316398 41.2617188,3.09570312 L41.2617188,5 L40.4472656,5 L40.4472656,1.83007812 L41.2060547,1.83007812 L41.2441406,2.34863281 C41.3730475,2.16894441 41.5273429,2.02783254 41.7070312,1.92529297 C41.8867196,1.82275339 42.0830067,1.77148438 42.2958984,1.77148438 Z M45.6650391,4.12988281 C45.6650391,4.08105444 45.6538087,4.03808612 45.6313477,4.00097656 C45.6088866,3.963867 45.5688479,3.92919938 45.5112305,3.89697266 C45.453613,3.86474593 45.3769536,3.83496107 45.28125,3.80761719 C45.1855464,3.7802733 45.0644539,3.75292982 44.9179688,3.72558594 C44.7324209,3.68847638 44.562989,3.64209012 44.409668,3.58642578 C44.2563469,3.53076144 44.1250005,3.4633793 44.015625,3.38427734 C43.9062495,3.30517539 43.8208011,3.21386771 43.7592773,3.11035156 C43.6977536,3.00683542 43.6669922,2.88769599 43.6669922,2.75292969 C43.6669922,2.62206966 43.6982419,2.49707091 43.7607422,2.37792969 C43.8232425,2.25878847 43.9130854,2.15429732 44.0302734,2.06445312 C44.1474615,1.97460893 44.2900382,1.90332058 44.4580078,1.85058594 C44.6259774,1.7978513 44.8154286,1.77148438 45.0263672,1.77148438 C45.2470714,1.77148438 45.4453116,1.79736302 45.6210938,1.84912109 C45.7968759,1.90087917 45.9458002,1.97216751 46.0678711,2.06298828 C46.189942,2.15380905 46.2832028,2.26171812 46.3476562,2.38671875 C46.4121097,2.51171938 46.4443359,2.64746021 46.4443359,2.79394531 L45.6298828,2.79394531 C45.6298828,2.67089782 45.5800786,2.56787151 45.4804688,2.48486328 C45.3808589,2.40185505 45.2294932,2.36035156 45.0263672,2.36035156 C44.8369131,2.36035156 44.6938481,2.39453091 44.597168,2.46289062 C44.5004878,2.53125034 44.4521484,2.61523388 44.4521484,2.71484375 C44.4521484,2.76171898 44.461914,2.80517558 44.4814453,2.84521484 C44.5009767,2.88525411 44.5356443,2.92138656 44.5854492,2.95361328 C44.6352542,2.98584 44.7031246,3.01513659 44.7890625,3.04150391 C44.8750004,3.06787123 44.9843743,3.09082021 45.1171875,3.11035156 C45.3085947,3.14160172 45.4863273,3.18164038 45.6503906,3.23046875 C45.8144539,3.27929712 45.9560541,3.34228477 46.0751953,3.41943359 C46.1943365,3.49658242 46.2875973,3.59033148 46.3549805,3.70068359 C46.4223636,3.81103571 46.4560547,3.94238205 46.4560547,4.09472656 C46.4560547,4.23535227 46.4223636,4.3647455 46.3549805,4.48291016 C46.2875973,4.60107481 46.1918952,4.70312457 46.0678711,4.7890625 C45.943847,4.87500043 45.7939462,4.94189429 45.6181641,4.98974609 C45.4423819,5.0375979 45.2460948,5.06152344 45.0292969,5.06152344 C44.7910144,5.06152344 44.5805673,5.03027375 44.3979492,4.96777344 C44.2153311,4.90527312 44.0625006,4.82373097 43.9394531,4.72314453 C43.8164056,4.62255809 43.7231448,4.50830142 43.659668,4.38037109 C43.5961911,4.25244077 43.5644531,4.12402408 43.5644531,3.99511719 L44.3408203,3.99511719 C44.3466797,4.08105512 44.370117,4.15478485 44.4111328,4.21630859 C44.4521486,4.27783234 44.5048825,4.32763653 44.5693359,4.36572266 C44.6337894,4.40380878 44.7075191,4.43164054 44.7905273,4.44921875 C44.8735356,4.46679696 44.9589839,4.47558594 45.046875,4.47558594 C45.2480479,4.47558594 45.4013667,4.4433597 45.5068359,4.37890625 C45.6123052,4.3144528 45.6650391,4.23144582 45.6650391,4.12988281 Z M48.0351562,2.26660156 C48.1406255,2.11230392 48.2690422,1.99121138 48.4204102,1.90332031 C48.5717781,1.81542925 48.74121,1.77148438 48.9287109,1.77148438 C49.0947274,1.77148438 49.2470696,1.79638647 49.3857422,1.84619141 C49.5244148,1.89599634 49.6435542,1.97363229 49.7431641,2.07910156 C49.8427739,2.18457084 49.9204099,2.31982339 49.9760742,2.48486328 C50.0317386,2.64990317 50.0595703,2.84863165 50.0595703,3.08105469 L50.0595703,5 L49.2451172,5 L49.2451172,3.07519531 C49.2451172,2.9619135 49.2309572,2.86425822 49.2026367,2.78222656 C49.1743163,2.7001949 49.1337893,2.63378932 49.0810547,2.58300781 C49.02832,2.53222631 48.9648441,2.49462903 48.890625,2.47021484 C48.8164059,2.44580066 48.7324223,2.43359375 48.6386719,2.43359375 C48.5019524,2.43359375 48.3833013,2.45800757 48.2827148,2.50683594 C48.1821284,2.55566431 48.0996097,2.624023 48.0351562,2.71191406 L48.0351562,5 L47.2207031,5 L47.2207031,0.5 L48.0351562,0.5 L48.0351562,2.26660156 Z M51.0380859,1.83007812 L52.7636719,1.83007812 L52.7636719,4.33789062 L53.6220703,4.33789062 L53.6220703,5 L51.0380859,5 L51.0380859,4.33789062 L51.9404297,4.33789062 L51.9404297,2.49511719 L51.0380859,2.49511719 L51.0380859,1.83007812 Z M51.8818359,1.01855469 C51.8818359,0.956054375 51.8930663,0.897949487 51.9155273,0.844238281 C51.9379884,0.790527075 51.9697264,0.744629097 52.0107422,0.706542969 C52.051758,0.668456841 52.1010739,0.638671982 52.1586914,0.6171875 C52.2163089,0.595703018 52.2802731,0.584960938 52.3505859,0.584960938 C52.4951179,0.584960938 52.6098629,0.625487876 52.6948242,0.706542969 C52.7797856,0.787598062 52.8222656,0.891600928 52.8222656,1.01855469 C52.8222656,1.14550845 52.7797856,1.24951131 52.6948242,1.33056641 C52.6098629,1.4116215 52.4951179,1.45214844 52.3505859,1.45214844 C52.2802731,1.45214844 52.2163089,1.44140636 52.1586914,1.41992188 C52.1010739,1.39843739 52.051758,1.36865253 52.0107422,1.33056641 C51.9697264,1.29248028 51.9379884,1.2465823 51.9155273,1.19287109 C51.8930663,1.13915989 51.8818359,1.081055 51.8818359,1.01855469 Z M57.2695312,3.44433594 C57.2695312,3.67480584 57.242676,3.88867089 57.1889648,4.0859375 C57.1352536,4.28320411 57.0561529,4.45361256 56.9516602,4.59716797 C56.8471674,4.74072337 56.7177742,4.85351521 56.5634766,4.93554688 C56.4091789,5.01757854 56.2324229,5.05859375 56.0332031,5.05859375 C55.8632804,5.05859375 55.7138678,5.02929717 55.5849609,4.97070312 C55.456054,4.91210908 55.3437505,4.83007865 55.2480469,4.72460938 L55.2480469,6.21875 L54.4335938,6.21875 L54.4335938,1.83007812 L55.1865234,1.83007812 L55.2158203,2.140625 C55.3134771,2.02343691 55.4287103,1.93261751 55.5615234,1.86816406 C55.6943366,1.80371062 55.8496085,1.77148438 56.0273438,1.77148438 C56.2285166,1.77148438 56.4062492,1.81005821 56.5605469,1.88720703 C56.7148445,1.96435585 56.844726,2.07372976 56.9501953,2.21533203 C57.0556646,2.3569343 57.1352536,2.52685448 57.1889648,2.72509766 C57.242676,2.92334083 57.2695312,3.14257692 57.2695312,3.3828125 L57.2695312,3.44433594 Z M56.4550781,3.3828125 C56.4550781,3.24999934 56.4428712,3.12548886 56.418457,3.00927734 C56.3940428,2.89306583 56.3559573,2.79248089 56.3041992,2.70751953 C56.2524411,2.62255817 56.1860356,2.55566431 56.1049805,2.50683594 C56.0239254,2.45800757 55.9257818,2.43359375 55.8105469,2.43359375 C55.667968,2.43359375 55.55127,2.4614255 55.4604492,2.51708984 C55.3696285,2.57275418 55.2988284,2.65136668 55.2480469,2.75292969 L55.2480469,4.07714844 C55.2988284,4.17675831 55.3696285,4.25634736 55.4604492,4.31591797 C55.55127,4.37548858 55.6699211,4.40527344 55.8164062,4.40527344 C55.9316412,4.40527344 56.0297848,4.37988307 56.1108398,4.32910156 C56.1918949,4.27832006 56.2578122,4.20898481 56.3085938,4.12109375 C56.3593753,4.03320269 56.3964843,3.93115292 56.4199219,3.81494141 C56.4433595,3.69872989 56.4550781,3.57519597 56.4550781,3.44433594 L56.4550781,3.3828125 Z" id="Muxu.Partnership"></path>
                        <rect id="step" x="0" y="10" width="10" height="1"></rect>
                        <path d="M2.46972656,20.3037109 L2.78027344,17.734375 L3.53613281,17.734375 L2.94433594,22 L2.20019531,22 L1.79589844,19.4804688 L1.40625,22 L0.662109375,22 L0.076171875,17.734375 L0.829101562,17.734375 L1.13378906,20.2861328 L1.49707031,17.734375 L2.0859375,17.734375 L2.46972656,20.3037109 Z M5.55175781,22.0585938 C5.30761597,22.0585938 5.0859385,22.0185551 4.88671875,21.9384766 C4.687499,21.858398 4.51660228,21.7495124 4.37402344,21.6118164 C4.2314446,21.4741204 4.12158242,21.3120127 4.04443359,21.1254883 C3.96728477,20.9389639 3.92871094,20.7392589 3.92871094,20.5263672 L3.92871094,20.4091797 C3.92871094,20.166991 3.96679649,19.9458018 4.04296875,19.7456055 C4.11914101,19.5454092 4.22558525,19.3730476 4.36230469,19.2285156 C4.49902412,19.0839837 4.66113188,18.9716801 4.84863281,18.8916016 C5.03613375,18.811523 5.24023327,18.7714844 5.4609375,18.7714844 C5.68945427,18.7714844 5.89306551,18.8090817 6.07177734,18.8842773 C6.25048917,18.959473 6.40185485,19.065429 6.52587891,19.2021484 C6.64990296,19.3388679 6.7441403,19.503417 6.80859375,19.6958008 C6.8730472,19.8881846 6.90527344,20.1005848 6.90527344,20.3330078 L6.90527344,20.6787109 L4.75488281,20.6787109 C4.77050789,20.7861333 4.80224585,20.8842769 4.85009766,20.9731445 C4.89794946,21.0620122 4.958984,21.1386716 5.03320312,21.203125 C5.10742225,21.2675784 5.19238233,21.3173826 5.28808594,21.3525391 C5.38378954,21.3876955 5.48828068,21.4052734 5.6015625,21.4052734 C5.68164103,21.4052734 5.76123007,21.397461 5.84033203,21.3818359 C5.91943399,21.3662109 5.99511683,21.3432619 6.06738281,21.3129883 C6.1396488,21.2827147 6.20703094,21.2451174 6.26953125,21.2001953 C6.33203156,21.1552732 6.38671852,21.1025394 6.43359375,21.0419922 L6.84082031,21.4814453 C6.79003881,21.5537113 6.7241215,21.6245114 6.64306641,21.6938477 C6.56201131,21.7631839 6.46630915,21.8247068 6.35595703,21.878418 C6.24560492,21.9321292 6.12304755,21.9755858 5.98828125,22.0087891 C5.85351495,22.0419924 5.70800859,22.0585938 5.55175781,22.0585938 Z M5.45507812,19.4306641 C5.36328079,19.4306641 5.27929726,19.4467772 5.203125,19.4790039 C5.12695274,19.5112306 5.06005888,19.5576169 5.00244141,19.6181641 C4.94482393,19.6787112 4.89648457,19.7509761 4.85742188,19.8349609 C4.81835918,19.9189457 4.7890626,20.0126948 4.76953125,20.1162109 L6.10546875,20.1162109 L6.10546875,20.0517578 C6.10156248,19.9658199 6.08496108,19.884766 6.05566406,19.8085938 C6.02636704,19.7324215 5.98437527,19.6665042 5.9296875,19.6108398 C5.87499973,19.5551755 5.80810586,19.5112306 5.72900391,19.4790039 C5.64990195,19.4467772 5.55859427,19.4306641 5.45507812,19.4306641 Z M14.0625,20.4443359 C14.0625,20.6748058 14.0356448,20.8886709 13.9819336,21.0859375 C13.9282224,21.2832041 13.8491216,21.4536126 13.7446289,21.597168 C13.6401362,21.7407234 13.510743,21.8535152 13.3564453,21.9355469 C13.2021477,22.0175785 13.0253916,22.0585938 12.8261719,22.0585938 C12.6562492,22.0585938 12.5068366,22.0292972 12.3779297,21.9707031 C12.2490228,21.9121091 12.1367192,21.8300787 12.0410156,21.7246094 L12.0410156,23.21875 L11.2265625,23.21875 L11.2265625,18.8300781 L11.9794922,18.8300781 L12.0087891,19.140625 C12.1064458,19.0234369 12.221679,18.9326175 12.3544922,18.8681641 C12.4873054,18.8037106 12.6425772,18.7714844 12.8203125,18.7714844 C13.0214854,18.7714844 13.199218,18.8100582 13.3535156,18.887207 C13.5078133,18.9643559 13.6376948,19.0737298 13.7431641,19.215332 C13.8486333,19.3569343 13.9282224,19.5268545 13.9819336,19.7250977 C14.0356448,19.9233408 14.0625,20.1425769 14.0625,20.3828125 L14.0625,20.4443359 Z M13.2480469,20.3828125 C13.2480469,20.2499993 13.23584,20.1254889 13.2114258,20.0092773 C13.1870116,19.8930658 13.148926,19.7924809 13.097168,19.7075195 C13.0454099,19.6225582 12.9790043,19.5556643 12.8979492,19.5068359 C12.8168941,19.4580076 12.7187506,19.4335938 12.6035156,19.4335938 C12.4609368,19.4335938 12.3442387,19.4614255 12.253418,19.5170898 C12.1625972,19.5727542 12.0917971,19.6513667 12.0410156,19.7529297 L12.0410156,21.0771484 C12.0917971,21.1767583 12.1625972,21.2563474 12.253418,21.315918 C12.3442387,21.3754886 12.4628899,21.4052734 12.609375,21.4052734 C12.72461,21.4052734 12.8227535,21.3798831 12.9038086,21.3291016 C12.9848637,21.2783201 13.050781,21.2089848 13.1015625,21.1210938 C13.152344,21.0332027 13.189453,20.9311529 13.2128906,20.8149414 C13.2363282,20.6987299 13.2480469,20.575196 13.2480469,20.4443359 L13.2480469,20.3828125 Z M16.7958984,22 C16.7763671,21.9609373 16.7597657,21.9160159 16.7460938,21.8652344 C16.7324218,21.8144529 16.7207032,21.7607425 16.7109375,21.7041016 C16.6660154,21.7529299 16.6142581,21.7988279 16.5556641,21.8417969 C16.49707,21.8847658 16.4321293,21.9223631 16.3608398,21.9545898 C16.2895504,21.9868166 16.2109379,22.0122069 16.125,22.0307617 C16.0390621,22.0493165 15.9462896,22.0585938 15.8466797,22.0585938 C15.6845695,22.0585938 15.5356452,22.0351565 15.3999023,21.9882812 C15.2641595,21.941406 15.1474614,21.875977 15.0498047,21.7919922 C14.9521479,21.7080074 14.8759768,21.6079107 14.8212891,21.4916992 C14.7666013,21.3754877 14.7392578,21.2490241 14.7392578,21.1123047 C14.7392578,20.7783186 14.8637683,20.5200204 15.112793,20.3374023 C15.3618177,20.1547842 15.733396,20.0634766 16.2275391,20.0634766 L16.6816406,20.0634766 L16.6816406,19.8759766 C16.6816406,19.7236321 16.6318364,19.6030278 16.5322266,19.5141602 C16.4326167,19.4252925 16.2890634,19.3808594 16.1015625,19.3808594 C15.935546,19.3808594 15.8144535,19.4165035 15.7382812,19.487793 C15.662109,19.5590824 15.6240234,19.6542963 15.6240234,19.7734375 L14.8095703,19.7734375 C14.8095703,19.6386712 14.8393552,19.5107428 14.8989258,19.3896484 C14.9584964,19.2685541 15.0454096,19.1621098 15.159668,19.0703125 C15.2739264,18.9785152 15.4135734,18.905762 15.5786133,18.8520508 C15.7436532,18.7983396 15.9326161,18.7714844 16.1455078,18.7714844 C16.336915,18.7714844 16.5151359,18.7949216 16.6801758,18.8417969 C16.8452157,18.8886721 16.9882806,18.9580074 17.109375,19.0498047 C17.2304694,19.141602 17.325195,19.2573235 17.3935547,19.3969727 C17.4619144,19.5366218 17.4960938,19.6982413 17.4960938,19.8818359 L17.4960938,21.2412109 C17.4960938,21.4111337 17.5068358,21.5517573 17.5283203,21.6630859 C17.5498048,21.7744146 17.5810545,21.8701168 17.6220703,21.9501953 L17.6220703,22 L16.7958984,22 Z M16.0195312,21.4287109 C16.1015629,21.4287109 16.177734,21.4189454 16.2480469,21.3994141 C16.3183597,21.3798827 16.3818357,21.3544923 16.4384766,21.3232422 C16.4951175,21.291992 16.5439451,21.2563479 16.5849609,21.2163086 C16.6259768,21.1762693 16.658203,21.1357424 16.6816406,21.0947266 L16.6816406,20.5498047 L16.265625,20.5498047 C16.1386712,20.5498047 16.0302739,20.5620116 15.9404297,20.5864258 C15.8505855,20.61084 15.777344,20.6450193 15.7207031,20.6889648 C15.6640622,20.7329104 15.6220704,20.7856442 15.5947266,20.847168 C15.5673827,20.9086917 15.5537109,20.9755856 15.5537109,21.0478516 C15.5537109,21.1572271 15.5922848,21.2480465 15.6694336,21.3203125 C15.7465824,21.3925785 15.8632805,21.4287109 16.0195312,21.4287109 Z M20.6923828,18.7714844 C20.8154303,18.7714844 20.9291987,18.7797851 21.0336914,18.7963867 C21.1381841,18.8129884 21.2226559,18.8310546 21.2871094,18.8505859 L21.1669922,19.6621094 C21.0595698,19.6367186 20.9497076,19.6176758 20.8374023,19.6049805 C20.7250971,19.5922851 20.6181646,19.5859375 20.5166016,19.5859375 C20.2880848,19.5859375 20.1049812,19.6298824 19.9672852,19.7177734 C19.8295892,19.8056645 19.7265628,19.9316398 19.6582031,20.0957031 L19.6582031,22 L18.84375,22 L18.84375,18.8300781 L19.6025391,18.8300781 L19.640625,19.3486328 C19.7695319,19.1689444 19.9238272,19.0278325 20.1035156,18.925293 C20.283204,18.8227534 20.4794911,18.7714844 20.6923828,18.7714844 Z M23.5107422,18.0537109 L23.5107422,18.8300781 L24.6943359,18.8300781 L24.6943359,19.4306641 L23.5107422,19.4306641 L23.5107422,20.7929688 C23.5107422,20.9082037 23.5239256,21.0043941 23.550293,21.081543 C23.5766603,21.1586918 23.6142576,21.2202146 23.6630859,21.2661133 C23.7119143,21.3120119 23.7709957,21.3447265 23.840332,21.3642578 C23.9096683,21.3837892 23.9873043,21.3935547 24.0732422,21.3935547 C24.1357425,21.3935547 24.1997067,21.390625 24.2651367,21.3847656 C24.3305667,21.3789062 24.3930661,21.3715821 24.4526367,21.362793 C24.5122073,21.3540039 24.5678708,21.3447266 24.6196289,21.3349609 C24.671387,21.3251953 24.7158201,21.3154297 24.7529297,21.3056641 L24.8320312,21.8652344 C24.7753903,21.8984377 24.7089848,21.927246 24.6328125,21.9516602 C24.5566402,21.9760743 24.4755864,21.9960937 24.3896484,22.0117188 C24.3037105,22.0273438 24.2143559,22.0395507 24.121582,22.0483398 C24.0288081,22.057129 23.9375004,22.0615234 23.8476562,22.0615234 C23.6738273,22.0615234 23.516114,22.0385744 23.3745117,21.9926758 C23.2329094,21.9467771 23.1118169,21.8754888 23.0112305,21.7788086 C22.910644,21.6821284 22.8330081,21.5590828 22.7783203,21.409668 C22.7236325,21.2602532 22.6962891,21.0810557 22.6962891,20.8720703 L22.6962891,19.4306641 L21.9726562,19.4306641 L21.9726562,18.8300781 L22.6962891,18.8300781 L22.6962891,18.0537109 L23.5107422,18.0537109 Z M26.3554688,18.8300781 L26.4052734,19.2695312 C26.5185553,19.1113273 26.6562492,18.98877 26.8183594,18.9018555 C26.9804696,18.814941 27.1601553,18.7714844 27.3574219,18.7714844 C27.5175789,18.7714844 27.6640618,18.7949216 27.796875,18.8417969 C27.9296882,18.8886721 28.0444331,18.9633784 28.1411133,19.065918 C28.2377935,19.1684575 28.312988,19.3002922 28.3666992,19.4614258 C28.4204104,19.6225594 28.4472656,19.8183582 28.4472656,20.0488281 L28.4472656,22 L27.6328125,22 L27.6328125,20.0605469 C27.6328125,19.9355463 27.6186525,19.8325199 27.590332,19.7514648 C27.5620116,19.6704098 27.5214846,19.6064455 27.46875,19.5595703 C27.4160154,19.5126951 27.3525394,19.4799806 27.2783203,19.4614258 C27.2041012,19.442871 27.1201177,19.4335938 27.0263672,19.4335938 C26.8876946,19.4335938 26.7695317,19.4614255 26.671875,19.5170898 C26.5742183,19.5727542 26.4951175,19.6494136 26.4345703,19.7470703 L26.4345703,22 L25.6171875,22 L25.6171875,18.8300781 L26.3554688,18.8300781 Z M30.7558594,22.0585938 C30.5117175,22.0585938 30.2900401,22.0185551 30.0908203,21.9384766 C29.8916006,21.858398 29.7207038,21.7495124 29.578125,21.6118164 C29.4355462,21.4741204 29.325684,21.3120127 29.2485352,21.1254883 C29.1713863,20.9389639 29.1328125,20.7392589 29.1328125,20.5263672 L29.1328125,20.4091797 C29.1328125,20.166991 29.1708981,19.9458018 29.2470703,19.7456055 C29.3232426,19.5454092 29.4296868,19.3730476 29.5664062,19.2285156 C29.7031257,19.0839837 29.8652334,18.9716801 30.0527344,18.8916016 C30.2402353,18.811523 30.4443348,18.7714844 30.6650391,18.7714844 C30.8935558,18.7714844 31.0971671,18.8090817 31.2758789,18.8842773 C31.4545907,18.959473 31.6059564,19.065429 31.7299805,19.2021484 C31.8540045,19.3388679 31.9482419,19.503417 32.0126953,19.6958008 C32.0771488,19.8881846 32.109375,20.1005848 32.109375,20.3330078 L32.109375,20.6787109 L29.9589844,20.6787109 C29.9746095,20.7861333 30.0063474,20.8842769 30.0541992,20.9731445 C30.102051,21.0620122 30.1630856,21.1386716 30.2373047,21.203125 C30.3115238,21.2675784 30.3964839,21.3173826 30.4921875,21.3525391 C30.5878911,21.3876955 30.6923822,21.4052734 30.8056641,21.4052734 C30.8857426,21.4052734 30.9653316,21.397461 31.0444336,21.3818359 C31.1235356,21.3662109 31.1992184,21.3432619 31.2714844,21.3129883 C31.3437504,21.2827147 31.4111325,21.2451174 31.4736328,21.2001953 C31.5361331,21.1552732 31.5908201,21.1025394 31.6376953,21.0419922 L32.0449219,21.4814453 C31.9941404,21.5537113 31.9282231,21.6245114 31.847168,21.6938477 C31.7661129,21.7631839 31.6704107,21.8247068 31.5600586,21.878418 C31.4497065,21.9321292 31.3271491,21.9755858 31.1923828,22.0087891 C31.0576165,22.0419924 30.9121102,22.0585938 30.7558594,22.0585938 Z M30.6591797,19.4306641 C30.5673824,19.4306641 30.4833988,19.4467772 30.4072266,19.4790039 C30.3310543,19.5112306 30.2641604,19.5576169 30.206543,19.6181641 C30.1489255,19.6787112 30.1005861,19.7509761 30.0615234,19.8349609 C30.0224607,19.9189457 29.9931642,20.0126948 29.9736328,20.1162109 L31.3095703,20.1162109 L31.3095703,20.0517578 C31.305664,19.9658199 31.2890626,19.884766 31.2597656,19.8085938 C31.2304686,19.7324215 31.1884768,19.6665042 31.1337891,19.6108398 C31.0791013,19.5551755 31.0122074,19.5112306 30.9331055,19.4790039 C30.8540035,19.4467772 30.7626958,19.4306641 30.6591797,19.4306641 Z M35.0947266,18.7714844 C35.2177741,18.7714844 35.3315424,18.7797851 35.4360352,18.7963867 C35.5405279,18.8129884 35.6249997,18.8310546 35.6894531,18.8505859 L35.5693359,19.6621094 C35.4619135,19.6367186 35.3520513,19.6176758 35.2397461,19.6049805 C35.1274408,19.5922851 35.0205083,19.5859375 34.9189453,19.5859375 C34.6904285,19.5859375 34.5073249,19.6298824 34.3696289,19.7177734 C34.2319329,19.8056645 34.1289066,19.9316398 34.0605469,20.0957031 L34.0605469,22 L33.2460938,22 L33.2460938,18.8300781 L34.0048828,18.8300781 L34.0429688,19.3486328 C34.1718756,19.1689444 34.326171,19.0278325 34.5058594,18.925293 C34.6855478,18.8227534 34.8818349,18.7714844 35.0947266,18.7714844 Z M38.4638672,21.1298828 C38.4638672,21.0810544 38.4526368,21.0380861 38.4301758,21.0009766 C38.4077147,20.963867 38.3676761,20.9291994 38.3100586,20.8969727 C38.2524411,20.8647459 38.1757817,20.8349611 38.0800781,20.8076172 C37.9843745,20.7802733 37.863282,20.7529298 37.7167969,20.7255859 C37.5312491,20.6884764 37.3618172,20.6420901 37.2084961,20.5864258 C37.055175,20.5307614 36.9238287,20.4633793 36.8144531,20.3842773 C36.7050776,20.3051754 36.6196292,20.2138677 36.5581055,20.1103516 C36.4965817,20.0068354 36.4658203,19.887696 36.4658203,19.7529297 C36.4658203,19.6220697 36.49707,19.4970709 36.5595703,19.3779297 C36.6220706,19.2587885 36.7119135,19.1542973 36.8291016,19.0644531 C36.9462896,18.9746089 37.0888663,18.9033206 37.2568359,18.8505859 C37.4248055,18.7978513 37.6142568,18.7714844 37.8251953,18.7714844 C38.0458995,18.7714844 38.2441397,18.797363 38.4199219,18.8491211 C38.595704,18.9008792 38.7446283,18.9721675 38.8666992,19.0629883 C38.9887701,19.153809 39.0820309,19.2617181 39.1464844,19.3867188 C39.2109378,19.5117194 39.2431641,19.6474602 39.2431641,19.7939453 L38.4287109,19.7939453 C38.4287109,19.6708978 38.3789067,19.5678715 38.2792969,19.4848633 C38.179687,19.4018551 38.0283213,19.3603516 37.8251953,19.3603516 C37.6357412,19.3603516 37.4926763,19.3945309 37.3959961,19.4628906 C37.2993159,19.5312503 37.2509766,19.6152339 37.2509766,19.7148438 C37.2509766,19.761719 37.2607421,19.8051756 37.2802734,19.8452148 C37.2998048,19.8852541 37.3344724,19.9213866 37.3842773,19.9536133 C37.4340823,19.98584 37.5019527,20.0151366 37.5878906,20.0415039 C37.6738286,20.0678712 37.7832025,20.0908202 37.9160156,20.1103516 C38.1074228,20.1416017 38.2851554,20.1816404 38.4492188,20.2304688 C38.6132821,20.2792971 38.7548822,20.3422848 38.8740234,20.4194336 C38.9931647,20.4965824 39.0864254,20.5903315 39.1538086,20.7006836 C39.2211917,20.8110357 39.2548828,20.9423821 39.2548828,21.0947266 C39.2548828,21.2353523 39.2211917,21.3647455 39.1538086,21.4829102 C39.0864254,21.6010748 38.9907233,21.7031246 38.8666992,21.7890625 C38.7426752,21.8750004 38.5927743,21.9418943 38.4169922,21.9897461 C38.2412101,22.0375979 38.044923,22.0615234 37.828125,22.0615234 C37.5898426,22.0615234 37.3793954,22.0302737 37.1967773,21.9677734 C37.0141592,21.9052731 36.8613287,21.823731 36.7382812,21.7231445 C36.6152338,21.6225581 36.521973,21.5083014 36.4584961,21.3803711 C36.3950192,21.2524408 36.3632812,21.1240241 36.3632812,20.9951172 L37.1396484,20.9951172 C37.1455078,21.0810551 37.1689451,21.1547848 37.2099609,21.2163086 C37.2509768,21.2778323 37.3037106,21.3276365 37.3681641,21.3657227 C37.4326175,21.4038088 37.5063472,21.4316405 37.5893555,21.4492188 C37.6723637,21.466797 37.7578121,21.4755859 37.8457031,21.4755859 C38.046876,21.4755859 38.2001948,21.4433597 38.3056641,21.3789062 C38.4111333,21.3144528 38.4638672,21.2314458 38.4638672,21.1298828 Z M40.8339844,19.2666016 C40.9394537,19.1123039 41.0678703,18.9912114 41.2192383,18.9033203 C41.3706062,18.8154292 41.5400381,18.7714844 41.7275391,18.7714844 C41.8935555,18.7714844 42.0458977,18.7963865 42.1845703,18.8461914 C42.3232429,18.8959963 42.4423823,18.9736323 42.5419922,19.0791016 C42.6416021,19.1845708 42.719238,19.3198234 42.7749023,19.4848633 C42.8305667,19.6499032 42.8583984,19.8486317 42.8583984,20.0810547 L42.8583984,22 L42.0439453,22 L42.0439453,20.0751953 C42.0439453,19.9619135 42.0297853,19.8642582 42.0014648,19.7822266 C41.9731444,19.7001949 41.9326175,19.6337893 41.8798828,19.5830078 C41.8271482,19.5322263 41.7636722,19.494629 41.6894531,19.4702148 C41.615234,19.4458007 41.5312505,19.4335938 41.4375,19.4335938 C41.3007806,19.4335938 41.1821294,19.4580076 41.081543,19.5068359 C40.9809565,19.5556643 40.8984378,19.624023 40.8339844,19.7119141 L40.8339844,22 L40.0195312,22 L40.0195312,17.5 L40.8339844,17.5 L40.8339844,19.2666016 Z M43.8369141,18.8300781 L45.5625,18.8300781 L45.5625,21.3378906 L46.4208984,21.3378906 L46.4208984,22 L43.8369141,22 L43.8369141,21.3378906 L44.7392578,21.3378906 L44.7392578,19.4951172 L43.8369141,19.4951172 L43.8369141,18.8300781 Z M44.6806641,18.0185547 C44.6806641,17.9560544 44.6918944,17.8979495 44.7143555,17.8442383 C44.7368165,17.7905271 44.7685545,17.7446291 44.8095703,17.706543 C44.8505861,17.6684568 44.8999021,17.638672 44.9575195,17.6171875 C45.015137,17.595703 45.0791012,17.5849609 45.1494141,17.5849609 C45.293946,17.5849609 45.408691,17.6254879 45.4936523,17.706543 C45.5786137,17.7875981 45.6210938,17.8916009 45.6210938,18.0185547 C45.6210938,18.1455084 45.5786137,18.2495113 45.4936523,18.3305664 C45.408691,18.4116215 45.293946,18.4521484 45.1494141,18.4521484 C45.0791012,18.4521484 45.015137,18.4414064 44.9575195,18.4199219 C44.8999021,18.3984374 44.8505861,18.3686525 44.8095703,18.3305664 C44.7685545,18.2924803 44.7368165,18.2465823 44.7143555,18.1928711 C44.6918944,18.1391599 44.6806641,18.081055 44.6806641,18.0185547 Z M50.0683594,20.4443359 C50.0683594,20.6748058 50.0415042,20.8886709 49.987793,21.0859375 C49.9340818,21.2832041 49.854981,21.4536126 49.7504883,21.597168 C49.6459956,21.7407234 49.5166023,21.8535152 49.3623047,21.9355469 C49.208007,22.0175785 49.031251,22.0585938 48.8320313,22.0585938 C48.6621085,22.0585938 48.512696,22.0292972 48.3837891,21.9707031 C48.2548822,21.9121091 48.1425786,21.8300787 48.046875,21.7246094 L48.046875,23.21875 L47.2324219,23.21875 L47.2324219,18.8300781 L47.9853516,18.8300781 L48.0146484,19.140625 C48.1123052,19.0234369 48.2275384,18.9326175 48.3603516,18.8681641 C48.4931647,18.8037106 48.6484366,18.7714844 48.8261719,18.7714844 C49.0273448,18.7714844 49.2050774,18.8100582 49.359375,18.887207 C49.5136726,18.9643559 49.6435542,19.0737298 49.7490234,19.215332 C49.8544927,19.3569343 49.9340818,19.5268545 49.987793,19.7250977 C50.0415042,19.9233408 50.0683594,20.1425769 50.0683594,20.3828125 L50.0683594,20.4443359 Z M49.2539062,20.3828125 C49.2539062,20.2499993 49.2416993,20.1254889 49.2172852,20.0092773 C49.192871,19.8930658 49.1547854,19.7924809 49.1030273,19.7075195 C49.0512693,19.6225582 48.9848637,19.5556643 48.9038086,19.5068359 C48.8227535,19.4580076 48.72461,19.4335938 48.609375,19.4335938 C48.4667962,19.4335938 48.3500981,19.4614255 48.2592773,19.5170898 C48.1684566,19.5727542 48.0976565,19.6513667 48.046875,19.7529297 L48.046875,21.0771484 C48.0976565,21.1767583 48.1684566,21.2563474 48.2592773,21.315918 C48.3500981,21.3754886 48.4687493,21.4052734 48.6152344,21.4052734 C48.7304693,21.4052734 48.8286129,21.3798831 48.909668,21.3291016 C48.9907231,21.2783201 49.0566404,21.2089848 49.1074219,21.1210938 C49.1582034,21.0332027 49.1953124,20.9311529 49.21875,20.8149414 C49.2421876,20.6987299 49.2539062,20.575196 49.2539062,20.4443359 L49.2539062,20.3828125 Z M56.4492188,21.0068359 L56.7246094,18.8300781 L57.4716797,18.8300781 L56.9033203,22 L56.1884766,22 L55.7724609,19.984375 L55.3710938,22 L54.65625,22 L54.0878906,18.8300781 L54.8320312,18.8300781 L55.1074219,21.015625 L55.5058594,18.8300781 L56.0507812,18.8300781 L56.4492188,21.0068359 Z M58.2392578,18.8300781 L59.9648438,18.8300781 L59.9648438,21.3378906 L60.8232422,21.3378906 L60.8232422,22 L58.2392578,22 L58.2392578,21.3378906 L59.1416016,21.3378906 L59.1416016,19.4951172 L58.2392578,19.4951172 L58.2392578,18.8300781 Z M59.0830078,18.0185547 C59.0830078,17.9560544 59.0942382,17.8979495 59.1166992,17.8442383 C59.1391603,17.7905271 59.1708982,17.7446291 59.2119141,17.706543 C59.2529299,17.6684568 59.3022458,17.638672 59.3598633,17.6171875 C59.4174808,17.595703 59.481445,17.5849609 59.5517578,17.5849609 C59.6962898,17.5849609 59.8110347,17.6254879 59.8959961,17.706543 C59.9809575,17.7875981 60.0234375,17.8916009 60.0234375,18.0185547 C60.0234375,18.1455084 59.9809575,18.2495113 59.8959961,18.3305664 C59.8110347,18.4116215 59.6962898,18.4521484 59.5517578,18.4521484 C59.481445,18.4521484 59.4174808,18.4414064 59.3598633,18.4199219 C59.3022458,18.3984374 59.2529299,18.3686525 59.2119141,18.3305664 C59.1708982,18.2924803 59.1391603,18.2465823 59.1166992,18.1928711 C59.0942382,18.1391599 59.0830078,18.081055 59.0830078,18.0185547 Z M63.1171875,18.0537109 L63.1171875,18.8300781 L64.3007812,18.8300781 L64.3007812,19.4306641 L63.1171875,19.4306641 L63.1171875,20.7929688 C63.1171875,20.9082037 63.130371,21.0043941 63.1567383,21.081543 C63.1831056,21.1586918 63.2207029,21.2202146 63.2695312,21.2661133 C63.3183596,21.3120119 63.3774411,21.3447265 63.4467773,21.3642578 C63.5161136,21.3837892 63.5937496,21.3935547 63.6796875,21.3935547 C63.7421878,21.3935547 63.806152,21.390625 63.871582,21.3847656 C63.937012,21.3789062 63.9995114,21.3715821 64.059082,21.362793 C64.1186526,21.3540039 64.1743161,21.3447266 64.2260742,21.3349609 C64.2778323,21.3251953 64.3222654,21.3154297 64.359375,21.3056641 L64.4384766,21.8652344 C64.3818357,21.8984377 64.3154301,21.927246 64.2392578,21.9516602 C64.1630856,21.9760743 64.0820317,21.9960937 63.9960938,22.0117188 C63.9101558,22.0273438 63.8208012,22.0395507 63.7280273,22.0483398 C63.6352534,22.057129 63.5439458,22.0615234 63.4541016,22.0615234 C63.2802726,22.0615234 63.1225593,22.0385744 62.980957,21.9926758 C62.8393548,21.9467771 62.7182622,21.8754888 62.6176758,21.7788086 C62.5170893,21.6821284 62.4394534,21.5590828 62.3847656,21.409668 C62.3300779,21.2602532 62.3027344,21.0810557 62.3027344,20.8720703 L62.3027344,19.4306641 L61.5791016,19.4306641 L61.5791016,18.8300781 L62.3027344,18.8300781 L62.3027344,18.0537109 L63.1171875,18.0537109 Z M66.0380859,19.2666016 C66.1435552,19.1123039 66.2719719,18.9912114 66.4233398,18.9033203 C66.5747078,18.8154292 66.7441397,18.7714844 66.9316406,18.7714844 C67.0976571,18.7714844 67.2499993,18.7963865 67.3886719,18.8461914 C67.5273444,18.8959963 67.6464839,18.9736323 67.7460938,19.0791016 C67.8457036,19.1845708 67.9233396,19.3198234 67.9790039,19.4848633 C68.0346682,19.6499032 68.0625,19.8486317 68.0625,20.0810547 L68.0625,22 L67.2480469,22 L67.2480469,20.0751953 C67.2480469,19.9619135 67.2338869,19.8642582 67.2055664,19.7822266 C67.177246,19.7001949 67.136719,19.6337893 67.0839844,19.5830078 C67.0312497,19.5322263 66.9677738,19.494629 66.8935547,19.4702148 C66.8193356,19.4458007 66.735352,19.4335938 66.6416016,19.4335938 C66.5048821,19.4335938 66.386231,19.4580076 66.2856445,19.5068359 C66.1850581,19.5556643 66.1025394,19.624023 66.0380859,19.7119141 L66.0380859,22 L65.2236328,22 L65.2236328,17.5 L66.0380859,17.5 L66.0380859,19.2666016 Z M3.26953125,28.4472656 C3.26953125,28.6835949 3.2436526,28.9003896 3.19189453,29.0976562 C3.14013646,29.2949229 3.06250052,29.464843 2.95898438,29.6074219 C2.85546823,29.7500007 2.72656327,29.8608394 2.57226562,29.9399414 C2.41796798,30.0190434 2.23828228,30.0585938 2.03320312,30.0585938 C1.84765532,30.0585938 1.6870124,30.0239261 1.55126953,29.9545898 C1.41552667,29.8852536 1.29882861,29.7880866 1.20117188,29.6630859 L1.16308594,30 L0.430664062,30 L0.430664062,25.5 L1.24511719,25.5 L1.24511719,27.1171875 C1.33886766,27.007812 1.44970639,26.9228519 1.57763672,26.8623047 C1.70556705,26.8017575 1.85546789,26.7714844 2.02734375,26.7714844 C2.23437604,26.7714844 2.41552657,26.811523 2.57080078,26.8916016 C2.726075,26.9716801 2.85546823,27.0830071 2.95898438,27.2255859 C3.06250052,27.3681648 3.14013646,27.5385732 3.19189453,27.7368164 C3.2436526,27.9350596 3.26953125,28.151366 3.26953125,28.3857422 L3.26953125,28.4472656 Z M2.45507812,28.3857422 C2.45507812,28.2568353 2.4453126,28.1347662 2.42578125,28.0195312 C2.4062499,27.9042963 2.37255883,27.8032231 2.32470703,27.7163086 C2.27685523,27.6293941 2.21191447,27.5605471 2.12988281,27.5097656 C2.04785115,27.4589841 1.94531312,27.4335938 1.82226562,27.4335938 C1.67382738,27.4335938 1.55322312,27.4648434 1.46044922,27.5273438 C1.36767532,27.5898441 1.29589869,27.6757807 1.24511719,27.7851562 L1.24511719,29.0478516 C1.29589869,29.1572271 1.36767532,29.2431638 1.46044922,29.3056641 C1.55322312,29.3681644 1.67578049,29.3994141 1.828125,29.3994141 C1.95117249,29.3994141 2.05273397,29.3754885 2.1328125,29.3276367 C2.21289103,29.2797849 2.27685523,29.2133793 2.32470703,29.128418 C2.37255883,29.0434566 2.4062499,28.9428717 2.42578125,28.8266602 C2.4453126,28.7104486 2.45507812,28.5839851 2.45507812,28.4472656 L2.45507812,28.3857422 Z M3.90234375,28.3857422 C3.90234375,28.1552723 3.93554654,27.9418955 4.00195312,27.7456055 C4.06835971,27.5493154 4.1655267,27.378907 4.29345703,27.234375 C4.42138736,27.089843 4.5776358,26.9765629 4.76220703,26.8945312 C4.94677827,26.8124996 5.15820193,26.7714844 5.39648438,26.7714844 C5.63476682,26.7714844 5.84667876,26.8124996 6.03222656,26.8945312 C6.21777437,26.9765629 6.37451108,27.089843 6.50244141,27.234375 C6.63037173,27.378907 6.72753873,27.5493154 6.79394531,27.7456055 C6.86035189,27.9418955 6.89355469,28.1552723 6.89355469,28.3857422 L6.89355469,28.4472656 C6.89355469,28.6796887 6.86035189,28.894042 6.79394531,29.090332 C6.72753873,29.2866221 6.63086001,29.4570305 6.50390625,29.6015625 C6.37695249,29.7460945 6.22070405,29.8588863 6.03515625,29.9399414 C5.84960845,30.0209965 5.63867306,30.0615234 5.40234375,30.0615234 C5.16406131,30.0615234 4.95166109,30.0209965 4.76513672,29.9399414 C4.57861235,29.8588863 4.42138736,29.7460945 4.29345703,29.6015625 C4.1655267,29.4570305 4.06835971,29.2866221 4.00195312,29.090332 C3.93554654,28.894042 3.90234375,28.6796887 3.90234375,28.4472656 L3.90234375,28.3857422 Z M4.71679688,28.4472656 C4.71679688,28.5800788 4.72949206,28.7045893 4.75488281,28.8208008 C4.78027356,28.9370123 4.82031223,29.0385738 4.875,29.1254883 C4.92968777,29.2124028 5.00048785,29.2812497 5.08740234,29.3320312 C5.17431684,29.3828128 5.27929626,29.4082031 5.40234375,29.4082031 C5.52148497,29.4082031 5.62402301,29.3828128 5.70996094,29.3320312 C5.79589887,29.2812497 5.86572239,29.2124028 5.91943359,29.1254883 C5.9731448,29.0385738 6.01269519,28.9370123 6.03808594,28.8208008 C6.06347669,28.7045893 6.07617188,28.5800788 6.07617188,28.4472656 L6.07617188,28.3857422 C6.07617188,28.2568353 6.06347669,28.1347662 6.03808594,28.0195312 C6.01269519,27.9042963 5.9731448,27.8027348 5.91943359,27.7148438 C5.86572239,27.6269527 5.79589887,27.5576174 5.70996094,27.5068359 C5.62402301,27.4560544 5.51953187,27.4306641 5.39648438,27.4306641 C5.27539002,27.4306641 5.17187543,27.4560544 5.0859375,27.5068359 C4.99999957,27.5576174 4.92968777,27.6269527 4.875,27.7148438 C4.82031223,27.8027348 4.78027356,27.9042963 4.75488281,28.0195312 C4.72949206,28.1347662 4.71679688,28.2568353 4.71679688,28.3857422 L4.71679688,28.4472656 Z M7.78417969,25.5 L9.55664062,25.5 L9.55664062,29.3378906 L10.4648438,29.3378906 L10.4648438,30 L7.78417969,30 L7.78417969,29.3378906 L8.73339844,29.3378906 L8.73339844,26.1650391 L7.78417969,26.1650391 L7.78417969,25.5 Z M11.1298828,28.3916016 C11.1298828,28.151366 11.1577146,27.9316416 11.2133789,27.7324219 C11.2690432,27.5332021 11.3505854,27.3623054 11.4580078,27.2197266 C11.5654302,27.0771477 11.6958,26.9667973 11.8491211,26.8886719 C12.0024422,26.8105465 12.1777334,26.7714844 12.375,26.7714844 C12.5410165,26.7714844 12.6870111,26.8012692 12.8129883,26.8608398 C12.9389655,26.9204105 13.0507808,27.0048823 13.1484375,27.1142578 L13.1484375,25.5 L13.9658203,25.5 L13.9658203,30 L13.2304688,30 L13.1894531,29.6689453 C13.0898433,29.7919928 12.9726569,29.887695 12.8378906,29.9560547 C12.7031243,30.0244144 12.5468759,30.0585938 12.3691406,30.0585938 C12.1757803,30.0585938 12.0024422,30.0180668 11.8491211,29.9370117 C11.6958,29.8559566 11.5659185,29.7441413 11.4594727,29.6015625 C11.3530268,29.4589837 11.2714847,29.2895518 11.2148438,29.0932617 C11.1582028,28.8969717 11.1298828,28.6835949 11.1298828,28.453125 L11.1298828,28.3916016 Z M11.9443359,28.453125 C11.9443359,28.5859382 11.9555663,28.7094721 11.9780273,28.8237305 C12.0004884,28.9379889 12.0371091,29.0375972 12.0878906,29.1225586 C12.1386721,29.20752 12.2041012,29.2744138 12.2841797,29.3232422 C12.3642582,29.3720706 12.4619135,29.3964844 12.5771484,29.3964844 C12.7177741,29.3964844 12.8344722,29.3662112 12.9272461,29.3056641 C13.02002,29.2451169 13.0937497,29.1621099 13.1484375,29.0566406 L13.1484375,27.7734375 C13.0937497,27.6660151 13.0205083,27.5825198 12.9287109,27.5229492 C12.8369136,27.4633786 12.7216804,27.4335938 12.5830078,27.4335938 C12.4677729,27.4335938 12.3696293,27.4584958 12.2885742,27.5083008 C12.2075191,27.5581057 12.1416018,27.6264644 12.0908203,27.7133789 C12.0400388,27.8002934 12.0029298,27.9018549 11.9794922,28.0180664 C11.9560546,28.1342779 11.9443359,28.2587884 11.9443359,28.3916016 L11.9443359,28.453125 Z M21.2724609,28.4472656 C21.2724609,28.6835949 21.2465823,28.9003896 21.1948242,29.0976562 C21.1430661,29.2949229 21.0654302,29.464843 20.9619141,29.6074219 C20.8583979,29.7500007 20.729493,29.8608394 20.5751953,29.9399414 C20.4208977,30.0190434 20.241212,30.0585938 20.0361328,30.0585938 C19.850585,30.0585938 19.6899421,30.0239261 19.5541992,29.9545898 C19.4184564,29.8852536 19.3017583,29.7880866 19.2041016,29.6630859 L19.1660156,30 L18.4335938,30 L18.4335938,25.5 L19.2480469,25.5 L19.2480469,27.1171875 C19.3417973,27.007812 19.4526361,26.9228519 19.5805664,26.8623047 C19.7084967,26.8017575 19.8583976,26.7714844 20.0302734,26.7714844 C20.2373057,26.7714844 20.4184563,26.811523 20.5737305,26.8916016 C20.7290047,26.9716801 20.8583979,27.0830071 20.9619141,27.2255859 C21.0654302,27.3681648 21.1430661,27.5385732 21.1948242,27.7368164 C21.2465823,27.9350596 21.2724609,28.151366 21.2724609,28.3857422 L21.2724609,28.4472656 Z M20.4580078,28.3857422 C20.4580078,28.2568353 20.4482423,28.1347662 20.4287109,28.0195312 C20.4091796,27.9042963 20.3754885,27.8032231 20.3276367,27.7163086 C20.2797849,27.6293941 20.2148442,27.5605471 20.1328125,27.5097656 C20.0507808,27.4589841 19.9482428,27.4335938 19.8251953,27.4335938 C19.6767571,27.4335938 19.5561528,27.4648434 19.4633789,27.5273438 C19.370605,27.5898441 19.2988284,27.6757807 19.2480469,27.7851562 L19.2480469,29.0478516 C19.2988284,29.1572271 19.370605,29.2431638 19.4633789,29.3056641 C19.5561528,29.3681644 19.6787102,29.3994141 19.8310547,29.3994141 C19.9541022,29.3994141 20.0556637,29.3754885 20.1357422,29.3276367 C20.2158207,29.2797849 20.2797849,29.2133793 20.3276367,29.128418 C20.3754885,29.0434566 20.4091796,28.9428717 20.4287109,28.8266602 C20.4482423,28.7104486 20.4580078,28.5839851 20.4580078,28.4472656 L20.4580078,28.3857422 Z M24.2929688,26.7714844 C24.4160162,26.7714844 24.5297846,26.7797851 24.6342773,26.7963867 C24.7387701,26.8129884 24.8232419,26.8310546 24.8876953,26.8505859 L24.7675781,27.6621094 C24.6601557,27.6367186 24.5502935,27.6176758 24.4379883,27.6049805 C24.325683,27.5922851 24.2187505,27.5859375 24.1171875,27.5859375 C23.8886707,27.5859375 23.7055671,27.6298824 23.5678711,27.7177734 C23.4301751,27.8056645 23.3271488,27.9316398 23.2587891,28.0957031 L23.2587891,30 L22.4443359,30 L22.4443359,26.8300781 L23.203125,26.8300781 L23.2412109,27.3486328 C23.3701178,27.1689444 23.5244132,27.0278325 23.7041016,26.925293 C23.88379,26.8227534 24.0800771,26.7714844 24.2929688,26.7714844 Z M27.5976562,30 C27.5781249,29.9609373 27.5615235,29.9160159 27.5478516,29.8652344 C27.5341796,29.8144529 27.522461,29.7607425 27.5126953,29.7041016 C27.4677732,29.7529299 27.4160159,29.7988279 27.3574219,29.8417969 C27.2988278,29.8847658 27.2338871,29.9223631 27.1625977,29.9545898 C27.0913082,29.9868166 27.0126957,30.0122069 26.9267578,30.0307617 C26.8408199,30.0493165 26.7480474,30.0585938 26.6484375,30.0585938 C26.4863273,30.0585938 26.337403,30.0351565 26.2016602,29.9882812 C26.0659173,29.941406 25.9492192,29.875977 25.8515625,29.7919922 C25.7539058,29.7080074 25.6777346,29.6079107 25.6230469,29.4916992 C25.5683591,29.3754877 25.5410156,29.2490241 25.5410156,29.1123047 C25.5410156,28.7783186 25.6655261,28.5200204 25.9145508,28.3374023 C26.1635755,28.1547842 26.5351538,28.0634766 27.0292969,28.0634766 L27.4833984,28.0634766 L27.4833984,27.8759766 C27.4833984,27.7236321 27.4335942,27.6030278 27.3339844,27.5141602 C27.2343745,27.4252925 27.0908212,27.3808594 26.9033203,27.3808594 C26.7373039,27.3808594 26.6162113,27.4165035 26.5400391,27.487793 C26.4638668,27.5590824 26.4257812,27.6542963 26.4257812,27.7734375 L25.6113281,27.7734375 C25.6113281,27.6386712 25.641113,27.5107428 25.7006836,27.3896484 C25.7602542,27.2685541 25.8471674,27.1621098 25.9614258,27.0703125 C26.0756842,26.9785152 26.2153312,26.905762 26.3803711,26.8520508 C26.545411,26.7983396 26.7343739,26.7714844 26.9472656,26.7714844 C27.1386728,26.7714844 27.3168937,26.7949216 27.4819336,26.8417969 C27.6469735,26.8886721 27.7900385,26.9580074 27.9111328,27.0498047 C28.0322272,27.141602 28.1269528,27.2573235 28.1953125,27.3969727 C28.2636722,27.5366218 28.2978516,27.6982413 28.2978516,27.8818359 L28.2978516,29.2412109 C28.2978516,29.4111337 28.3085936,29.5517573 28.3300781,29.6630859 C28.3515626,29.7744146 28.3828123,29.8701168 28.4238281,29.9501953 L28.4238281,30 L27.5976562,30 Z M26.8212891,29.4287109 C26.9033207,29.4287109 26.9794918,29.4189454 27.0498047,29.3994141 C27.1201175,29.3798827 27.1835935,29.3544923 27.2402344,29.3232422 C27.2968753,29.291992 27.3457029,29.2563479 27.3867188,29.2163086 C27.4277346,29.1762693 27.4599608,29.1357424 27.4833984,29.0947266 L27.4833984,28.5498047 L27.0673828,28.5498047 C26.9404291,28.5498047 26.8320317,28.5620116 26.7421875,28.5864258 C26.6523433,28.61084 26.5791018,28.6450193 26.5224609,28.6889648 C26.46582,28.7329104 26.4238283,28.7856442 26.3964844,28.847168 C26.3691405,28.9086917 26.3554688,28.9755856 26.3554688,29.0478516 C26.3554688,29.1572271 26.3940426,29.2480465 26.4711914,29.3203125 C26.5483402,29.3925785 26.6650383,29.4287109 26.8212891,29.4287109 Z M29.9560547,26.8300781 L30.0058594,27.2695312 C30.1191412,27.1113273 30.2568351,26.98877 30.4189453,26.9018555 C30.5810555,26.814941 30.7607412,26.7714844 30.9580078,26.7714844 C31.1181649,26.7714844 31.2646478,26.7949216 31.3974609,26.8417969 C31.5302741,26.8886721 31.645019,26.9633784 31.7416992,27.065918 C31.8383794,27.1684575 31.913574,27.3002922 31.9672852,27.4614258 C32.0209964,27.6225594 32.0478516,27.8183582 32.0478516,28.0488281 L32.0478516,30 L31.2333984,30 L31.2333984,28.0605469 C31.2333984,27.9355463 31.2192384,27.8325199 31.190918,27.7514648 C31.1625975,27.6704098 31.1220706,27.6064455 31.0693359,27.5595703 C31.0166013,27.5126951 30.9531254,27.4799806 30.8789062,27.4614258 C30.8046871,27.442871 30.7207036,27.4335938 30.6269531,27.4335938 C30.4882806,27.4335938 30.3701177,27.4614255 30.2724609,27.5170898 C30.1748042,27.5727542 30.0957034,27.6494136 30.0351562,27.7470703 L30.0351562,30 L29.2177734,30 L29.2177734,26.8300781 L29.9560547,26.8300781 Z M32.7333984,28.3916016 C32.7333984,28.151366 32.7612302,27.9316416 32.8168945,27.7324219 C32.8725589,27.5332021 32.954101,27.3623054 33.0615234,27.2197266 C33.1689458,27.0771477 33.2993156,26.9667973 33.4526367,26.8886719 C33.6059578,26.8105465 33.781249,26.7714844 33.9785156,26.7714844 C34.1445321,26.7714844 34.2905267,26.8012692 34.4165039,26.8608398 C34.5424811,26.9204105 34.6542964,27.0048823 34.7519531,27.1142578 L34.7519531,25.5 L35.5693359,25.5 L35.5693359,30 L34.8339844,30 L34.7929688,29.6689453 C34.6933589,29.7919928 34.5761725,29.887695 34.4414062,29.9560547 C34.30664,30.0244144 34.1503915,30.0585938 33.9726562,30.0585938 C33.7792959,30.0585938 33.6059578,30.0180668 33.4526367,29.9370117 C33.2993156,29.8559566 33.1694341,29.7441413 33.0629883,29.6015625 C32.9565424,29.4589837 32.8750003,29.2895518 32.8183594,29.0932617 C32.7617185,28.8969717 32.7333984,28.6835949 32.7333984,28.453125 L32.7333984,28.3916016 Z M33.5478516,28.453125 C33.5478516,28.5859382 33.5590819,28.7094721 33.581543,28.8237305 C33.604004,28.9379889 33.6406247,29.0375972 33.6914062,29.1225586 C33.7421878,29.20752 33.8076168,29.2744138 33.8876953,29.3232422 C33.9677738,29.3720706 34.0654291,29.3964844 34.1806641,29.3964844 C34.3212898,29.3964844 34.4379878,29.3662112 34.5307617,29.3056641 C34.6235356,29.2451169 34.6972654,29.1621099 34.7519531,29.0566406 L34.7519531,27.7734375 C34.6972654,27.6660151 34.6240239,27.5825198 34.5322266,27.5229492 C34.4404292,27.4633786 34.325196,27.4335938 34.1865234,27.4335938 C34.0712885,27.4335938 33.9731449,27.4584958 33.8920898,27.5083008 C33.8110348,27.5581057 33.7451174,27.6264644 33.6943359,27.7133789 C33.6435544,27.8002934 33.6064454,27.9018549 33.5830078,28.0180664 C33.5595702,28.1342779 33.5478516,28.2587884 33.5478516,28.3916016 L33.5478516,28.453125 Z M38.4638672,29.1298828 C38.4638672,29.0810544 38.4526368,29.0380861 38.4301758,29.0009766 C38.4077147,28.963867 38.3676761,28.9291994 38.3100586,28.8969727 C38.2524411,28.8647459 38.1757817,28.8349611 38.0800781,28.8076172 C37.9843745,28.7802733 37.863282,28.7529298 37.7167969,28.7255859 C37.5312491,28.6884764 37.3618172,28.6420901 37.2084961,28.5864258 C37.055175,28.5307614 36.9238287,28.4633793 36.8144531,28.3842773 C36.7050776,28.3051754 36.6196292,28.2138677 36.5581055,28.1103516 C36.4965817,28.0068354 36.4658203,27.887696 36.4658203,27.7529297 C36.4658203,27.6220697 36.49707,27.4970709 36.5595703,27.3779297 C36.6220706,27.2587885 36.7119135,27.1542973 36.8291016,27.0644531 C36.9462896,26.9746089 37.0888663,26.9033206 37.2568359,26.8505859 C37.4248055,26.7978513 37.6142568,26.7714844 37.8251953,26.7714844 C38.0458995,26.7714844 38.2441397,26.797363 38.4199219,26.8491211 C38.595704,26.9008792 38.7446283,26.9721675 38.8666992,27.0629883 C38.9887701,27.153809 39.0820309,27.2617181 39.1464844,27.3867188 C39.2109378,27.5117194 39.2431641,27.6474602 39.2431641,27.7939453 L38.4287109,27.7939453 C38.4287109,27.6708978 38.3789067,27.5678715 38.2792969,27.4848633 C38.179687,27.4018551 38.0283213,27.3603516 37.8251953,27.3603516 C37.6357412,27.3603516 37.4926763,27.3945309 37.3959961,27.4628906 C37.2993159,27.5312503 37.2509766,27.6152339 37.2509766,27.7148438 C37.2509766,27.761719 37.2607421,27.8051756 37.2802734,27.8452148 C37.2998048,27.8852541 37.3344724,27.9213866 37.3842773,27.9536133 C37.4340823,27.98584 37.5019527,28.0151366 37.5878906,28.0415039 C37.6738286,28.0678712 37.7832025,28.0908202 37.9160156,28.1103516 C38.1074228,28.1416017 38.2851554,28.1816404 38.4492188,28.2304688 C38.6132821,28.2792971 38.7548822,28.3422848 38.8740234,28.4194336 C38.9931647,28.4965824 39.0864254,28.5903315 39.1538086,28.7006836 C39.2211917,28.8110357 39.2548828,28.9423821 39.2548828,29.0947266 C39.2548828,29.2353523 39.2211917,29.3647455 39.1538086,29.4829102 C39.0864254,29.6010748 38.9907233,29.7031246 38.8666992,29.7890625 C38.7426752,29.8750004 38.5927743,29.9418943 38.4169922,29.9897461 C38.2412101,30.0375979 38.044923,30.0615234 37.828125,30.0615234 C37.5898426,30.0615234 37.3793954,30.0302737 37.1967773,29.9677734 C37.0141592,29.9052731 36.8613287,29.823731 36.7382812,29.7231445 C36.6152338,29.6225581 36.521973,29.5083014 36.4584961,29.3803711 C36.3950192,29.2524408 36.3632812,29.1240241 36.3632812,28.9951172 L37.1396484,28.9951172 C37.1455078,29.0810551 37.1689451,29.1547848 37.2099609,29.2163086 C37.2509768,29.2778323 37.3037106,29.3276365 37.3681641,29.3657227 C37.4326175,29.4038088 37.5063472,29.4316405 37.5893555,29.4492188 C37.6723637,29.466797 37.7578121,29.4755859 37.8457031,29.4755859 C38.046876,29.4755859 38.2001948,29.4433597 38.3056641,29.3789062 C38.4111333,29.3144528 38.4638672,29.2314458 38.4638672,29.1298828 Z M45.6474609,29.0068359 L45.9228516,26.8300781 L46.6699219,26.8300781 L46.1015625,30 L45.3867188,30 L44.9707031,27.984375 L44.5693359,30 L43.8544922,30 L43.2861328,26.8300781 L44.0302734,26.8300781 L44.3056641,29.015625 L44.7041016,26.8300781 L45.2490234,26.8300781 L45.6474609,29.0068359 Z M48.7587891,30.0585938 C48.5146472,30.0585938 48.2929697,30.0185551 48.09375,29.9384766 C47.8945303,29.858398 47.7236335,29.7495124 47.5810547,29.6118164 C47.4384758,29.4741204 47.3286137,29.3120127 47.2514648,29.1254883 C47.174316,28.9389639 47.1357422,28.7392589 47.1357422,28.5263672 L47.1357422,28.4091797 C47.1357422,28.166991 47.1738277,27.9458018 47.25,27.7456055 C47.3261723,27.5454092 47.4326165,27.3730476 47.5693359,27.2285156 C47.7060554,27.0839837 47.8681631,26.9716801 48.0556641,26.8916016 C48.243165,26.811523 48.4472645,26.7714844 48.6679688,26.7714844 C48.8964855,26.7714844 49.1000968,26.8090817 49.2788086,26.8842773 C49.4575204,26.959473 49.6088861,27.065429 49.7329102,27.2021484 C49.8569342,27.3388679 49.9511716,27.503417 50.015625,27.6958008 C50.0800784,27.8881846 50.1123047,28.1005848 50.1123047,28.3330078 L50.1123047,28.6787109 L47.9619141,28.6787109 C47.9775391,28.7861333 48.0092771,28.8842769 48.0571289,28.9731445 C48.1049807,29.0620122 48.1660153,29.1386716 48.2402344,29.203125 C48.3144535,29.2675784 48.3994136,29.3173826 48.4951172,29.3525391 C48.5908208,29.3876955 48.6953119,29.4052734 48.8085938,29.4052734 C48.8886723,29.4052734 48.9682613,29.397461 49.0473633,29.3818359 C49.1264652,29.3662109 49.2021481,29.3432619 49.2744141,29.3129883 C49.34668,29.2827147 49.4140622,29.2451174 49.4765625,29.2001953 C49.5390628,29.1552732 49.5937498,29.1025394 49.640625,29.0419922 L50.0478516,29.4814453 C49.9970701,29.5537113 49.9311527,29.6245114 49.8500977,29.6938477 C49.7690426,29.7631839 49.6733404,29.8247068 49.5629883,29.878418 C49.4526362,29.9321292 49.3300788,29.9755858 49.1953125,30.0087891 C49.0605462,30.0419924 48.9150398,30.0585938 48.7587891,30.0585938 Z M48.6621094,27.4306641 C48.570312,27.4306641 48.4863285,27.4467772 48.4101562,27.4790039 C48.333984,27.5112306 48.2670901,27.5576169 48.2094727,27.6181641 C48.1518552,27.6787112 48.1035158,27.7509761 48.0644531,27.8349609 C48.0253904,27.9189457 47.9960938,28.0126948 47.9765625,28.1162109 L49.3125,28.1162109 L49.3125,28.0517578 C49.3085937,27.9658199 49.2919923,27.884766 49.2626953,27.8085938 C49.2333983,27.7324215 49.1914065,27.6665042 49.1367188,27.6108398 C49.082031,27.5551755 49.0151371,27.5112306 48.9360352,27.4790039 C48.8569332,27.4467772 48.7656255,27.4306641 48.6621094,27.4306641 Z M3.26953125,36.4472656 C3.26953125,36.6835949 3.2436526,36.9003896 3.19189453,37.0976562 C3.14013646,37.2949229 3.06250052,37.464843 2.95898438,37.6074219 C2.85546823,37.7500007 2.72656327,37.8608394 2.57226562,37.9399414 C2.41796798,38.0190434 2.23828228,38.0585938 2.03320312,38.0585938 C1.84765532,38.0585938 1.6870124,38.0239261 1.55126953,37.9545898 C1.41552667,37.8852536 1.29882861,37.7880866 1.20117188,37.6630859 L1.16308594,38 L0.430664062,38 L0.430664062,33.5 L1.24511719,33.5 L1.24511719,35.1171875 C1.33886766,35.007812 1.44970639,34.9228519 1.57763672,34.8623047 C1.70556705,34.8017575 1.85546789,34.7714844 2.02734375,34.7714844 C2.23437604,34.7714844 2.41552657,34.811523 2.57080078,34.8916016 C2.726075,34.9716801 2.85546823,35.0830071 2.95898438,35.2255859 C3.06250052,35.3681648 3.14013646,35.5385732 3.19189453,35.7368164 C3.2436526,35.9350596 3.26953125,36.151366 3.26953125,36.3857422 L3.26953125,36.4472656 Z M2.45507812,36.3857422 C2.45507812,36.2568353 2.4453126,36.1347662 2.42578125,36.0195312 C2.4062499,35.9042963 2.37255883,35.8032231 2.32470703,35.7163086 C2.27685523,35.6293941 2.21191447,35.5605471 2.12988281,35.5097656 C2.04785115,35.4589841 1.94531312,35.4335938 1.82226562,35.4335938 C1.67382738,35.4335938 1.55322312,35.4648434 1.46044922,35.5273438 C1.36767532,35.5898441 1.29589869,35.6757807 1.24511719,35.7851562 L1.24511719,37.0478516 C1.29589869,37.1572271 1.36767532,37.2431638 1.46044922,37.3056641 C1.55322312,37.3681644 1.67578049,37.3994141 1.828125,37.3994141 C1.95117249,37.3994141 2.05273397,37.3754885 2.1328125,37.3276367 C2.21289103,37.2797849 2.27685523,37.2133793 2.32470703,37.128418 C2.37255883,37.0434566 2.4062499,36.9428717 2.42578125,36.8266602 C2.4453126,36.7104486 2.45507812,36.5839851 2.45507812,36.4472656 L2.45507812,36.3857422 Z M5.55175781,38.0585938 C5.30761597,38.0585938 5.0859385,38.0185551 4.88671875,37.9384766 C4.687499,37.858398 4.51660228,37.7495124 4.37402344,37.6118164 C4.2314446,37.4741204 4.12158242,37.3120127 4.04443359,37.1254883 C3.96728477,36.9389639 3.92871094,36.7392589 3.92871094,36.5263672 L3.92871094,36.4091797 C3.92871094,36.166991 3.96679649,35.9458018 4.04296875,35.7456055 C4.11914101,35.5454092 4.22558525,35.3730476 4.36230469,35.2285156 C4.49902412,35.0839837 4.66113188,34.9716801 4.84863281,34.8916016 C5.03613375,34.811523 5.24023327,34.7714844 5.4609375,34.7714844 C5.68945427,34.7714844 5.89306551,34.8090817 6.07177734,34.8842773 C6.25048917,34.959473 6.40185485,35.065429 6.52587891,35.2021484 C6.64990296,35.3388679 6.7441403,35.503417 6.80859375,35.6958008 C6.8730472,35.8881846 6.90527344,36.1005848 6.90527344,36.3330078 L6.90527344,36.6787109 L4.75488281,36.6787109 C4.77050789,36.7861333 4.80224585,36.8842769 4.85009766,36.9731445 C4.89794946,37.0620122 4.958984,37.1386716 5.03320312,37.203125 C5.10742225,37.2675784 5.19238233,37.3173826 5.28808594,37.3525391 C5.38378954,37.3876955 5.48828068,37.4052734 5.6015625,37.4052734 C5.68164103,37.4052734 5.76123007,37.397461 5.84033203,37.3818359 C5.91943399,37.3662109 5.99511683,37.3432619 6.06738281,37.3129883 C6.1396488,37.2827147 6.20703094,37.2451174 6.26953125,37.2001953 C6.33203156,37.1552732 6.38671852,37.1025394 6.43359375,37.0419922 L6.84082031,37.4814453 C6.79003881,37.5537113 6.7241215,37.6245114 6.64306641,37.6938477 C6.56201131,37.7631839 6.46630915,37.8247068 6.35595703,37.878418 C6.24560492,37.9321292 6.12304755,37.9755858 5.98828125,38.0087891 C5.85351495,38.0419924 5.70800859,38.0585938 5.55175781,38.0585938 Z M5.45507812,35.4306641 C5.36328079,35.4306641 5.27929726,35.4467772 5.203125,35.4790039 C5.12695274,35.5112306 5.06005888,35.5576169 5.00244141,35.6181641 C4.94482393,35.6787112 4.89648457,35.7509761 4.85742188,35.8349609 C4.81835918,35.9189457 4.7890626,36.0126948 4.76953125,36.1162109 L6.10546875,36.1162109 L6.10546875,36.0517578 C6.10156248,35.9658199 6.08496108,35.884766 6.05566406,35.8085938 C6.02636704,35.7324215 5.98437527,35.6665042 5.9296875,35.6108398 C5.87499973,35.5551755 5.80810586,35.5112306 5.72900391,35.4790039 C5.64990195,35.4467772 5.55859427,35.4306641 5.45507812,35.4306641 Z M7.78417969,33.5 L9.55664062,33.5 L9.55664062,37.3378906 L10.4648438,37.3378906 L10.4648438,38 L7.78417969,38 L7.78417969,37.3378906 L8.73339844,37.3378906 L8.73339844,34.1650391 L7.78417969,34.1650391 L7.78417969,33.5 Z M11.4316406,34.8300781 L13.1572266,34.8300781 L13.1572266,37.3378906 L14.015625,37.3378906 L14.015625,38 L11.4316406,38 L11.4316406,37.3378906 L12.3339844,37.3378906 L12.3339844,35.4951172 L11.4316406,35.4951172 L11.4316406,34.8300781 Z M12.2753906,34.0185547 C12.2753906,33.9560544 12.286621,33.8979495 12.309082,33.8442383 C12.3315431,33.7905271 12.363281,33.7446291 12.4042969,33.706543 C12.4453127,33.6684568 12.4946286,33.638672 12.5522461,33.6171875 C12.6098636,33.595703 12.6738278,33.5849609 12.7441406,33.5849609 C12.8886726,33.5849609 13.0034175,33.6254879 13.0883789,33.706543 C13.1733403,33.7875981 13.2158203,33.8916009 13.2158203,34.0185547 C13.2158203,34.1455084 13.1733403,34.2495113 13.0883789,34.3305664 C13.0034175,34.4116215 12.8886726,34.4521484 12.7441406,34.4521484 C12.6738278,34.4521484 12.6098636,34.4414064 12.5522461,34.4199219 C12.4946286,34.3984374 12.4453127,34.3686525 12.4042969,34.3305664 C12.363281,34.2924803 12.3315431,34.2465823 12.309082,34.1928711 C12.286621,34.1391599 12.2753906,34.081055 12.2753906,34.0185547 Z M16.3535156,38.0585938 C16.1093738,38.0585938 15.8876963,38.0185551 15.6884766,37.9384766 C15.4892568,37.858398 15.3183601,37.7495124 15.1757812,37.6118164 C15.0332024,37.4741204 14.9233402,37.3120127 14.8461914,37.1254883 C14.7690426,36.9389639 14.7304688,36.7392589 14.7304688,36.5263672 L14.7304688,36.4091797 C14.7304688,36.166991 14.7685543,35.9458018 14.8447266,35.7456055 C14.9208988,35.5454092 15.0273431,35.3730476 15.1640625,35.2285156 C15.3007819,35.0839837 15.4628897,34.9716801 15.6503906,34.8916016 C15.8378916,34.811523 16.0419911,34.7714844 16.2626953,34.7714844 C16.4912121,34.7714844 16.6948233,34.8090817 16.8735352,34.8842773 C17.052247,34.959473 17.2036127,35.065429 17.3276367,35.2021484 C17.4516608,35.3388679 17.5458981,35.503417 17.6103516,35.6958008 C17.674805,35.8881846 17.7070312,36.1005848 17.7070312,36.3330078 L17.7070312,36.6787109 L15.5566406,36.6787109 C15.5722657,36.7861333 15.6040037,36.8842769 15.6518555,36.9731445 C15.6997073,37.0620122 15.7607418,37.1386716 15.8349609,37.203125 C15.9091801,37.2675784 15.9941401,37.3173826 16.0898438,37.3525391 C16.1855474,37.3876955 16.2900385,37.4052734 16.4033203,37.4052734 C16.4833988,37.4052734 16.5629879,37.397461 16.6420898,37.3818359 C16.7211918,37.3662109 16.7968746,37.3432619 16.8691406,37.3129883 C16.9414066,37.2827147 17.0087888,37.2451174 17.0712891,37.2001953 C17.1337894,37.1552732 17.1884763,37.1025394 17.2353516,37.0419922 L17.6425781,37.4814453 C17.5917966,37.5537113 17.5258793,37.6245114 17.4448242,37.6938477 C17.3637691,37.7631839 17.268067,37.8247068 17.1577148,37.878418 C17.0473627,37.9321292 16.9248054,37.9755858 16.7900391,38.0087891 C16.6552728,38.0419924 16.5097664,38.0585938 16.3535156,38.0585938 Z M16.2568359,35.4306641 C16.1650386,35.4306641 16.0810551,35.4467772 16.0048828,35.4790039 C15.9287106,35.5112306 15.8618167,35.5576169 15.8041992,35.6181641 C15.7465817,35.6787112 15.6982424,35.7509761 15.6591797,35.8349609 C15.620117,35.9189457 15.5908204,36.0126948 15.5712891,36.1162109 L16.9072266,36.1162109 L16.9072266,36.0517578 C16.9033203,35.9658199 16.8867189,35.884766 16.8574219,35.8085938 C16.8281249,35.7324215 16.7861331,35.6665042 16.7314453,35.6108398 C16.6767575,35.5551755 16.6098637,35.5112306 16.5307617,35.4790039 C16.4516598,35.4467772 16.3603521,35.4306641 16.2568359,35.4306641 Z M19.7636719,37.0595703 L19.8046875,37.2880859 L19.8457031,37.0683594 L20.5429688,34.8300781 L21.3925781,34.8300781 L20.1884766,38 L19.4238281,38 L18.2138672,34.8300781 L19.0634766,34.8300781 L19.7636719,37.0595703 Z M23.5546875,38.0585938 C23.3105457,38.0585938 23.0888682,38.0185551 22.8896484,37.9384766 C22.6904287,37.858398 22.519532,37.7495124 22.3769531,37.6118164 C22.2343743,37.4741204 22.1245121,37.3120127 22.0473633,37.1254883 C21.9702145,36.9389639 21.9316406,36.7392589 21.9316406,36.5263672 L21.9316406,36.4091797 C21.9316406,36.166991 21.9697262,35.9458018 22.0458984,35.7456055 C22.1220707,35.5454092 22.2285149,35.3730476 22.3652344,35.2285156 C22.5019538,35.0839837 22.6640616,34.9716801 22.8515625,34.8916016 C23.0390634,34.811523 23.243163,34.7714844 23.4638672,34.7714844 C23.692384,34.7714844 23.8959952,34.8090817 24.074707,34.8842773 C24.2534189,34.959473 24.4047845,35.065429 24.5288086,35.2021484 C24.6528327,35.3388679 24.74707,35.503417 24.8115234,35.6958008 C24.8759769,35.8881846 24.9082031,36.1005848 24.9082031,36.3330078 L24.9082031,36.6787109 L22.7578125,36.6787109 C22.7734376,36.7861333 22.8051755,36.8842769 22.8530273,36.9731445 C22.9008791,37.0620122 22.9619137,37.1386716 23.0361328,37.203125 C23.1103519,37.2675784 23.195312,37.3173826 23.2910156,37.3525391 C23.3867192,37.3876955 23.4912104,37.4052734 23.6044922,37.4052734 C23.6845707,37.4052734 23.7641598,37.397461 23.8432617,37.3818359 C23.9223637,37.3662109 23.9980465,37.3432619 24.0703125,37.3129883 C24.1425785,37.2827147 24.2099606,37.2451174 24.2724609,37.2001953 C24.3349612,37.1552732 24.3896482,37.1025394 24.4365234,37.0419922 L24.84375,37.4814453 C24.7929685,37.5537113 24.7270512,37.6245114 24.6459961,37.6938477 C24.564941,37.7631839 24.4692388,37.8247068 24.3588867,37.878418 C24.2485346,37.9321292 24.1259772,37.9755858 23.9912109,38.0087891 C23.8564446,38.0419924 23.7109383,38.0585938 23.5546875,38.0585938 Z M23.4580078,35.4306641 C23.3662105,35.4306641 23.2822269,35.4467772 23.2060547,35.4790039 C23.1298824,35.5112306 23.0629886,35.5576169 23.0053711,35.6181641 C22.9477536,35.6787112 22.8994143,35.7509761 22.8603516,35.8349609 C22.8212889,35.9189457 22.7919923,36.0126948 22.7724609,36.1162109 L24.1083984,36.1162109 L24.1083984,36.0517578 C24.1044922,35.9658199 24.0878908,35.884766 24.0585938,35.8085938 C24.0292967,35.7324215 23.987305,35.6665042 23.9326172,35.6108398 C23.8779294,35.5551755 23.8110356,35.5112306 23.7319336,35.4790039 C23.6528316,35.4467772 23.561524,35.4306641 23.4580078,35.4306641 Z M29.4345703,34.8300781 L31.1601562,34.8300781 L31.1601562,37.3378906 L32.0185547,37.3378906 L32.0185547,38 L29.4345703,38 L29.4345703,37.3378906 L30.3369141,37.3378906 L30.3369141,35.4951172 L29.4345703,35.4951172 L29.4345703,34.8300781 Z M30.2783203,34.0185547 C30.2783203,33.9560544 30.2895507,33.8979495 30.3120117,33.8442383 C30.3344728,33.7905271 30.3662107,33.7446291 30.4072266,33.706543 C30.4482424,33.6684568 30.4975583,33.638672 30.5551758,33.6171875 C30.6127933,33.595703 30.6767575,33.5849609 30.7470703,33.5849609 C30.8916023,33.5849609 31.0063472,33.6254879 31.0913086,33.706543 C31.17627,33.7875981 31.21875,33.8916009 31.21875,34.0185547 C31.21875,34.1455084 31.17627,34.2495113 31.0913086,34.3305664 C31.0063472,34.4116215 30.8916023,34.4521484 30.7470703,34.4521484 C30.6767575,34.4521484 30.6127933,34.4414064 30.5551758,34.4199219 C30.4975583,34.3984374 30.4482424,34.3686525 30.4072266,34.3305664 C30.3662107,34.2924803 30.3344728,34.2465823 30.3120117,34.1928711 C30.2895507,34.1391599 30.2783203,34.081055 30.2783203,34.0185547 Z M33.5566406,34.8300781 L33.6064453,35.2695312 C33.7197271,35.1113273 33.8574211,34.98877 34.0195312,34.9018555 C34.1816414,34.814941 34.3613271,34.7714844 34.5585938,34.7714844 C34.7187508,34.7714844 34.8652337,34.7949216 34.9980469,34.8417969 C35.13086,34.8886721 35.245605,34.9633784 35.3422852,35.065918 C35.4389653,35.1684575 35.5141599,35.3002922 35.5678711,35.4614258 C35.6215823,35.6225594 35.6484375,35.8183582 35.6484375,36.0488281 L35.6484375,38 L34.8339844,38 L34.8339844,36.0605469 C34.8339844,35.9355463 34.8198244,35.8325199 34.7915039,35.7514648 C34.7631835,35.6704098 34.7226565,35.6064455 34.6699219,35.5595703 C34.6171872,35.5126951 34.5537113,35.4799806 34.4794922,35.4614258 C34.4052731,35.442871 34.3212895,35.4335938 34.2275391,35.4335938 C34.0888665,35.4335938 33.9707036,35.4614255 33.8730469,35.5170898 C33.7753901,35.5727542 33.6962894,35.6494136 33.6357422,35.7470703 L33.6357422,38 L32.8183594,38 L32.8183594,34.8300781 L33.5566406,34.8300781 Z M37.2421875,37.5283203 C37.2421875,37.4521481 37.2548827,37.381348 37.2802734,37.315918 C37.3056642,37.250488 37.3427732,37.1938479 37.3916016,37.1459961 C37.4404299,37.0981443 37.4999996,37.0600587 37.5703125,37.0317383 C37.6406254,37.0034178 37.7197261,36.9892578 37.8076172,36.9892578 C37.8955083,36.9892578 37.974609,37.0034178 38.0449219,37.0317383 C38.1152347,37.0600587 38.1743162,37.0981443 38.222168,37.1459961 C38.2700198,37.1938479 38.3071288,37.250488 38.3334961,37.315918 C38.3598634,37.381348 38.3730469,37.4521481 38.3730469,37.5283203 C38.3730469,37.6025394 38.3598634,37.6718747 38.3334961,37.7363281 C38.3071288,37.8007816 38.2700198,37.8569334 38.222168,37.9047852 C38.1743162,37.952637 38.1152347,37.9902342 38.0449219,38.0175781 C37.974609,38.044922 37.8955083,38.0585938 37.8076172,38.0585938 C37.7197261,38.0585938 37.6406254,38.044922 37.5703125,38.0175781 C37.4999996,37.9902342 37.4404299,37.952637 37.3916016,37.9047852 C37.3427732,37.8569334 37.3056642,37.8007816 37.2802734,37.7363281 C37.2548827,37.6718747 37.2421875,37.6025394 37.2421875,37.5283203 Z" id="We-partnership-with"></path>
                    </g>
                    <use id="iphone" stroke="#000000" mask="url(#mask-14)" stroke-width="4" fill="#FFFFFF" xlink:href="#path-13"></use>
                    <use id="iphone" stroke="#000000" mask="url(#mask-16)" stroke-width="4" fill="#FFFFFF" opacity="0.143399004" xlink:href="#path-15"></use>
                    <use id="Oval" stroke="#000000" mask="url(#mask-18)" stroke-width="4" fill="#FFFFFF" opacity="0.2" xlink:href="#path-17"></use>
                    <use id="Oval" stroke="#000000" mask="url(#mask-20)" stroke-width="4" fill="#FFFFFF" opacity="0.2" xlink:href="#path-19"></use>
                    <path d="M150,50 L150,128 L156,128 L156,130 L150,130 L150,136 L148,136 L148,130 L70,130 L70,136 L68,136 L68,130 L62,130 L62,128 L68,128 L68,50 L62,50 L62,48 L68,48 L68,42 L70,42 L70,48 L148,48 L148,42 L150,42 L150,48 L156,48 L156,50 L150,50 Z M148,50 L148,128 L70,128 L70,50 L148,50 Z" id="Combined-Shape" fill="#000000" opacity="0.100000001"></path>
                    <path d="M173,261 L173,51 L162,51 L162,49 L173,49 L173,39 L175,39 L175,49 L293,49 L293,39 L295,39 L295,49 L304,49 L304,51 L295,51 L295,261 L304,261 L304,263 L295,263 L295,271 L293,271 L293,263 L175,263 L175,271 L173,271 L173,263 L162,263 L162,261 L173,261 Z M175,261 L175,51 L293,51 L293,261 L175,261 Z" id="Combined-Shape" fill="#000000" opacity="0.100000001"></path>
                    <g id="ruler" transform="translate(53.492100, 53.974856) rotate(-315.000000) translate(-53.492100, -53.974856) translate(43.992100, -11.525144)">
                        <path d="M-1.42108547e-13,0.992517766 C-1.42108547e-13,0.44436534 0.441829856,1.27897692e-13 1.00091757,1.27897692e-13 L17.6158367,1.27897692e-13 C18.1686282,1.27897692e-13 18.6167543,0.446322636 18.6167543,0.992517766 L18.6167543,129.324762 C18.6167543,129.872914 18.1749244,130.31728 17.6158367,130.31728 L1.00091757,130.31728 C0.448126059,130.31728 -1.42108547e-13,129.870957 -1.42108547e-13,129.324762 L-1.42108547e-13,0.992517766 Z M9.30837713,11.9679135 C10.7771985,11.9679135 11.9679135,10.7771985 11.9679135,9.30837713 C11.9679135,7.83955578 10.7771985,6.64884081 9.30837713,6.64884081 C7.83955578,6.64884081 6.64884081,7.83955578 6.64884081,9.30837713 C6.64884081,10.7771985 7.83955578,11.9679135 9.30837713,11.9679135 Z" id="Rectangle-120" stroke="#000000" stroke-width="2" fill="#FFFFFF"></path>
                        <rect id="Rectangle-122" fill="#000000" opacity="0.221649058" x="10.6381453" y="123.668439" width="6.64884081" height="2"></rect>
                        <rect id="Rectangle-122-Copy-10" fill="#000000" opacity="0.221649058" x="10.6381453" y="70.4777126" width="6.64884081" height="2"></rect>
                        <rect id="Rectangle-122-Copy-5" fill="#000000" opacity="0.221649058" x="7.97860897" y="97.0730758" width="9.30837713" height="2"></rect>
                        <rect id="Rectangle-122-Copy-15" fill="#000000" opacity="0.221649058" x="7.97860897" y="43.8823493" width="9.30837713" height="2"></rect>
                        <rect id="Rectangle-122-Copy" fill="#000000" opacity="0.221649058" x="14.6274498" y="118.349366" width="2.65953632" height="2"></rect>
                        <rect id="Rectangle-122-Copy-2" fill="#000000" opacity="0.221649058" x="14.6274498" y="113.030294" width="2.65953632" height="2"></rect>
                        <rect id="Rectangle-122-Copy-3" fill="#000000" opacity="0.221649058" x="14.6274498" y="107.711221" width="2.65953632" height="2"></rect>
                        <rect id="Rectangle-122-Copy-4" fill="#000000" opacity="0.221649058" x="14.6274498" y="102.392148" width="2.65953632" height="2"></rect>
                        <rect id="Rectangle-122-Copy-6" fill="#000000" opacity="0.221649058" x="14.6274498" y="91.7540032" width="2.65953632" height="2"></rect>
                        <rect id="Rectangle-122-Copy-7" fill="#000000" opacity="0.221649058" x="14.6274498" y="86.4349305" width="2.65953632" height="2"></rect>
                        <rect id="Rectangle-122-Copy-8" fill="#000000" opacity="0.221649058" x="14.6274498" y="81.1158579" width="2.65953632" height="2"></rect>
                        <rect id="Rectangle-122-Copy-9" fill="#000000" opacity="0.221649058" x="14.6274498" y="75.7967852" width="2.65953632" height="2"></rect>
                        <rect id="Rectangle-122-Copy-19" fill="#000000" opacity="0.221649058" x="10.6381453" y="17.2869861" width="6.64884081" height="2"></rect>
                        <rect id="Rectangle-122-Copy-16" fill="#000000" opacity="0.221649058" x="14.6274498" y="38.5632767" width="2.65953632" height="2"></rect>
                        <rect id="Rectangle-122-Copy-17" fill="#000000" opacity="0.221649058" x="14.6274498" y="33.244204" width="2.65953632" height="2"></rect>
                        <rect id="Rectangle-122-Copy-20" fill="#000000" opacity="0.221649058" x="14.6274498" y="27.9251314" width="2.65953632" height="2"></rect>
                        <rect id="Rectangle-122-Copy-18" fill="#000000" opacity="0.221649058" x="14.6274498" y="22.6060587" width="2.65953632" height="2"></rect>
                        <rect id="Rectangle-122-Copy-14" fill="#000000" opacity="0.221649058" x="14.6274498" y="65.1586399" width="2.65953632" height="2"></rect>
                        <rect id="Rectangle-122-Copy-11" fill="#000000" opacity="0.221649058" x="14.6274498" y="59.8395673" width="2.65953632" height="2"></rect>
                        <rect id="Rectangle-122-Copy-12" fill="#000000" opacity="0.221649058" x="14.6274498" y="54.5204946" width="2.65953632" height="2"></rect>
                        <rect id="Rectangle-122-Copy-13" fill="#000000" opacity="0.221649058" x="14.6274498" y="49.201422" width="2.65953632" height="2"></rect>
                    </g>
                    <g id="pencil" transform="translate(444.779960, 197.072853) rotate(-45.000000) translate(-444.779960, -197.072853) translate(436.779960, 146.572853)">
                        <polygon id="Rectangle-92-Copy-2" stroke="#000000" stroke-width="2" fill="#FFFFFF" points="4 5.68434189e-14 7 3 7 13 4 13"></polygon>
                        <rect id="Rectangle-92" stroke="#000000" stroke-width="2" fill="#FFFFFF" x="2" y="8" width="7" height="13"></rect>
                        <rect id="Rectangle-90" fill="#000000" x="1" y="93" width="9" height="8" rx="1"></rect>
                        <rect id="Rectangle-88" stroke="#000000" stroke-width="2" fill="#FFFFFF" x="-8.81072992e-13" y="11" width="11" height="71" rx="1"></rect>
                        <rect id="Rectangle-88-Copy" stroke="#000000" stroke-width="2" fill="#FFFFFF" x="-8.52651283e-14" y="82" width="11" height="15" rx="1"></rect>
                        <rect id="Rectangle-91" fill="#C6C6C6" opacity="0.383512127" x="1" y="17" width="9" height="24"></rect>
                        <path d="M16,87.5009232 L16,60.9990768 L16,59 L14.5,59 C13.6715729,59 13,60.3431458 13,62 C13,63.3062188 13.4174038,64.4174579 14,64.8292943 L14,88 L11.9998075,88 C11.4437166,88 11,88.4477153 11,89 C11,89.5561352 11.4476291,90 11.9998075,90 L15.0001925,90 C15.5562834,90 16,89.5522847 16,89 L16,87.5009232 Z" id="Rectangle-101" fill="#000000"></path>
                    </g>
                    <g id="iphone" transform="translate(173.000000, 48.000000)">
                        <use stroke="#000000" mask="url(#mask-22)" stroke-width="4" fill="#EDEDED" xlink:href="#path-21"></use>
                        <use stroke="#000000" mask="url(#mask-24)" stroke-width="4" fill="#FFFFFF" xlink:href="#path-23"></use>
                        <use id="Rectangle-2" stroke="#000000" mask="url(#mask-26)" stroke-width="2" fill="#D8D8D8" xlink:href="#path-25"></use>
                        <use id="Oval-2" stroke="#000000" mask="url(#mask-28)" stroke-width="4" fill="#EDEDED" xlink:href="#path-27"></use>
                        <use id="Rectangle" stroke="#000000" mask="url(#mask-30)" stroke-width="4" fill="#FFFFFF" xlink:href="#path-29"></use>
                        <use id="Rectangle" stroke="#000000" mask="url(#mask-32)" stroke-width="4" fill="#FFFFFF" xlink:href="#path-31"></use>
                        <use id="Oval-13" stroke="#000000" mask="url(#mask-34)" stroke-width="4" fill="#FFFFFF" xlink:href="#path-33"></use>
                        <use id="Oval-13" stroke="#000000" mask="url(#mask-36)" stroke-width="4" fill="#FFFFFF" xlink:href="#path-35"></use>
                        <use id="Rectangle" stroke="#000000" mask="url(#mask-38)" stroke-width="4" fill="#FFFFFF" xlink:href="#path-37"></use>
                        <rect id="Rectangle-22" fill="#33CC33" x="25" y="170" width="8" height="8" rx="2"></rect>
                        <rect id="Rectangle-22" fill="#000000" x="46" y="170" width="8" height="8" rx="2"></rect>
                        <rect id="Rectangle-22" fill="#000000" x="67" y="170" width="8" height="8" rx="2"></rect>
                        <rect id="Rectangle-22" fill="#000000" x="88" y="170" width="8" height="8" rx="2"></rect>
                        <use id="Rectangle" stroke="#000000" mask="url(#mask-40)" stroke-width="4" fill="#FFFFFF" xlink:href="#path-39"></use>
                        <rect id="Rectangle-2" fill="#000000" x="41" y="33" width="40" height="4" rx="1"></rect>
                    </g>
                </g>
            </g>
        </g>
    </g>
</svg>