<?xml version="1.0" encoding="UTF-8"?>
<svg width="123px" height="19px" viewBox="0 0 123 19" version="1.1" xmlns="http://www.w3.org/2000/svg" xmlns:xlink="http://www.w3.org/1999/xlink">
    <!-- Generator: Sketch 40.3 (33839) - http://www.bohemiancoding.com/sketch -->
    <title>logo</title>
    <desc>Created with Sketch.</desc>
    <defs></defs>
    <g id="home" stroke="none" stroke-width="1" fill="none" fill-rule="evenodd">
        <g id="header">
            <g id="logo">
                <g transform="translate(0.000000, 0.500000)">
                    <path d="M17.0111762,0 L16.9170618,0 L8.51735239,12.791085 L0.0941143911,0 L1.42108547e-14,0 L1.42108547e-14,17.4912827 L2.94107472,17.4912827 L2.94107472,9.04963421 L8.423238,17.6783552 L8.61146678,17.6783552 L14.0701015,9.04963421 L14.0701015,17.4912827 L17.0111762,17.4912827 L17.0111762,0 Z M30.3685019,5.70571252 L27.5450702,5.70571252 L27.5450702,13.4224549 C26.9333267,14.2876654 26.1568829,15.0593396 24.8157529,15.0593396 C23.4510942,15.0593396 22.6275933,14.0070566 22.6275933,12.4870922 L22.6275933,5.70571252 L19.8041615,5.70571252 L19.8041615,12.6273966 C19.8041615,15.7140935 21.3099918,17.7251233 24.0628377,17.7251233 C25.8745398,17.7251233 27.0274411,17.0002172 27.6862418,16.1350067 L27.8274134,17.4912827 L30.3685019,17.4912827 L30.3685019,5.70571252 Z M43.7798027,5.70571252 L40.485799,5.70571252 L38.085882,9.51731556 L35.7094936,5.70571252 L32.4154899,5.70571252 L36.156537,11.5049613 L32.2507898,17.4912827 L35.5918506,17.4912827 L38.085882,13.5627593 L40.603442,17.4912827 L43.9445029,17.4912827 L40.0387556,11.5049613 L43.7798027,5.70571252 Z M56.2029023,5.70571252 L53.3794706,5.70571252 L53.3794706,13.4224549 C52.767727,14.2876654 51.9912833,15.0593396 50.6501532,15.0593396 C49.2854945,15.0593396 48.4619936,14.0070566 48.4619936,12.4870922 L48.4619936,5.70571252 L45.6385619,5.70571252 L45.6385619,12.6273966 C45.6385619,15.7140935 47.1443921,17.7251233 49.8972381,17.7251233 C51.7089401,17.7251233 52.8618414,17.0002172 53.5206421,16.1350067 L53.6618137,17.4912827 L56.2029023,17.4912827 L56.2029023,5.70571252 Z M83.8082739,0 L83.7141595,0 L75.3144501,12.791085 L66.8912121,0 L66.7970977,0 L66.7970977,17.4912827 L69.7381724,17.4912827 L69.7381724,9.04963421 L75.2203357,17.6783552 L75.4085645,17.6783552 L80.8671992,9.04963421 L80.8671992,17.4912827 L83.8082739,17.4912827 L83.8082739,0 Z M97.1655997,5.70571252 L94.3421679,5.70571252 L94.3421679,13.4224549 C93.7304244,14.2876654 92.9539807,15.0593396 91.6128506,15.0593396 C90.2481919,15.0593396 89.424691,14.0070566 89.424691,12.4870922 L89.424691,5.70571252 L86.6012593,5.70571252 L86.6012593,12.6273966 C86.6012593,15.7140935 88.1070895,17.7251233 90.8599354,17.7251233 C92.6716375,17.7251233 93.8245388,17.0002172 94.4833395,16.1350067 L94.6245111,17.4912827 L97.1655997,17.4912827 L97.1655997,5.70571252 Z M110.5769,5.70571252 L107.282897,5.70571252 L104.88298,9.51731556 L102.506591,5.70571252 L99.2125877,5.70571252 L102.953635,11.5049613 L99.0478875,17.4912827 L102.388948,17.4912827 L104.88298,13.5627593 L107.40054,17.4912827 L110.741601,17.4912827 L106.835853,11.5049613 L110.5769,5.70571252 Z M123,5.70571252 L120.176568,5.70571252 L120.176568,13.4224549 C119.564825,14.2876654 118.788381,15.0593396 117.447251,15.0593396 C116.082592,15.0593396 115.259091,14.0070566 115.259091,12.4870922 L115.259091,5.70571252 L112.43566,5.70571252 L112.43566,12.6273966 C112.43566,15.7140935 113.94149,17.7251233 116.694336,17.7251233 C118.506038,17.7251233 119.658939,17.0002172 120.31774,16.1350067 L120.458911,17.4912827 L123,17.4912827 L123,5.70571252 Z" id="Muxu.Muxu" fill="#000000"></path>
                    <ellipse id="dot" fill="#33CC33" cx="61.3747454" cy="15.2501676" rx="2.50509165" ry="2.5001676"></ellipse>
                </g>
            </g>
        </g>
    </g>
</svg>