<?xml version="1.0" encoding="UTF-8"?>
<svg width="482px" height="310px" viewBox="0 0 482 310" version="1.1" xmlns="http://www.w3.org/2000/svg" xmlns:xlink="http://www.w3.org/1999/xlink">
    <!-- Generator: Sketch 42 (36781) - http://www.bohemiancoding.com/sketch -->
    <title>illustration</title>
    <desc>Created with Sketch.</desc>
    <defs>
        <rect id="path-1" x="24" y="8" width="420" height="294"></rect>
        <mask id="mask-2" maskContentUnits="userSpaceOnUse" maskUnits="objectBoundingBox" x="0" y="0" width="420" height="294" fill="white">
            <use xlink:href="#path-1"></use>
        </mask>
        <rect id="path-3" x="24" y="8" width="420" height="294"></rect>
        <mask id="mask-4" maskContentUnits="userSpaceOnUse" maskUnits="objectBoundingBox" x="0" y="0" width="420" height="294" fill="white">
            <use xlink:href="#path-3"></use>
        </mask>
        <rect id="path-5" x="44" y="28" width="380" height="254"></rect>
        <mask id="mask-6" maskContentUnits="userSpaceOnUse" maskUnits="objectBoundingBox" x="0" y="0" width="380" height="254" fill="white">
            <use xlink:href="#path-5"></use>
        </mask>
        <polygon id="path-7" points="424 28 424 282 44 282"></polygon>
        <mask id="mask-8" maskContentUnits="userSpaceOnUse" maskUnits="objectBoundingBox" x="0" y="0" width="380" height="254" fill="white">
            <use xlink:href="#path-7"></use>
        </mask>
        <polygon id="path-9" points="424 28 424 282 44 282"></polygon>
        <mask id="mask-10" maskContentUnits="userSpaceOnUse" maskUnits="objectBoundingBox" x="0" y="0" width="380" height="254" fill="white">
            <use xlink:href="#path-9"></use>
        </mask>
        <rect id="path-11" x="335" y="224" width="89" height="58"></rect>
        <mask id="mask-12" maskContentUnits="userSpaceOnUse" maskUnits="objectBoundingBox" x="0" y="0" width="89" height="58" fill="white">
            <use xlink:href="#path-11"></use>
        </mask>
        <rect id="path-13" x="68" y="48" width="82" height="82" rx="20"></rect>
        <mask id="mask-14" maskContentUnits="userSpaceOnUse" maskUnits="objectBoundingBox" x="0" y="0" width="82" height="82" fill="white">
            <use xlink:href="#path-13"></use>
        </mask>
        <rect id="path-15" x="80" y="60" width="58" height="58"></rect>
        <mask id="mask-16" maskContentUnits="userSpaceOnUse" maskUnits="objectBoundingBox" x="0" y="0" width="58" height="58" fill="white">
            <use xlink:href="#path-15"></use>
        </mask>
        <circle id="path-17" cx="109" cy="89" r="29"></circle>
        <mask id="mask-18" maskContentUnits="userSpaceOnUse" maskUnits="objectBoundingBox" x="0" y="0" width="58" height="58" fill="white">
            <use xlink:href="#path-17"></use>
        </mask>
        <circle id="path-19" cx="109" cy="89" r="41"></circle>
        <mask id="mask-20" maskContentUnits="userSpaceOnUse" maskUnits="objectBoundingBox" x="0" y="0" width="82" height="82" fill="white">
            <use xlink:href="#path-19"></use>
        </mask>
        <rect id="path-21" x="0" y="5" width="122" height="209" rx="16"></rect>
        <mask id="mask-22" maskContentUnits="userSpaceOnUse" maskUnits="objectBoundingBox" x="0" y="0" width="122" height="209" fill="white">
            <use xlink:href="#path-21"></use>
        </mask>
        <rect id="path-23" x="0" y="0" width="122" height="209" rx="16"></rect>
        <mask id="mask-24" maskContentUnits="userSpaceOnUse" maskUnits="objectBoundingBox" x="0" y="0" width="122" height="209" fill="white">
            <use xlink:href="#path-23"></use>
        </mask>
        <rect id="path-25" x="51" y="13" width="20" height="2" rx="1"></rect>
        <mask id="mask-26" maskContentUnits="userSpaceOnUse" maskUnits="objectBoundingBox" x="0" y="0" width="20" height="2" fill="white">
            <use xlink:href="#path-25"></use>
        </mask>
        <circle id="path-27" cx="61" cy="195" r="7"></circle>
        <mask id="mask-28" maskContentUnits="userSpaceOnUse" maskUnits="objectBoundingBox" x="0" y="0" width="14" height="14" fill="white">
            <use xlink:href="#path-27"></use>
        </mask>
        <rect id="path-29" x="10" y="26" width="102" height="157"></rect>
        <mask id="mask-30" maskContentUnits="userSpaceOnUse" maskUnits="objectBoundingBox" x="0" y="0" width="102" height="157" fill="white">
            <use xlink:href="#path-29"></use>
        </mask>
        <rect id="path-31" x="24" y="68" width="74" height="74"></rect>
        <mask id="mask-32" maskContentUnits="userSpaceOnUse" maskUnits="objectBoundingBox" x="0" y="0" width="74" height="74" fill="white">
            <use xlink:href="#path-31"></use>
        </mask>
        <circle id="path-33" cx="61" cy="105" r="27"></circle>
        <mask id="mask-34" maskContentUnits="userSpaceOnUse" maskUnits="objectBoundingBox" x="0" y="0" width="54" height="54" fill="white">
            <use xlink:href="#path-33"></use>
        </mask>
        <circle id="path-35" cx="61" cy="105" r="5"></circle>
        <mask id="mask-36" maskContentUnits="userSpaceOnUse" maskUnits="objectBoundingBox" x="0" y="0" width="10" height="10" fill="white">
            <use xlink:href="#path-35"></use>
        </mask>
        <rect id="path-37" x="10" y="165" width="102" height="18"></rect>
        <mask id="mask-38" maskContentUnits="userSpaceOnUse" maskUnits="objectBoundingBox" x="0" y="0" width="102" height="18" fill="white">
            <use xlink:href="#path-37"></use>
        </mask>
        <rect id="path-39" x="10" y="26" width="102" height="18"></rect>
        <mask id="mask-40" maskContentUnits="userSpaceOnUse" maskUnits="objectBoundingBox" x="0" y="0" width="102" height="18" fill="white">
            <use xlink:href="#path-39"></use>
        </mask>
    </defs>
    <g id="home" stroke="none" stroke-width="1" fill="none" fill-rule="evenodd">
        <g id="ventures" transform="translate(-766.000000, -1371.000000)">
            <g id="what" transform="translate(230.000000, 1253.000000)">
                <g id="illustration" transform="translate(536.000000, 118.000000)">
                    <use id="bg" stroke="#000000" mask="url(#mask-2)" stroke-width="4" fill="#FFFFFF" transform="translate(234.000000, 155.000000) rotate(-2.000000) translate(-234.000000, -155.000000) " xlink:href="#path-1"></use>
                    <use id="bg" stroke="#000000" mask="url(#mask-4)" stroke-width="4" fill="#FFFFFF" xlink:href="#path-3"></use>
                    <use id="bg" stroke="#CCCCCC" mask="url(#mask-6)" stroke-width="4" fill="#FFFFFF" xlink:href="#path-5"></use>
                    <use id="bg" stroke="#CCCCCC" mask="url(#mask-8)" stroke-width="4" fill="#FFFFFF" xlink:href="#path-7"></use>
                    <use id="bg" stroke="#CCCCCC" mask="url(#mask-10)" stroke-width="4" transform="translate(234.000000, 155.000000) scale(-1, 1) translate(-234.000000, -155.000000) " xlink:href="#path-9"></use>
                    <use id="bg" stroke="#CCCCCC" mask="url(#mask-12)" stroke-width="4" fill="#FFFFFF" xlink:href="#path-11"></use>
                    <g id="doc" opacity="0.2" transform="translate(345.000000, 234.000000)" fill="#000000">
                        <path d="M2.39453125,0.734375 L2.79882812,2.33691406 L3.25878906,0.734375 L4.28125,0.734375 L4.28125,5 L3.52539062,5 L3.52539062,3.73730469 L3.56054688,1.7421875 L3.00097656,3.59375 L2.59375,3.59375 L2.09277344,1.82128906 L2.12792969,3.73730469 L2.12792969,5 L1.37207031,5 L1.37207031,0.734375 L2.39453125,0.734375 Z M7.03515625,4.5546875 C6.92773384,4.71289142 6.7983406,4.83691361 6.64697266,4.92675781 C6.49560471,5.01660201 6.33007902,5.06152344 6.15039062,5.06152344 C5.9863273,5.06152344 5.83593818,5.03613307 5.69921875,4.98535156 C5.56249932,4.93457006 5.44531299,4.85400446 5.34765625,4.74365234 C5.24999951,4.63330023 5.17431667,4.49267664 5.12060547,4.32177734 C5.06689426,4.15087805 5.04003906,3.9453137 5.04003906,3.70507812 L5.04003906,1.83007812 L5.85449219,1.83007812 L5.85449219,3.7109375 C5.85449219,3.83984439 5.86376944,3.94824175 5.88232422,4.03613281 C5.900879,4.12402388 5.93066386,4.19482395 5.97167969,4.24853516 C6.01269552,4.30224636 6.06640592,4.3408202 6.1328125,4.36425781 C6.19921908,4.38769543 6.28027296,4.39941406 6.37597656,4.39941406 C6.53808675,4.39941406 6.66992137,4.36865265 6.77148438,4.30712891 C6.87304738,4.24560516 6.95019505,4.16113335 7.00292969,4.05371094 L7.00292969,1.83007812 L7.8203125,1.83007812 L7.8203125,5 L7.08203125,5 L7.03515625,4.5546875 Z M10.0644531,2.8203125 L10.7617188,1.83007812 L11.6376953,1.83007812 L10.5742188,3.38574219 L11.6757812,5 L10.796875,5 L10.0673828,3.96289062 L9.34375,5 L8.46191406,5 L9.56347656,3.38574219 L8.50292969,1.83007812 L9.37890625,1.83007812 L10.0644531,2.8203125 Z M14.2363281,4.5546875 C14.1289057,4.71289142 13.9995125,4.83691361 13.8481445,4.92675781 C13.6967766,5.01660201 13.5312509,5.06152344 13.3515625,5.06152344 C13.1874992,5.06152344 13.0371101,5.03613307 12.9003906,4.98535156 C12.7636712,4.93457006 12.6464849,4.85400446 12.5488281,4.74365234 C12.4511714,4.63330023 12.3754885,4.49267664 12.3217773,4.32177734 C12.2680661,4.15087805 12.2412109,3.9453137 12.2412109,3.70507812 L12.2412109,1.83007812 L13.0556641,1.83007812 L13.0556641,3.7109375 C13.0556641,3.83984439 13.0649413,3.94824175 13.0834961,4.03613281 C13.1020509,4.12402388 13.1318357,4.19482395 13.1728516,4.24853516 C13.2138674,4.30224636 13.2675778,4.3408202 13.3339844,4.36425781 C13.400391,4.38769543 13.4814448,4.39941406 13.5771484,4.39941406 C13.7392586,4.39941406 13.8710932,4.36865265 13.9726562,4.30712891 C14.0742193,4.24560516 14.1513669,4.16113335 14.2041016,4.05371094 L14.2041016,1.83007812 L15.0214844,1.83007812 L15.0214844,5 L14.2832031,5 L14.2363281,4.5546875 Z M16.6386719,4.52832031 C16.6386719,4.45214806 16.6513671,4.38134798 16.6767578,4.31591797 C16.7021486,4.25048795 16.7392576,4.1938479 16.7880859,4.14599609 C16.8369143,4.09814429 16.896484,4.06005874 16.9667969,4.03173828 C17.0371097,4.00341783 17.1162105,3.98925781 17.2041016,3.98925781 C17.2919926,3.98925781 17.3710934,4.00341783 17.4414062,4.03173828 C17.5117191,4.06005874 17.5708005,4.09814429 17.6186523,4.14599609 C17.6665041,4.1938479 17.7036131,4.25048795 17.7299805,4.31591797 C17.7563478,4.38134798 17.7695312,4.45214806 17.7695312,4.52832031 C17.7695312,4.60253943 17.7563478,4.67187468 17.7299805,4.73632812 C17.7036131,4.80078157 17.6665041,4.85693335 17.6186523,4.90478516 C17.5708005,4.95263696 17.5117191,4.99023424 17.4414062,5.01757812 C17.3710934,5.04492201 17.2919926,5.05859375 17.2041016,5.05859375 C17.1162105,5.05859375 17.0371097,5.04492201 16.9667969,5.01757812 C16.896484,4.99023424 16.8369143,4.95263696 16.7880859,4.90478516 C16.7392576,4.85693335 16.7021486,4.80078157 16.6767578,4.73632812 C16.6513671,4.67187468 16.6386719,4.60253943 16.6386719,4.52832031 Z M20.2626953,3.43554688 L20.2626953,5 L19.4394531,5 L19.4394531,0.734375 L20.8984375,0.734375 C21.1308605,0.734375 21.3408194,0.768066069 21.5283203,0.835449219 C21.7158212,0.902832368 21.8754876,0.996581431 22.0073242,1.11669922 C22.1391608,1.23681701 22.2407223,1.38085854 22.3120117,1.54882812 C22.3833011,1.71679771 22.4189453,1.90331929 22.4189453,2.10839844 C22.4189453,2.29980564 22.3833011,2.47656169 22.3120117,2.63867188 C22.2407223,2.80078206 22.1391608,2.94091738 22.0073242,3.05908203 C21.8754876,3.17724668 21.7158212,3.26953092 21.5283203,3.3359375 C21.3408194,3.40234408 21.1308605,3.43554688 20.8984375,3.43554688 L20.2626953,3.43554688 Z M20.2626953,2.76757812 L20.8984375,2.76757812 C21.0156256,2.76757812 21.1171871,2.75000018 21.203125,2.71484375 C21.2890629,2.67968732 21.3608396,2.63183624 21.418457,2.57128906 C21.4760745,2.51074188 21.5190428,2.44091836 21.5473633,2.36181641 C21.5756837,2.28271445 21.5898438,2.20019574 21.5898438,2.11425781 C21.5898438,2.01464794 21.5756837,1.92187543 21.5473633,1.8359375 C21.5190428,1.74999957 21.4760745,1.67480501 21.418457,1.61035156 C21.3608396,1.54589812 21.2890629,1.49511737 21.203125,1.45800781 C21.1171871,1.42089825 21.0156256,1.40234375 20.8984375,1.40234375 L20.2626953,1.40234375 L20.2626953,2.76757812 Z M24.9970703,5 C24.977539,4.9609373 24.9609376,4.91601588 24.9472656,4.86523438 C24.9335937,4.81445287 24.921875,4.76074247 24.9121094,4.70410156 C24.8671873,4.75292993 24.81543,4.79882791 24.7568359,4.84179688 C24.6982419,4.88476584 24.6333011,4.92236312 24.5620117,4.95458984 C24.4907223,4.98681657 24.4121098,5.01220694 24.3261719,5.03076172 C24.2402339,5.0493165 24.1474614,5.05859375 24.0478516,5.05859375 C23.8857414,5.05859375 23.7368171,5.03515648 23.6010742,4.98828125 C23.4653314,4.94140602 23.3486333,4.87597698 23.2509766,4.79199219 C23.1533198,4.70800739 23.0771487,4.60791074 23.0224609,4.49169922 C22.9677732,4.3754877 22.9404297,4.24902412 22.9404297,4.11230469 C22.9404297,3.77831864 23.0649402,3.52002044 23.3139648,3.33740234 C23.5629895,3.15478424 23.9345678,3.06347656 24.4287109,3.06347656 L24.8828125,3.06347656 L24.8828125,2.87597656 C24.8828125,2.72363205 24.8330083,2.60302779 24.7333984,2.51416016 C24.6337886,2.42529252 24.4902353,2.38085938 24.3027344,2.38085938 C24.1367179,2.38085938 24.0156254,2.41650355 23.9394531,2.48779297 C23.8632809,2.55908239 23.8251953,2.65429628 23.8251953,2.7734375 L23.0107422,2.7734375 C23.0107422,2.6386712 23.040527,2.51074279 23.1000977,2.38964844 C23.1596683,2.26855408 23.2465815,2.16210983 23.3608398,2.0703125 C23.4750982,1.97851517 23.6147453,1.90576199 23.7797852,1.85205078 C23.944825,1.79833958 24.133788,1.77148438 24.3466797,1.77148438 C24.5380869,1.77148438 24.7163078,1.79492164 24.8813477,1.84179688 C25.0463875,1.88867211 25.1894525,1.95800735 25.3105469,2.04980469 C25.4316412,2.14160202 25.5263668,2.25732352 25.5947266,2.39697266 C25.6630863,2.53662179 25.6972656,2.69824127 25.6972656,2.88183594 L25.6972656,4.24121094 C25.6972656,4.41113366 25.7080077,4.55175726 25.7294922,4.66308594 C25.7509767,4.77441462 25.7822264,4.87011679 25.8232422,4.95019531 L25.8232422,5 L24.9970703,5 Z M24.2207031,4.42871094 C24.3027348,4.42871094 24.3789059,4.41894541 24.4492188,4.39941406 C24.5195316,4.37988271 24.5830075,4.35449234 24.6396484,4.32324219 C24.6962893,4.29199203 24.745117,4.25634786 24.7861328,4.21630859 C24.8271486,4.17626933 24.8593749,4.13574239 24.8828125,4.09472656 L24.8828125,3.54980469 L24.4667969,3.54980469 C24.3398431,3.54980469 24.2314458,3.5620116 24.1416016,3.58642578 C24.0517574,3.61083997 23.9785159,3.64501931 23.921875,3.68896484 C23.8652341,3.73291038 23.8232423,3.78564422 23.7958984,3.84716797 C23.7685546,3.90869171 23.7548828,3.97558558 23.7548828,4.04785156 C23.7548828,4.15722711 23.7934566,4.24804651 23.8706055,4.3203125 C23.9477543,4.39257849 24.0644523,4.42871094 24.2207031,4.42871094 Z M28.8935547,1.77148438 C29.0166022,1.77148438 29.1303706,1.77978507 29.2348633,1.79638672 C29.339356,1.81298836 29.4238278,1.83105459 29.4882812,1.85058594 L29.3681641,2.66210938 C29.2607417,2.63671862 29.1508795,2.61767584 29.0385742,2.60498047 C28.926269,2.59228509 28.8193364,2.5859375 28.7177734,2.5859375 C28.4892567,2.5859375 28.306153,2.62988237 28.168457,2.71777344 C28.030761,2.8056645 27.9277347,2.9316398 27.859375,3.09570312 L27.859375,5 L27.0449219,5 L27.0449219,1.83007812 L27.8037109,1.83007812 L27.8417969,2.34863281 C27.9707038,2.16894441 28.1249991,2.02783254 28.3046875,1.92529297 C28.4843759,1.82275339 28.680663,1.77148438 28.8935547,1.77148438 Z M31.7119141,1.05371094 L31.7119141,1.83007812 L32.8955078,1.83007812 L32.8955078,2.43066406 L31.7119141,2.43066406 L31.7119141,3.79296875 C31.7119141,3.9082037 31.7250975,4.00439415 31.7514648,4.08154297 C31.7778322,4.15869179 31.8154294,4.22021461 31.8642578,4.26611328 C31.9130862,4.31201195 31.9721676,4.34472646 32.0415039,4.36425781 C32.1108402,4.38378916 32.1884761,4.39355469 32.2744141,4.39355469 C32.3369144,4.39355469 32.4008786,4.39062503 32.4663086,4.38476562 C32.5317386,4.37890622 32.594238,4.37158208 32.6538086,4.36279297 C32.7133792,4.35400386 32.7690427,4.34472661 32.8208008,4.33496094 C32.8725589,4.32519526 32.916992,4.31542974 32.9541016,4.30566406 L33.0332031,4.86523438 C32.9765622,4.89843767 32.9101566,4.92724597 32.8339844,4.95166016 C32.7578121,4.97607434 32.6767582,4.99609367 32.5908203,5.01171875 C32.5048824,5.02734383 32.4155278,5.03955074 32.3227539,5.04833984 C32.22998,5.05712895 32.1386723,5.06152344 32.0488281,5.06152344 C31.8749991,5.06152344 31.7172859,5.03857445 31.5756836,4.99267578 C31.4340813,4.94677711 31.3129888,4.87548876 31.2124023,4.77880859 C31.1118159,4.68212842 31.03418,4.55908278 30.9794922,4.40966797 C30.9248044,4.26025316 30.8974609,4.08105573 30.8974609,3.87207031 L30.8974609,2.43066406 L30.1738281,2.43066406 L30.1738281,1.83007812 L30.8974609,1.83007812 L30.8974609,1.05371094 L31.7119141,1.05371094 Z M34.5566406,1.83007812 L34.6064453,2.26953125 C34.7197271,2.11132733 34.8574211,1.98876997 35.0195312,1.90185547 C35.1816414,1.81494097 35.3613271,1.77148438 35.5585938,1.77148438 C35.7187508,1.77148438 35.8652337,1.79492164 35.9980469,1.84179688 C36.13086,1.88867211 36.245605,1.96337839 36.3422852,2.06591797 C36.4389653,2.16845754 36.5141599,2.30029216 36.5678711,2.46142578 C36.6215823,2.6225594 36.6484375,2.81835822 36.6484375,3.04882812 L36.6484375,5 L35.8339844,5 L35.8339844,3.06054688 C35.8339844,2.93554625 35.8198244,2.83251994 35.7915039,2.75146484 C35.7631835,2.67040975 35.7226565,2.60644555 35.6699219,2.55957031 C35.6171872,2.51269508 35.5537113,2.47998056 35.4794922,2.46142578 C35.4052731,2.442871 35.3212895,2.43359375 35.2275391,2.43359375 C35.0888665,2.43359375 34.9707036,2.4614255 34.8730469,2.51708984 C34.7753901,2.57275418 34.6962894,2.64941357 34.6357422,2.74707031 L34.6357422,5 L33.8183594,5 L33.8183594,1.83007812 L34.5566406,1.83007812 Z M38.9570312,5.05859375 C38.7128894,5.05859375 38.4912119,5.01855509 38.2919922,4.93847656 C38.0927724,4.85839804 37.9218757,4.74951241 37.7792969,4.61181641 C37.636718,4.47412041 37.5268559,4.31201265 37.449707,4.12548828 C37.3725582,3.93896391 37.3339844,3.73925888 37.3339844,3.52636719 L37.3339844,3.40917969 C37.3339844,3.16699098 37.3720699,2.94580178 37.4482422,2.74560547 C37.5244144,2.54540916 37.6308587,2.3730476 37.7675781,2.22851562 C37.9042976,2.08398365 38.0664053,1.97168009 38.2539062,1.89160156 C38.4414072,1.81152304 38.6455067,1.77148438 38.8662109,1.77148438 C39.0947277,1.77148438 39.298339,1.80908166 39.4770508,1.88427734 C39.6557626,1.95947303 39.8071283,2.065429 39.9311523,2.20214844 C40.0551764,2.33886787 40.1494137,2.50341701 40.2138672,2.69580078 C40.2783206,2.88818456 40.3105469,3.10058478 40.3105469,3.33300781 L40.3105469,3.67871094 L38.1601562,3.67871094 C38.1757813,3.78613335 38.2075193,3.8842769 38.2553711,3.97314453 C38.3032229,4.06201216 38.3642574,4.13867155 38.4384766,4.203125 C38.5126957,4.26757845 38.5976558,4.31738264 38.6933594,4.35253906 C38.789063,4.38769549 38.8935541,4.40527344 39.0068359,4.40527344 C39.0869145,4.40527344 39.1665035,4.39746102 39.2456055,4.38183594 C39.3247074,4.36621086 39.4003903,4.34326187 39.4726562,4.31298828 C39.5449222,4.28271469 39.6123044,4.24511741 39.6748047,4.20019531 C39.737305,4.15527321 39.791992,4.10253937 39.8388672,4.04199219 L40.2460938,4.48144531 C40.1953122,4.5537113 40.1293949,4.62451137 40.0483398,4.69384766 C39.9672848,4.76318394 39.8715826,4.82470676 39.7612305,4.87841797 C39.6508784,4.93212917 39.528321,4.97558577 39.3935547,5.00878906 C39.2587884,5.04199235 39.113282,5.05859375 38.9570312,5.05859375 Z M38.8603516,2.43066406 C38.7685542,2.43066406 38.6845707,2.44677718 38.6083984,2.47900391 C38.5322262,2.51123063 38.4653323,2.55761688 38.4077148,2.61816406 C38.3500974,2.67871124 38.301758,2.75097614 38.2626953,2.83496094 C38.2236326,2.91894573 38.194336,3.01269479 38.1748047,3.11621094 L39.5107422,3.11621094 L39.5107422,3.05175781 C39.5068359,2.96581988 39.4902345,2.88476601 39.4609375,2.80859375 C39.4316405,2.73242149 39.3896487,2.66650418 39.3349609,2.61083984 C39.2802732,2.5551755 39.2133793,2.51123063 39.1342773,2.47900391 C39.0551754,2.44677718 38.9638677,2.43066406 38.8603516,2.43066406 Z M43.2958984,1.77148438 C43.4189459,1.77148438 43.5327143,1.77978507 43.637207,1.79638672 C43.7416997,1.81298836 43.8261716,1.83105459 43.890625,1.85058594 L43.7705078,2.66210938 C43.6630854,2.63671862 43.5532232,2.61767584 43.440918,2.60498047 C43.3286127,2.59228509 43.2216802,2.5859375 43.1201172,2.5859375 C42.8916004,2.5859375 42.7084968,2.62988237 42.5708008,2.71777344 C42.4331048,2.8056645 42.3300785,2.9316398 42.2617188,3.09570312 L42.2617188,5 L41.4472656,5 L41.4472656,1.83007812 L42.2060547,1.83007812 L42.2441406,2.34863281 C42.3730475,2.16894441 42.5273429,2.02783254 42.7070312,1.92529297 C42.8867196,1.82275339 43.0830067,1.77148438 43.2958984,1.77148438 Z M46.6650391,4.12988281 C46.6650391,4.08105444 46.6538087,4.03808612 46.6313477,4.00097656 C46.6088866,3.963867 46.5688479,3.92919938 46.5112305,3.89697266 C46.453613,3.86474593 46.3769536,3.83496107 46.28125,3.80761719 C46.1855464,3.7802733 46.0644539,3.75292982 45.9179688,3.72558594 C45.7324209,3.68847638 45.562989,3.64209012 45.409668,3.58642578 C45.2563469,3.53076144 45.1250005,3.4633793 45.015625,3.38427734 C44.9062495,3.30517539 44.8208011,3.21386771 44.7592773,3.11035156 C44.6977536,3.00683542 44.6669922,2.88769599 44.6669922,2.75292969 C44.6669922,2.62206966 44.6982419,2.49707091 44.7607422,2.37792969 C44.8232425,2.25878847 44.9130854,2.15429732 45.0302734,2.06445312 C45.1474615,1.97460893 45.2900382,1.90332058 45.4580078,1.85058594 C45.6259774,1.7978513 45.8154286,1.77148438 46.0263672,1.77148438 C46.2470714,1.77148438 46.4453116,1.79736302 46.6210938,1.84912109 C46.7968759,1.90087917 46.9458002,1.97216751 47.0678711,2.06298828 C47.189942,2.15380905 47.2832028,2.26171812 47.3476562,2.38671875 C47.4121097,2.51171938 47.4443359,2.64746021 47.4443359,2.79394531 L46.6298828,2.79394531 C46.6298828,2.67089782 46.5800786,2.56787151 46.4804688,2.48486328 C46.3808589,2.40185505 46.2294932,2.36035156 46.0263672,2.36035156 C45.8369131,2.36035156 45.6938481,2.39453091 45.597168,2.46289062 C45.5004878,2.53125034 45.4521484,2.61523388 45.4521484,2.71484375 C45.4521484,2.76171898 45.461914,2.80517558 45.4814453,2.84521484 C45.5009767,2.88525411 45.5356443,2.92138656 45.5854492,2.95361328 C45.6352542,2.98584 45.7031246,3.01513659 45.7890625,3.04150391 C45.8750004,3.06787123 45.9843743,3.09082021 46.1171875,3.11035156 C46.3085947,3.14160172 46.4863273,3.18164038 46.6503906,3.23046875 C46.8144539,3.27929712 46.9560541,3.34228477 47.0751953,3.41943359 C47.1943365,3.49658242 47.2875973,3.59033148 47.3549805,3.70068359 C47.4223636,3.81103571 47.4560547,3.94238205 47.4560547,4.09472656 C47.4560547,4.23535227 47.4223636,4.3647455 47.3549805,4.48291016 C47.2875973,4.60107481 47.1918952,4.70312457 47.0678711,4.7890625 C46.943847,4.87500043 46.7939462,4.94189429 46.6181641,4.98974609 C46.4423819,5.0375979 46.2460948,5.06152344 46.0292969,5.06152344 C45.7910144,5.06152344 45.5805673,5.03027375 45.3979492,4.96777344 C45.2153311,4.90527312 45.0625006,4.82373097 44.9394531,4.72314453 C44.8164056,4.62255809 44.7231448,4.50830142 44.659668,4.38037109 C44.5961911,4.25244077 44.5644531,4.12402408 44.5644531,3.99511719 L45.3408203,3.99511719 C45.3466797,4.08105512 45.370117,4.15478485 45.4111328,4.21630859 C45.4521486,4.27783234 45.5048825,4.32763653 45.5693359,4.36572266 C45.6337894,4.40380878 45.7075191,4.43164054 45.7905273,4.44921875 C45.8735356,4.46679696 45.9589839,4.47558594 46.046875,4.47558594 C46.2480479,4.47558594 46.4013667,4.4433597 46.5068359,4.37890625 C46.6123052,4.3144528 46.6650391,4.23144582 46.6650391,4.12988281 Z M49.0351562,2.26660156 C49.1406255,2.11230392 49.2690422,1.99121138 49.4204102,1.90332031 C49.5717781,1.81542925 49.74121,1.77148438 49.9287109,1.77148438 C50.0947274,1.77148438 50.2470696,1.79638647 50.3857422,1.84619141 C50.5244148,1.89599634 50.6435542,1.97363229 50.7431641,2.07910156 C50.8427739,2.18457084 50.9204099,2.31982339 50.9760742,2.48486328 C51.0317386,2.64990317 51.0595703,2.84863165 51.0595703,3.08105469 L51.0595703,5 L50.2451172,5 L50.2451172,3.07519531 C50.2451172,2.9619135 50.2309572,2.86425822 50.2026367,2.78222656 C50.1743163,2.7001949 50.1337893,2.63378932 50.0810547,2.58300781 C50.02832,2.53222631 49.9648441,2.49462903 49.890625,2.47021484 C49.8164059,2.44580066 49.7324223,2.43359375 49.6386719,2.43359375 C49.5019524,2.43359375 49.3833013,2.45800757 49.2827148,2.50683594 C49.1821284,2.55566431 49.0996097,2.624023 49.0351562,2.71191406 L49.0351562,5 L48.2207031,5 L48.2207031,0.5 L49.0351562,0.5 L49.0351562,2.26660156 Z M52.0380859,1.83007812 L53.7636719,1.83007812 L53.7636719,4.33789062 L54.6220703,4.33789062 L54.6220703,5 L52.0380859,5 L52.0380859,4.33789062 L52.9404297,4.33789062 L52.9404297,2.49511719 L52.0380859,2.49511719 L52.0380859,1.83007812 Z M52.8818359,1.01855469 C52.8818359,0.956054375 52.8930663,0.897949487 52.9155273,0.844238281 C52.9379884,0.790527075 52.9697264,0.744629097 53.0107422,0.706542969 C53.051758,0.668456841 53.1010739,0.638671982 53.1586914,0.6171875 C53.2163089,0.595703018 53.2802731,0.584960938 53.3505859,0.584960938 C53.4951179,0.584960938 53.6098629,0.625487876 53.6948242,0.706542969 C53.7797856,0.787598062 53.8222656,0.891600928 53.8222656,1.01855469 C53.8222656,1.14550845 53.7797856,1.24951131 53.6948242,1.33056641 C53.6098629,1.4116215 53.4951179,1.45214844 53.3505859,1.45214844 C53.2802731,1.45214844 53.2163089,1.44140636 53.1586914,1.41992188 C53.1010739,1.39843739 53.051758,1.36865253 53.0107422,1.33056641 C52.9697264,1.29248028 52.9379884,1.2465823 52.9155273,1.19287109 C52.8930663,1.13915989 52.8818359,1.081055 52.8818359,1.01855469 Z M58.2695312,3.44433594 C58.2695312,3.67480584 58.242676,3.88867089 58.1889648,4.0859375 C58.1352536,4.28320411 58.0561529,4.45361256 57.9516602,4.59716797 C57.8471674,4.74072337 57.7177742,4.85351521 57.5634766,4.93554688 C57.4091789,5.01757854 57.2324229,5.05859375 57.0332031,5.05859375 C56.8632804,5.05859375 56.7138678,5.02929717 56.5849609,4.97070312 C56.456054,4.91210908 56.3437505,4.83007865 56.2480469,4.72460938 L56.2480469,6.21875 L55.4335938,6.21875 L55.4335938,1.83007812 L56.1865234,1.83007812 L56.2158203,2.140625 C56.3134771,2.02343691 56.4287103,1.93261751 56.5615234,1.86816406 C56.6943366,1.80371062 56.8496085,1.77148438 57.0273438,1.77148438 C57.2285166,1.77148438 57.4062492,1.81005821 57.5605469,1.88720703 C57.7148445,1.96435585 57.844726,2.07372976 57.9501953,2.21533203 C58.0556646,2.3569343 58.1352536,2.52685448 58.1889648,2.72509766 C58.242676,2.92334083 58.2695312,3.14257692 58.2695312,3.3828125 L58.2695312,3.44433594 Z M57.4550781,3.3828125 C57.4550781,3.24999934 57.4428712,3.12548886 57.418457,3.00927734 C57.3940428,2.89306583 57.3559573,2.79248089 57.3041992,2.70751953 C57.2524411,2.62255817 57.1860356,2.55566431 57.1049805,2.50683594 C57.0239254,2.45800757 56.9257818,2.43359375 56.8105469,2.43359375 C56.667968,2.43359375 56.55127,2.4614255 56.4604492,2.51708984 C56.3696285,2.57275418 56.2988284,2.65136668 56.2480469,2.75292969 L56.2480469,4.07714844 C56.2988284,4.17675831 56.3696285,4.25634736 56.4604492,4.31591797 C56.55127,4.37548858 56.6699211,4.40527344 56.8164062,4.40527344 C56.9316412,4.40527344 57.0297848,4.37988307 57.1108398,4.32910156 C57.1918949,4.27832006 57.2578122,4.20898481 57.3085938,4.12109375 C57.3593753,4.03320269 57.3964843,3.93115292 57.4199219,3.81494141 C57.4433595,3.69872989 57.4550781,3.57519597 57.4550781,3.44433594 L57.4550781,3.3828125 Z" id="Muxu.Partnership"></path>
                        <rect id="step" x="1" y="10" width="10" height="1"></rect>
                        <path d="M3.04003906,20.5322266 L3.34472656,17.734375 L4.00097656,17.734375 L3.45605469,22 L2.78222656,22 L2.31640625,19.1640625 L1.85644531,22 L1.18554688,22 L0.640625,17.734375 L1.296875,17.734375 L1.6015625,20.5175781 L2.03808594,17.734375 L2.58886719,17.734375 L3.04003906,20.5322266 Z M6.03125,22.0585938 C5.79687383,22.0585938 5.58300878,22.0195316 5.38964844,21.9414062 C5.1962881,21.8632809 5.03076241,21.7558601 4.89306641,21.6191406 C4.75537041,21.4824212 4.64843788,21.3208017 4.57226562,21.1342773 C4.49609337,20.947753 4.45800781,20.7460948 4.45800781,20.5292969 L4.45800781,20.4091797 C4.45800781,20.1572253 4.49853475,19.9306651 4.57958984,19.7294922 C4.66064494,19.5283193 4.76904229,19.356446 4.90478516,19.2138672 C5.04052802,19.0712883 5.19872957,18.9619144 5.37939453,18.8857422 C5.5600595,18.8095699 5.749999,18.7714844 5.94921875,18.7714844 C6.17968865,18.7714844 6.38281162,18.8100582 6.55859375,18.887207 C6.73437588,18.9643559 6.88134707,19.0727532 6.99951172,19.2124023 C7.11767637,19.3520515 7.20703095,19.5175772 7.26757812,19.7089844 C7.3281253,19.9003916 7.35839844,20.1103504 7.35839844,20.3388672 L7.35839844,20.6347656 L5.16113281,20.6347656 C5.17285162,20.7578131 5.20312476,20.8720698 5.25195312,20.9775391 C5.30078149,21.0830083 5.3647457,21.174316 5.44384766,21.2514648 C5.52294961,21.3286137 5.61572212,21.3891599 5.72216797,21.4331055 C5.82861381,21.477051 5.94531187,21.4990234 6.07226562,21.4990234 C6.25000089,21.4990234 6.41357347,21.4638675 6.56298828,21.3935547 C6.71240309,21.3232418 6.83398391,21.2265631 6.92773438,21.1035156 L7.30859375,21.4609375 C7.25781225,21.5371098 7.19238321,21.6108395 7.11230469,21.6821289 C7.03222616,21.7534183 6.9384771,21.8168943 6.83105469,21.8725586 C6.72363228,21.9282229 6.60302801,21.9731444 6.46923828,22.0073242 C6.33544855,22.0415041 6.18945392,22.0585938 6.03125,22.0585938 Z M5.94628906,19.3369141 C5.84863232,19.3369141 5.75781292,19.354492 5.67382812,19.3896484 C5.58984333,19.4248049 5.51464877,19.4760739 5.44824219,19.543457 C5.38183561,19.6108402 5.32568382,19.6928706 5.27978516,19.7895508 C5.23388649,19.886231 5.20117197,19.9960931 5.18164062,20.1191406 L6.66699219,20.1191406 L6.66699219,20.0664062 C6.66113278,19.9726558 6.64306656,19.8823247 6.61279297,19.7954102 C6.58251938,19.7084957 6.53808623,19.6308597 6.47949219,19.5625 C6.42089814,19.4941403 6.34716841,19.4394533 6.25830078,19.3984375 C6.16943315,19.3574217 6.06543028,19.3369141 5.94628906,19.3369141 Z M12.3564453,20.9570312 L12.3769531,21.1591797 L12.4091797,20.9570312 L12.8632812,18.8300781 L13.3232422,18.8300781 L13.7832031,20.9804688 L13.8154297,21.1914062 L13.8417969,20.9599609 L14.1494141,18.8300781 L14.7822266,18.8300781 L14.1640625,22 L13.5751953,22 L13.0947266,19.8789062 L13.0888672,19.8408203 L13.0830078,19.8759766 L12.6113281,22 L12.0253906,22 L11.4072266,18.8300781 L12.0371094,18.8300781 L12.3564453,20.9570312 Z M15.2275391,20.3857422 C15.2275391,20.1572254 15.2612301,19.9443369 15.3286133,19.7470703 C15.3959964,19.5498037 15.4926752,19.378907 15.6186523,19.234375 C15.7446295,19.089843 15.8984366,18.9765629 16.0800781,18.8945312 C16.2617197,18.8124996 16.4677723,18.7714844 16.6982422,18.7714844 C16.9306652,18.7714844 17.1381827,18.8124996 17.3208008,18.8945312 C17.5034189,18.9765629 17.6577142,19.089843 17.7836914,19.234375 C17.9096686,19.378907 18.005859,19.5498037 18.0722656,19.7470703 C18.1386722,19.9443369 18.171875,20.1572254 18.171875,20.3857422 L18.171875,20.4472656 C18.171875,20.6777355 18.1386722,20.8916006 18.0722656,21.0888672 C18.005859,21.2861338 17.9096686,21.4565423 17.7836914,21.6000977 C17.6577142,21.7436531 17.5039072,21.8564449 17.3222656,21.9384766 C17.1406241,22.0205082 16.9345715,22.0615234 16.7041016,22.0615234 C16.4716785,22.0615234 16.2641611,22.0205082 16.081543,21.9384766 C15.8989249,21.8564449 15.7446295,21.7436531 15.6186523,21.6000977 C15.4926752,21.4565423 15.3959964,21.2861338 15.3286133,21.0888672 C15.2612301,20.8916006 15.2275391,20.6777355 15.2275391,20.4472656 L15.2275391,20.3857422 Z M15.9277344,20.4472656 C15.9277344,20.5917976 15.9428709,20.7275384 15.9731445,20.8544922 C16.0034181,20.9814459 16.0502927,21.0932612 16.1137695,21.1899414 C16.1772464,21.2866216 16.257812,21.3627927 16.3554688,21.418457 C16.4531255,21.4741214 16.5693353,21.5019531 16.7041016,21.5019531 C16.8349616,21.5019531 16.94873,21.4741214 17.0454102,21.418457 C17.1420903,21.3627927 17.2221677,21.2866216 17.2856445,21.1899414 C17.3491214,21.0932612 17.3959959,20.9814459 17.4262695,20.8544922 C17.4565431,20.7275384 17.4716797,20.5917976 17.4716797,20.4472656 L17.4716797,20.3857422 C17.4716797,20.2451165 17.4565431,20.1113288 17.4262695,19.984375 C17.3959959,19.8574212 17.3491214,19.7460942 17.2856445,19.6503906 C17.2221677,19.554687 17.1420903,19.4785159 17.0454102,19.421875 C16.94873,19.3652341 16.8330085,19.3369141 16.6982422,19.3369141 C16.565429,19.3369141 16.4501958,19.3652341 16.3525391,19.421875 C16.2548823,19.4785159 16.174805,19.554687 16.1123047,19.6503906 C16.0498044,19.7460942 16.0034181,19.8574212 15.9731445,19.984375 C15.9428709,20.1113288 15.9277344,20.2451165 15.9277344,20.3857422 L15.9277344,20.4472656 Z M21.1337891,18.7714844 C21.19043,18.7714844 21.24707,18.7734375 21.3037109,18.7773438 C21.3603518,18.78125 21.4145505,18.7871093 21.4663086,18.7949219 C21.5180667,18.8027344 21.5654295,18.8110351 21.6083984,18.8198242 C21.6513674,18.8286133 21.6874999,18.8388671 21.7167969,18.8505859 L21.6171875,19.5390625 C21.4023427,19.4902341 21.1904307,19.4658203 20.9814453,19.4658203 C20.7470691,19.4658203 20.5581062,19.5146479 20.4145508,19.6123047 C20.2709954,19.7099614 20.1650394,19.8457023 20.0966797,20.0195312 L20.0966797,22 L19.3964844,22 L19.3964844,18.8300781 L20.0527344,18.8300781 L20.0849609,19.3251953 C20.2138678,19.1533195 20.3666983,19.0180669 20.543457,18.9194336 C20.7202157,18.8208003 20.9169911,18.7714844 21.1337891,18.7714844 Z M23.6416016,20.6142578 L23.2607422,20.9775391 L23.2607422,22 L22.5605469,22 L22.5605469,17.5 L23.2607422,17.5 L23.2607422,20.1513672 L23.5566406,19.8203125 L24.4882812,18.8300781 L25.3320312,18.8300781 L24.1074219,20.1484375 L25.5195312,22 L24.6464844,22 L23.6416016,20.6142578 Z M30.359375,20.9570312 L30.3798828,21.1591797 L30.4121094,20.9570312 L30.8662109,18.8300781 L31.3261719,18.8300781 L31.7861328,20.9804688 L31.8183594,21.1914062 L31.8447266,20.9599609 L32.1523438,18.8300781 L32.7851562,18.8300781 L32.1669922,22 L31.578125,22 L31.0976562,19.8789062 L31.0917969,19.8408203 L31.0859375,19.8759766 L30.6142578,22 L30.0283203,22 L29.4101562,18.8300781 L30.0400391,18.8300781 L30.359375,20.9570312 Z M33.5117188,18.8300781 L35.2021484,18.8300781 L35.2021484,21.4199219 L36.1425781,21.4199219 L36.1425781,22 L33.5117188,22 L33.5117188,21.4199219 L34.4960938,21.4199219 L34.4960938,19.4130859 L33.5117188,19.4130859 L33.5117188,18.8300781 Z M34.4375,18.0097656 C34.4375,17.9003901 34.4726559,17.810059 34.5429688,17.7387695 C34.6132816,17.6674801 34.7119134,17.6318359 34.8388672,17.6318359 C34.9677741,17.6318359 35.0678707,17.6674801 35.1391602,17.7387695 C35.2104496,17.810059 35.2460938,17.9003901 35.2460938,18.0097656 C35.2460938,18.1191412 35.2104496,18.2094723 35.1391602,18.2807617 C35.0678707,18.3520511 34.9677741,18.3876953 34.8388672,18.3876953 C34.7119134,18.3876953 34.6132816,18.3520511 34.5429688,18.2807617 C34.4726559,18.2094723 34.4375,18.1191412 34.4375,18.0097656 Z M38.3632812,18.0625 L38.3632812,18.8300781 L39.5615234,18.8300781 L39.5615234,19.3515625 L38.3632812,19.3515625 L38.3632812,20.8720703 C38.3632812,20.9912115 38.3774413,21.0898434 38.4057617,21.1679688 C38.4340822,21.2460941 38.4736326,21.3085935 38.5244141,21.3554688 C38.5751956,21.402344 38.6347653,21.4350585 38.703125,21.4536133 C38.7714847,21.4721681 38.8466793,21.4814453 38.9287109,21.4814453 C38.9892581,21.4814453 39.0522458,21.4780274 39.1176758,21.4711914 C39.1831058,21.4643554 39.2465817,21.456543 39.3081055,21.4477539 C39.3696292,21.4389648 39.4262693,21.4291993 39.4780273,21.418457 C39.5297854,21.4077148 39.573242,21.397461 39.6083984,21.3876953 L39.6875,21.8710938 C39.6367185,21.9003908 39.575684,21.927246 39.5043945,21.9516602 C39.4331051,21.9760743 39.3554692,21.9960937 39.2714844,22.0117188 C39.1874996,22.0273438 39.1000981,22.0395507 39.0092773,22.0483398 C38.9184566,22.057129 38.829102,22.0615234 38.7412109,22.0615234 C38.583007,22.0615234 38.4379889,22.039551 38.3061523,21.9956055 C38.1743157,21.9516599 38.0610356,21.8833012 37.9663086,21.7905273 C37.8715816,21.6977534 37.7973635,21.578614 37.7436523,21.4331055 C37.6899411,21.2875969 37.6630859,21.1132823 37.6630859,20.9101562 L37.6630859,19.3515625 L36.8896484,19.3515625 L36.8896484,18.8300781 L37.6630859,18.8300781 L37.6630859,18.0625 L38.3632812,18.0625 Z M41.2607422,19.2695312 C41.3701177,19.1132805 41.5034172,18.9912114 41.6606445,18.9033203 C41.8178719,18.8154292 41.9931631,18.7714844 42.1865234,18.7714844 C42.3505868,18.7714844 42.5014642,18.7958982 42.6391602,18.8447266 C42.7768562,18.8935549 42.8945308,18.9692378 42.9921875,19.0717773 C43.0898442,19.1743169 43.1660154,19.3061515 43.2207031,19.4672852 C43.2753909,19.6284188 43.3027344,19.8212879 43.3027344,20.0458984 L43.3027344,22 L42.6025391,22 L42.6025391,20.0400391 C42.6025391,19.9189447 42.5874025,19.8149418 42.5571289,19.7280273 C42.5268553,19.6411128 42.483887,19.5693362 42.4282227,19.5126953 C42.3725583,19.4560544 42.3046879,19.4140626 42.2246094,19.3867188 C42.1445308,19.3593749 42.0537114,19.3457031 41.9521484,19.3457031 C41.7998039,19.3457031 41.6650396,19.3774411 41.5478516,19.440918 C41.4306635,19.5043948 41.3349613,19.5898432 41.2607422,19.6972656 L41.2607422,22 L40.5605469,22 L40.5605469,17.5 L41.2607422,17.5 L41.2607422,19.2695312 Z M50.5478516,20.4501953 C50.5478516,20.6845715 50.5209964,20.8999014 50.4672852,21.0961914 C50.413574,21.2924815 50.3339849,21.4619133 50.2285156,21.6044922 C50.1230463,21.747071 49.9931648,21.858398 49.8388672,21.9384766 C49.6845695,22.0185551 49.5068369,22.0585938 49.3056641,22.0585938 C49.1123037,22.0585938 48.9448249,22.0244144 48.8032227,21.9560547 C48.6616204,21.887695 48.5400396,21.7890631 48.4384766,21.6601562 L48.40625,22 L47.7705078,22 L47.7705078,17.5 L48.4707031,17.5 L48.4707031,19.1318359 C48.570313,19.016601 48.6874993,18.9277347 48.8222656,18.8652344 C48.9570319,18.8027341 49.11621,18.7714844 49.2998047,18.7714844 C49.5029307,18.7714844 49.6821281,18.8110348 49.8374023,18.8901367 C49.9926766,18.9692387 50.1230463,19.0800774 50.2285156,19.2226562 C50.3339849,19.3652351 50.413574,19.5356435 50.4672852,19.7338867 C50.5209964,19.9321299 50.5478516,20.1503894 50.5478516,20.3886719 L50.5478516,20.4501953 Z M49.8476562,20.3886719 C49.8476562,20.2480462 49.8354493,20.1147467 49.8110352,19.9887695 C49.786621,19.8627923 49.7465823,19.7519536 49.690918,19.65625 C49.6352536,19.5605464 49.5605473,19.4848636 49.4667969,19.4291992 C49.3730464,19.3735349 49.2578132,19.3457031 49.1210938,19.3457031 C48.9550773,19.3457031 48.8193365,19.3837887 48.7138672,19.4599609 C48.6083979,19.5361332 48.527344,19.6357416 48.4707031,19.7587891 L48.4707031,21.0683594 C48.527344,21.1914069 48.6088862,21.2919918 48.715332,21.3701172 C48.8217779,21.4482426 48.9589835,21.4873047 49.1269531,21.4873047 C49.2597663,21.4873047 49.3720699,21.4604495 49.4638672,21.4067383 C49.5556645,21.3530271 49.6298825,21.2792973 49.6865234,21.1855469 C49.7431643,21.0917964 49.7841796,20.9819342 49.8095703,20.855957 C49.8349611,20.7299798 49.8476562,20.5947273 49.8476562,20.4501953 L49.8476562,20.3886719 Z M51.2333984,20.3857422 C51.2333984,20.1572254 51.2670895,19.9443369 51.3344727,19.7470703 C51.4018558,19.5498037 51.4985345,19.378907 51.6245117,19.234375 C51.7504889,19.089843 51.904296,18.9765629 52.0859375,18.8945312 C52.267579,18.8124996 52.4736317,18.7714844 52.7041016,18.7714844 C52.9365246,18.7714844 53.1440421,18.8124996 53.3266602,18.8945312 C53.5092783,18.9765629 53.6635736,19.089843 53.7895508,19.234375 C53.915528,19.378907 54.0117184,19.5498037 54.078125,19.7470703 C54.1445316,19.9443369 54.1777344,20.1572254 54.1777344,20.3857422 L54.1777344,20.4472656 C54.1777344,20.6777355 54.1445316,20.8916006 54.078125,21.0888672 C54.0117184,21.2861338 53.915528,21.4565423 53.7895508,21.6000977 C53.6635736,21.7436531 53.5097665,21.8564449 53.328125,21.9384766 C53.1464835,22.0205082 52.9404308,22.0615234 52.7099609,22.0615234 C52.4775379,22.0615234 52.2700204,22.0205082 52.0874023,21.9384766 C51.9047842,21.8564449 51.7504889,21.7436531 51.6245117,21.6000977 C51.4985345,21.4565423 51.4018558,21.2861338 51.3344727,21.0888672 C51.2670895,20.8916006 51.2333984,20.6777355 51.2333984,20.4472656 L51.2333984,20.3857422 Z M51.9335938,20.4472656 C51.9335938,20.5917976 51.9487303,20.7275384 51.9790039,20.8544922 C52.0092775,20.9814459 52.056152,21.0932612 52.1196289,21.1899414 C52.1831058,21.2866216 52.2636714,21.3627927 52.3613281,21.418457 C52.4589849,21.4741214 52.5751946,21.5019531 52.7099609,21.5019531 C52.840821,21.5019531 52.9545894,21.4741214 53.0512695,21.418457 C53.1479497,21.3627927 53.228027,21.2866216 53.2915039,21.1899414 C53.3549808,21.0932612 53.4018553,20.9814459 53.4321289,20.8544922 C53.4624025,20.7275384 53.4775391,20.5917976 53.4775391,20.4472656 L53.4775391,20.3857422 C53.4775391,20.2451165 53.4624025,20.1113288 53.4321289,19.984375 C53.4018553,19.8574212 53.3549808,19.7460942 53.2915039,19.6503906 C53.228027,19.554687 53.1479497,19.4785159 53.0512695,19.421875 C52.9545894,19.3652341 52.8388679,19.3369141 52.7041016,19.3369141 C52.5712884,19.3369141 52.4560552,19.3652341 52.3583984,19.421875 C52.2607417,19.4785159 52.1806644,19.554687 52.1181641,19.6503906 C52.0556638,19.7460942 52.0092775,19.8574212 51.9790039,19.984375 C51.9487303,20.1113288 51.9335938,20.2451165 51.9335938,20.3857422 L51.9335938,20.4472656 Z M55.0917969,17.5 L56.8056641,17.5 L56.8056641,21.4199219 L57.7724609,21.4199219 L57.7724609,22 L55.0917969,22 L55.0917969,21.4199219 L56.0996094,21.4199219 L56.0996094,18.0830078 L55.0917969,18.0830078 L55.0917969,17.5 Z M58.4697266,20.3916016 C58.4697266,20.151366 58.4990231,19.9316416 58.5576172,19.7324219 C58.6162112,19.5332021 58.7001948,19.3623054 58.8095703,19.2197266 C58.9189459,19.0771477 59.0512688,18.9667973 59.206543,18.8886719 C59.3618172,18.8105465 59.5361318,18.7714844 59.7294922,18.7714844 C59.9033212,18.7714844 60.05664,18.8012692 60.1894531,18.8608398 C60.3222663,18.9204105 60.4384761,19.0058588 60.5380859,19.1171875 L60.5380859,17.5 L61.2412109,17.5 L61.2412109,22 L60.6054688,22 L60.5703125,21.6777344 C60.4707026,21.8007819 60.3510749,21.8950192 60.2114258,21.9604492 C60.0717766,22.0258792 59.9091806,22.0585938 59.7236328,22.0585938 C59.5322256,22.0585938 59.3593758,22.0180668 59.2050781,21.9370117 C59.0507805,21.8559566 58.9194341,21.7441413 58.8110352,21.6015625 C58.7026362,21.4589837 58.6186526,21.2895518 58.559082,21.0932617 C58.4995114,20.8969717 58.4697266,20.6835949 58.4697266,20.453125 L58.4697266,20.3916016 Z M59.1699219,20.453125 C59.1699219,20.5957038 59.1835936,20.7294916 59.2109375,20.8544922 C59.2382814,20.9794928 59.281738,21.0888667 59.3413086,21.1826172 C59.4008792,21.2763677 59.4770503,21.3500974 59.5698242,21.4038086 C59.6625981,21.4575198 59.7734369,21.484375 59.9023438,21.484375 C60.0625008,21.484375 60.1933589,21.4497074 60.2949219,21.3803711 C60.3964849,21.3110348 60.4775388,21.217774 60.5380859,21.1005859 L60.5380859,19.7236328 C60.4775388,19.6083979 60.3959966,19.5166019 60.293457,19.4482422 C60.1909175,19.3798825 60.0625008,19.3457031 59.9082031,19.3457031 C59.7773431,19.3457031 59.6655278,19.3730466 59.5727539,19.4277344 C59.47998,19.4824221 59.4038089,19.5576167 59.3442383,19.6533203 C59.2846677,19.7490239 59.2407228,19.8603509 59.2124023,19.9873047 C59.1840819,20.1142584 59.1699219,20.2490227 59.1699219,20.3916016 L59.1699219,20.453125 Z M3.74023438,28.4501953 C3.74023438,28.6845715 3.71337917,28.8999014 3.65966797,29.0961914 C3.60595676,29.2924815 3.52636771,29.4619133 3.42089844,29.6044922 C3.31542916,29.747071 3.18554765,29.858398 3.03125,29.9384766 C2.87695235,30.0185551 2.69921976,30.0585938 2.49804688,30.0585938 C2.30468653,30.0585938 2.13720774,30.0244144 1.99560547,29.9560547 C1.8540032,29.887695 1.73242238,29.7890631 1.63085938,29.6601562 L1.59863281,30 L0.962890625,30 L0.962890625,25.5 L1.66308594,25.5 L1.66308594,27.1318359 C1.76269581,27.016601 1.87988214,26.9277347 2.01464844,26.8652344 C2.14941474,26.8027341 2.30859283,26.7714844 2.4921875,26.7714844 C2.69531352,26.7714844 2.87451094,26.8110348 3.02978516,26.8901367 C3.18505937,26.9692387 3.31542916,27.0800774 3.42089844,27.2226562 C3.52636771,27.3652351 3.60595676,27.5356435 3.65966797,27.7338867 C3.71337917,27.9321299 3.74023438,28.1503894 3.74023438,28.3886719 L3.74023438,28.4501953 Z M3.04003906,28.3886719 C3.04003906,28.2480462 3.02783215,28.1147467 3.00341797,27.9887695 C2.97900378,27.8627923 2.93896512,27.7519536 2.88330078,27.65625 C2.82763644,27.5605464 2.75293016,27.4848636 2.65917969,27.4291992 C2.56542922,27.3735349 2.450196,27.3457031 2.31347656,27.3457031 C2.14746011,27.3457031 2.01171928,27.3837887 1.90625,27.4599609 C1.80078072,27.5361332 1.71972685,27.6357416 1.66308594,27.7587891 L1.66308594,29.0683594 C1.71972685,29.1914069 1.801269,29.2919918 1.90771484,29.3701172 C2.01416069,29.4482426 2.15136635,29.4873047 2.31933594,29.4873047 C2.4521491,29.4873047 2.56445267,29.4604495 2.65625,29.4067383 C2.74804733,29.3530271 2.82226534,29.2792973 2.87890625,29.1855469 C2.93554716,29.0917964 2.97656237,28.9819342 3.00195312,28.855957 C3.02734388,28.7299798 3.04003906,28.5947273 3.04003906,28.4501953 L3.04003906,28.3886719 Z M6.73144531,26.7714844 C6.78808622,26.7714844 6.84472628,26.7734375 6.90136719,26.7773438 C6.9580081,26.78125 7.01220677,26.7871093 7.06396484,26.7949219 C7.11572292,26.8027344 7.16308572,26.8110351 7.20605469,26.8198242 C7.24902365,26.8286133 7.2851561,26.8388671 7.31445312,26.8505859 L7.21484375,27.5390625 C6.99999893,27.4902341 6.78808698,27.4658203 6.57910156,27.4658203 C6.34472539,27.4658203 6.15576244,27.5146479 6.01220703,27.6123047 C5.86865163,27.7099614 5.76269565,27.8457023 5.69433594,28.0195312 L5.69433594,30 L4.99414062,30 L4.99414062,26.8300781 L5.65039062,26.8300781 L5.68261719,27.3251953 C5.81152408,27.1533195 5.96435458,27.0180669 6.14111328,26.9194336 C6.31787198,26.8208003 6.51464735,26.7714844 6.73144531,26.7714844 Z M10.1767578,30 C10.1572265,29.9609373 10.1411133,29.9150393 10.128418,29.8623047 C10.1157226,29.80957 10.1044922,29.75293 10.0947266,29.6923828 C10.0458982,29.7431643 9.99072296,29.7905271 9.92919922,29.8344727 C9.86767547,29.8784182 9.79931678,29.916992 9.72412109,29.9501953 C9.64892541,29.9833986 9.56787153,30.0097655 9.48095703,30.0292969 C9.39404253,30.0488282 9.30078175,30.0585938 9.20117188,30.0585938 C9.03320229,30.0585938 8.88134833,30.0346682 8.74560547,29.9868164 C8.6098626,29.9389646 8.49365283,29.872559 8.39697266,29.7875977 C8.30029249,29.7026363 8.2255862,29.6025396 8.17285156,29.4873047 C8.12011692,29.3720697 8.09375,29.247071 8.09375,29.1123047 C8.09375,28.7724592 8.22021358,28.5126962 8.47314453,28.3330078 C8.72607548,28.1533194 9.08886482,28.0634766 9.56152344,28.0634766 L10.0742188,28.0634766 L10.0742188,27.8554688 C10.0742188,27.6874992 10.0175787,27.5541997 9.90429688,27.4555664 C9.79101506,27.3569331 9.63086041,27.3076172 9.42382812,27.3076172 C9.33007766,27.3076172 9.24804723,27.3188475 9.17773438,27.3413086 C9.10742152,27.3637696 9.04882836,27.3945311 9.00195312,27.4335938 C8.95507789,27.4726564 8.91992199,27.5185544 8.89648438,27.5712891 C8.87304676,27.6240237 8.86132812,27.6806638 8.86132812,27.7412109 L8.16113281,27.7412109 C8.16113281,27.6181634 8.18994112,27.4985357 8.24755859,27.3823242 C8.30517607,27.2661127 8.38964788,27.1625981 8.50097656,27.0717773 C8.61230524,26.9809566 8.74853435,26.9082034 8.90966797,26.8535156 C9.07080159,26.7988279 9.25488178,26.7714844 9.46191406,26.7714844 C9.649415,26.7714844 9.82324139,26.7944334 9.98339844,26.840332 C10.1435555,26.8862307 10.282226,26.9545894 10.3994141,27.0454102 C10.5166021,27.1362309 10.6083981,27.249511 10.6748047,27.3852539 C10.7412113,27.5209968 10.7744141,27.6796866 10.7744141,27.8613281 L10.7744141,29.2734375 C10.7744141,29.4121101 10.7846679,29.5385736 10.8051758,29.652832 C10.8256837,29.7670904 10.8554686,29.8662105 10.8945312,29.9501953 L10.8945312,30 L10.1767578,30 Z M9.33300781,29.4931641 C9.42285201,29.4931641 9.50732382,29.4819337 9.58642578,29.4594727 C9.66552774,29.4370116 9.73681609,29.407715 9.80029297,29.371582 C9.86376985,29.335449 9.9184568,29.2939455 9.96435547,29.2470703 C10.0102541,29.2001951 10.0468749,29.152344 10.0742188,29.1035156 L10.0742188,28.5087891 L9.62890625,28.5087891 C9.34374857,28.5087891 9.13330146,28.554687 8.99755859,28.6464844 C8.86181573,28.7382817 8.79394531,28.8691398 8.79394531,29.0390625 C8.79394531,29.1035159 8.80468739,29.1635739 8.82617188,29.2192383 C8.84765636,29.2749026 8.88037087,29.3227537 8.92431641,29.362793 C8.96826194,29.4028322 9.02392544,29.4345702 9.09130859,29.4580078 C9.15869174,29.4814454 9.23925734,29.4931641 9.33300781,29.4931641 Z M12.3886719,26.8300781 L12.4326172,27.2695312 C12.5478521,27.1113273 12.6870109,26.98877 12.8500977,26.9018555 C13.0131844,26.814941 13.1943349,26.7714844 13.3935547,26.7714844 C13.5556649,26.7714844 13.7036126,26.7949216 13.8374023,26.8417969 C13.9711921,26.8886721 14.0864253,26.9619136 14.1831055,27.0615234 C14.2797856,27.1611333 14.3549802,27.2900383 14.4086914,27.4482422 C14.4624026,27.6064461 14.4892578,27.7968739 14.4892578,28.0195312 L14.4892578,30 L13.7890625,30 L13.7890625,28.03125 C13.7890625,27.90039 13.7739259,27.7910161 13.7436523,27.703125 C13.7133788,27.6152339 13.6704104,27.5449221 13.6147461,27.4921875 C13.5590818,27.4394529 13.4912113,27.4018556 13.4111328,27.3793945 C13.3310543,27.3569335 13.2402349,27.3457031 13.1386719,27.3457031 C12.9843742,27.3457031 12.8500982,27.3798825 12.7358398,27.4482422 C12.6215815,27.5166019 12.5292972,27.6093744 12.4589844,27.7265625 L12.4589844,30 L11.7558594,30 L11.7558594,26.8300781 L12.3886719,26.8300781 Z M15.2626953,28.3916016 C15.2626953,28.151366 15.2919919,27.9316416 15.3505859,27.7324219 C15.40918,27.5332021 15.4931635,27.3623054 15.6025391,27.2197266 C15.7119146,27.0771477 15.8442375,26.9667973 15.9995117,26.8886719 C16.1547859,26.8105465 16.3291006,26.7714844 16.5224609,26.7714844 C16.6962899,26.7714844 16.8496087,26.8012692 16.9824219,26.8608398 C17.115235,26.9204105 17.2314448,27.0058588 17.3310547,27.1171875 L17.3310547,25.5 L18.0341797,25.5 L18.0341797,30 L17.3984375,30 L17.3632812,29.6777344 C17.2636714,29.8007819 17.1440437,29.8950192 17.0043945,29.9604492 C16.8647454,30.0258792 16.7021494,30.0585938 16.5166016,30.0585938 C16.3251944,30.0585938 16.1523445,30.0180668 15.9980469,29.9370117 C15.8437492,29.8559566 15.7124029,29.7441413 15.6040039,29.6015625 C15.4956049,29.4589837 15.4116214,29.2895518 15.3520508,29.0932617 C15.2924802,28.8969717 15.2626953,28.6835949 15.2626953,28.453125 L15.2626953,28.3916016 Z M15.9628906,28.453125 C15.9628906,28.5957038 15.9765624,28.7294916 16.0039062,28.8544922 C16.0312501,28.9794928 16.0747067,29.0888667 16.1342773,29.1826172 C16.193848,29.2763677 16.2700191,29.3500974 16.362793,29.4038086 C16.4555669,29.4575198 16.5664056,29.484375 16.6953125,29.484375 C16.8554696,29.484375 16.9863276,29.4497074 17.0878906,29.3803711 C17.1894536,29.3110348 17.2705075,29.217774 17.3310547,29.1005859 L17.3310547,27.7236328 C17.2705075,27.6083979 17.1889654,27.5166019 17.0864258,27.4482422 C16.9838862,27.3798825 16.8554695,27.3457031 16.7011719,27.3457031 C16.5703118,27.3457031 16.4584966,27.3730466 16.3657227,27.4277344 C16.2729488,27.4824221 16.1967776,27.5576167 16.137207,27.6533203 C16.0776364,27.7490239 16.0336915,27.8603509 16.0053711,27.9873047 C15.9770506,28.1142584 15.9628906,28.2490227 15.9628906,28.3916016 L15.9628906,28.453125 Z M21.0224609,29.1416016 C21.0224609,29.0888669 21.0117189,29.0405276 20.9902344,28.996582 C20.9687499,28.9526365 20.9301761,28.9125978 20.8745117,28.8764648 C20.8188474,28.8403319 20.7426763,28.8066408 20.6459961,28.7753906 C20.5493159,28.7441405 20.425782,28.7138673 20.2753906,28.6845703 C20.0878897,28.6455076 19.9184578,28.5986331 19.7670898,28.5439453 C19.6157219,28.4892575 19.4858404,28.4238285 19.3774414,28.3476562 C19.2690424,28.271484 19.1855472,28.183106 19.1269531,28.0825195 C19.0683591,27.9819331 19.0390625,27.865235 19.0390625,27.7324219 C19.0390625,27.603515 19.0693356,27.4809576 19.1298828,27.3647461 C19.19043,27.2485346 19.2768549,27.1464848 19.3891602,27.0585938 C19.5014654,26.9707027 19.6381828,26.9008792 19.7993164,26.8491211 C19.96045,26.797363 20.140624,26.7714844 20.3398438,26.7714844 C20.5507823,26.7714844 20.7397453,26.7978513 20.9067383,26.8505859 C21.0737313,26.9033206 21.2148432,26.9750972 21.3300781,27.065918 C21.4453131,27.1567387 21.5336911,27.2636713 21.5952148,27.3867188 C21.6567386,27.5097662 21.6875,27.6416009 21.6875,27.7822266 L20.9873047,27.7822266 C20.9873047,27.7197263 20.9736329,27.6596683 20.9462891,27.6020508 C20.9189452,27.5444333 20.87793,27.4931643 20.8232422,27.4482422 C20.7685544,27.4033201 20.700684,27.3676759 20.6196289,27.3413086 C20.5385738,27.3149413 20.445313,27.3017578 20.3398438,27.3017578 C20.2343745,27.3017578 20.1430668,27.3129882 20.065918,27.3354492 C19.9887691,27.3579103 19.9248049,27.3872069 19.8740234,27.4233398 C19.8232419,27.4594728 19.7856447,27.5019529 19.7612305,27.5507812 C19.7368163,27.5996096 19.7246094,27.6503904 19.7246094,27.703125 C19.7246094,27.7558596 19.7338866,27.8037107 19.7524414,27.8466797 C19.7709962,27.8896487 19.8056638,27.9287108 19.8564453,27.9638672 C19.9072268,27.9990236 19.9775386,28.0307616 20.0673828,28.059082 C20.157227,28.0874025 20.2734368,28.1142577 20.4160156,28.1396484 C20.6152354,28.1748049 20.7944328,28.2187497 20.9536133,28.2714844 C21.1127938,28.324219 21.2485346,28.3886715 21.3608398,28.4648438 C21.4731451,28.541016 21.55957,28.6313471 21.6201172,28.7358398 C21.6806644,28.8403326 21.7109375,28.9628899 21.7109375,29.1035156 C21.7109375,29.2441413 21.6787113,29.3730463 21.6142578,29.4902344 C21.5498044,29.6074225 21.4580084,29.7084957 21.3388672,29.793457 C21.219726,29.8784184 21.076661,29.9443357 20.909668,29.9912109 C20.7426749,30.0380862 20.5556651,30.0615234 20.3486328,30.0615234 C20.1181629,30.0615234 19.9150399,30.030762 19.7392578,29.9692383 C19.5634757,29.9077145 19.4160162,29.8271489 19.296875,29.7275391 C19.1777338,29.6279292 19.0874027,29.5146491 19.0258789,29.3876953 C18.9643552,29.2607416 18.9335938,29.1318366 18.9335938,29.0009766 L19.6132812,29.0009766 C19.6191407,29.0986333 19.644531,29.1816403 19.6894531,29.25 C19.7343752,29.3183597 19.7919918,29.3735349 19.8623047,29.4155273 C19.9326175,29.4575197 20.0107418,29.4877929 20.0966797,29.5063477 C20.1826176,29.5249024 20.2695308,29.5341797 20.3574219,29.5341797 C20.5742198,29.5341797 20.7392572,29.497559 20.8525391,29.4243164 C20.9658209,29.3510739 21.0224609,29.2568365 21.0224609,29.1416016 Z M26.7587891,28.9570312 L26.7792969,29.1591797 L26.8115234,28.9570312 L27.265625,26.8300781 L27.7255859,26.8300781 L28.1855469,28.9804688 L28.2177734,29.1914062 L28.2441406,28.9599609 L28.5517578,26.8300781 L29.1845703,26.8300781 L28.5664062,30 L27.9775391,30 L27.4970703,27.8789062 L27.4912109,27.8408203 L27.4853516,27.8759766 L27.0136719,30 L26.4277344,30 L25.8095703,26.8300781 L26.4394531,26.8300781 L26.7587891,28.9570312 Z M31.2353516,30.0585938 C31.0009754,30.0585938 30.7871103,30.0195316 30.59375,29.9414062 C30.4003897,29.8632809 30.234864,29.7558601 30.097168,29.6191406 C29.959472,29.4824212 29.8525394,29.3208017 29.7763672,29.1342773 C29.7001949,28.947753 29.6621094,28.7460948 29.6621094,28.5292969 L29.6621094,28.4091797 C29.6621094,28.1572253 29.7026363,27.9306651 29.7836914,27.7294922 C29.8647465,27.5283193 29.9731439,27.356446 30.1088867,27.2138672 C30.2446296,27.0712883 30.4028311,26.9619144 30.5834961,26.8857422 C30.7641611,26.8095699 30.9541006,26.7714844 31.1533203,26.7714844 C31.3837902,26.7714844 31.5869132,26.8100582 31.7626953,26.887207 C31.9384774,26.9643559 32.0854486,27.0727532 32.2036133,27.2124023 C32.3217779,27.3520515 32.4111325,27.5175772 32.4716797,27.7089844 C32.5322269,27.9003916 32.5625,28.1103504 32.5625,28.3388672 L32.5625,28.6347656 L30.3652344,28.6347656 C30.3769532,28.7578131 30.4072263,28.8720698 30.4560547,28.9775391 C30.5048831,29.0830083 30.5688473,29.174316 30.6479492,29.2514648 C30.7270512,29.3286137 30.8198237,29.3891599 30.9262695,29.4331055 C31.0327154,29.477051 31.1494134,29.4990234 31.2763672,29.4990234 C31.4541025,29.4990234 31.617675,29.4638675 31.7670898,29.3935547 C31.9165047,29.3232418 32.0380855,29.2265631 32.1318359,29.1035156 L32.5126953,29.4609375 C32.4619138,29.5371098 32.3964848,29.6108395 32.3164062,29.6821289 C32.2363277,29.7534183 32.1425787,29.8168943 32.0351562,29.8725586 C31.9277338,29.9282229 31.8071296,29.9731444 31.6733398,30.0073242 C31.5395501,30.0415041 31.3935555,30.0585938 31.2353516,30.0585938 Z M31.1503906,27.3369141 C31.0527339,27.3369141 30.9619145,27.354492 30.8779297,27.3896484 C30.7939449,27.4248049 30.7187503,27.4760739 30.6523438,27.543457 C30.5859372,27.6108402 30.5297854,27.6928706 30.4838867,27.7895508 C30.4379881,27.886231 30.4052735,27.9960931 30.3857422,28.1191406 L31.8710938,28.1191406 L31.8710938,28.0664062 C31.8652343,27.9726558 31.8471681,27.8823247 31.8168945,27.7954102 C31.7866209,27.7084957 31.7421878,27.6308597 31.6835938,27.5625 C31.6249997,27.4941403 31.55127,27.4394533 31.4624023,27.3984375 C31.3735347,27.3574217 31.2695318,27.3369141 31.1503906,27.3369141 Z M39.7460938,28.4501953 C39.7460938,28.6845715 39.7192385,28.8999014 39.6655273,29.0961914 C39.6118161,29.2924815 39.5322271,29.4619133 39.4267578,29.6044922 C39.3212885,29.747071 39.191407,29.858398 39.0371094,29.9384766 C38.8828117,30.0185551 38.7050791,30.0585938 38.5039062,30.0585938 C38.3105459,30.0585938 38.1430671,30.0244144 38.0014648,29.9560547 C37.8598626,29.887695 37.7382818,29.7890631 37.6367188,29.6601562 L37.6044922,30 L36.96875,30 L36.96875,25.5 L37.6689453,25.5 L37.6689453,27.1318359 C37.7685552,27.016601 37.8857415,26.9277347 38.0205078,26.8652344 C38.1552741,26.8027341 38.3144522,26.7714844 38.4980469,26.7714844 C38.7011729,26.7714844 38.8803703,26.8110348 39.0356445,26.8901367 C39.1909187,26.9692387 39.3212885,27.0800774 39.4267578,27.2226562 C39.5322271,27.3652351 39.6118161,27.5356435 39.6655273,27.7338867 C39.7192385,27.9321299 39.7460938,28.1503894 39.7460938,28.3886719 L39.7460938,28.4501953 Z M39.0458984,28.3886719 C39.0458984,28.2480462 39.0336915,28.1147467 39.0092773,27.9887695 C38.9848632,27.8627923 38.9448245,27.7519536 38.8891602,27.65625 C38.8334958,27.5605464 38.7587895,27.4848636 38.6650391,27.4291992 C38.5712886,27.3735349 38.4560554,27.3457031 38.3193359,27.3457031 C38.1533195,27.3457031 38.0175787,27.3837887 37.9121094,27.4599609 C37.8066401,27.5361332 37.7255862,27.6357416 37.6689453,27.7587891 L37.6689453,29.0683594 C37.7255862,29.1914069 37.8071284,29.2919918 37.9135742,29.3701172 C38.0200201,29.4482426 38.1572257,29.4873047 38.3251953,29.4873047 C38.4580085,29.4873047 38.570312,29.4604495 38.6621094,29.4067383 C38.7539067,29.3530271 38.8281247,29.2792973 38.8847656,29.1855469 C38.9414065,29.0917964 38.9824217,28.9819342 39.0078125,28.855957 C39.0332033,28.7299798 39.0458984,28.5947273 39.0458984,28.4501953 L39.0458984,28.3886719 Z M42.0371094,30.0585938 C41.8027332,30.0585938 41.5888682,30.0195316 41.3955078,29.9414062 C41.2021475,29.8632809 41.0366218,29.7558601 40.8989258,29.6191406 C40.7612298,29.4824212 40.6542973,29.3208017 40.578125,29.1342773 C40.5019527,28.947753 40.4638672,28.7460948 40.4638672,28.5292969 L40.4638672,28.4091797 C40.4638672,28.1572253 40.5043941,27.9306651 40.5854492,27.7294922 C40.6665043,27.5283193 40.7749017,27.356446 40.9106445,27.2138672 C41.0463874,27.0712883 41.2045889,26.9619144 41.3852539,26.8857422 C41.5659189,26.8095699 41.7558584,26.7714844 41.9550781,26.7714844 C42.185548,26.7714844 42.388671,26.8100582 42.5644531,26.887207 C42.7402353,26.9643559 42.8872064,27.0727532 43.0053711,27.2124023 C43.1235357,27.3520515 43.2128903,27.5175772 43.2734375,27.7089844 C43.3339847,27.9003916 43.3642578,28.1103504 43.3642578,28.3388672 L43.3642578,28.6347656 L41.1669922,28.6347656 C41.178711,28.7578131 41.2089841,28.8720698 41.2578125,28.9775391 C41.3066409,29.0830083 41.3706051,29.174316 41.449707,29.2514648 C41.528809,29.3286137 41.6215815,29.3891599 41.7280273,29.4331055 C41.8344732,29.477051 41.9511712,29.4990234 42.078125,29.4990234 C42.2558603,29.4990234 42.4194328,29.4638675 42.5688477,29.3935547 C42.7182625,29.3232418 42.8398433,29.2265631 42.9335938,29.1035156 L43.3144531,29.4609375 C43.2636716,29.5371098 43.1982426,29.6108395 43.1181641,29.6821289 C43.0380855,29.7534183 42.9443365,29.8168943 42.8369141,29.8725586 C42.7294917,29.9282229 42.6088874,29.9731444 42.4750977,30.0073242 C42.3413079,30.0415041 42.1953133,30.0585938 42.0371094,30.0585938 Z M41.9521484,27.3369141 C41.8544917,27.3369141 41.7636723,27.354492 41.6796875,27.3896484 C41.5957027,27.4248049 41.5205081,27.4760739 41.4541016,27.543457 C41.387695,27.6108402 41.3315432,27.6928706 41.2856445,27.7895508 C41.2397459,27.886231 41.2070313,27.9960931 41.1875,28.1191406 L42.6728516,28.1191406 L42.6728516,28.0664062 C42.6669922,27.9726558 42.6489259,27.8823247 42.6186523,27.7954102 C42.5883788,27.7084957 42.5439456,27.6308597 42.4853516,27.5625 C42.4267575,27.4941403 42.3530278,27.4394533 42.2641602,27.3984375 C42.1752925,27.3574217 42.0712897,27.3369141 41.9521484,27.3369141 Z M44.2900391,25.5 L46.0039062,25.5 L46.0039062,29.4199219 L46.9707031,29.4199219 L46.9707031,30 L44.2900391,30 L44.2900391,29.4199219 L45.2978516,29.4199219 L45.2978516,26.0830078 L44.2900391,26.0830078 L44.2900391,25.5 Z M47.9140625,26.8300781 L49.6044922,26.8300781 L49.6044922,29.4199219 L50.5449219,29.4199219 L50.5449219,30 L47.9140625,30 L47.9140625,29.4199219 L48.8984375,29.4199219 L48.8984375,27.4130859 L47.9140625,27.4130859 L47.9140625,26.8300781 Z M48.8398438,26.0097656 C48.8398438,25.9003901 48.8749996,25.810059 48.9453125,25.7387695 C49.0156254,25.6674801 49.1142572,25.6318359 49.2412109,25.6318359 C49.3701178,25.6318359 49.4702145,25.6674801 49.5415039,25.7387695 C49.6127933,25.810059 49.6484375,25.9003901 49.6484375,26.0097656 C49.6484375,26.1191412 49.6127933,26.2094723 49.5415039,26.2807617 C49.4702145,26.3520511 49.3701178,26.3876953 49.2412109,26.3876953 C49.1142572,26.3876953 49.0156254,26.3520511 48.9453125,26.2807617 C48.8749996,26.2094723 48.8398438,26.1191412 48.8398438,26.0097656 Z M52.8388672,30.0585938 C52.604491,30.0585938 52.390626,30.0195316 52.1972656,29.9414062 C52.0039053,29.8632809 51.8383796,29.7558601 51.7006836,29.6191406 C51.5629876,29.4824212 51.4560551,29.3208017 51.3798828,29.1342773 C51.3037106,28.947753 51.265625,28.7460948 51.265625,28.5292969 L51.265625,28.4091797 C51.265625,28.1572253 51.3061519,27.9306651 51.387207,27.7294922 C51.4682621,27.5283193 51.5766595,27.356446 51.7124023,27.2138672 C51.8481452,27.0712883 52.0063468,26.9619144 52.1870117,26.8857422 C52.3676767,26.8095699 52.5576162,26.7714844 52.7568359,26.7714844 C52.9873058,26.7714844 53.1904288,26.8100582 53.3662109,26.887207 C53.5419931,26.9643559 53.6889643,27.0727532 53.8071289,27.2124023 C53.9252936,27.3520515 54.0146481,27.5175772 54.0751953,27.7089844 C54.1357425,27.9003916 54.1660156,28.1103504 54.1660156,28.3388672 L54.1660156,28.6347656 L51.96875,28.6347656 C51.9804688,28.7578131 52.0107419,28.8720698 52.0595703,28.9775391 C52.1083987,29.0830083 52.1723629,29.174316 52.2514648,29.2514648 C52.3305668,29.3286137 52.4233393,29.3891599 52.5297852,29.4331055 C52.636231,29.477051 52.7529291,29.4990234 52.8798828,29.4990234 C53.0576181,29.4990234 53.2211907,29.4638675 53.3706055,29.3935547 C53.5200203,29.3232418 53.6416011,29.2265631 53.7353516,29.1035156 L54.1162109,29.4609375 C54.0654294,29.5371098 54.0000004,29.6108395 53.9199219,29.6821289 C53.8398433,29.7534183 53.7460943,29.8168943 53.6386719,29.8725586 C53.5312495,29.9282229 53.4106452,29.9731444 53.2768555,30.0073242 C53.1430657,30.0415041 52.9970711,30.0585938 52.8388672,30.0585938 Z M52.7539062,27.3369141 C52.6562495,27.3369141 52.5654301,27.354492 52.4814453,27.3896484 C52.3974605,27.4248049 52.322266,27.4760739 52.2558594,27.543457 C52.1894528,27.6108402 52.133301,27.6928706 52.0874023,27.7895508 C52.0415037,27.886231 52.0087892,27.9960931 51.9892578,28.1191406 L53.4746094,28.1191406 L53.4746094,28.0664062 C53.46875,27.9726558 53.4506837,27.8823247 53.4204102,27.7954102 C53.3901366,27.7084957 53.3457034,27.6308597 53.2871094,27.5625 C53.2285153,27.4941403 53.1547856,27.4394533 53.065918,27.3984375 C52.9770503,27.3574217 52.8730475,27.3369141 52.7539062,27.3369141 Z M56.2607422,29.1152344 L56.3105469,29.3496094 L56.3632812,29.1181641 L57.1308594,26.8300781 L57.8544922,26.8300781 L56.6123047,30 L56.0087891,30 L54.7548828,26.8300781 L55.4785156,26.8300781 L56.2607422,29.1152344 Z M60.0400391,30.0585938 C59.8056629,30.0585938 59.5917978,30.0195316 59.3984375,29.9414062 C59.2050772,29.8632809 59.0395515,29.7558601 58.9018555,29.6191406 C58.7641595,29.4824212 58.6572269,29.3208017 58.5810547,29.1342773 C58.5048824,28.947753 58.4667969,28.7460948 58.4667969,28.5292969 L58.4667969,28.4091797 C58.4667969,28.1572253 58.5073238,27.9306651 58.5883789,27.7294922 C58.669434,27.5283193 58.7778314,27.356446 58.9135742,27.2138672 C59.0493171,27.0712883 59.2075186,26.9619144 59.3881836,26.8857422 C59.5688486,26.8095699 59.7587881,26.7714844 59.9580078,26.7714844 C60.1884777,26.7714844 60.3916007,26.8100582 60.5673828,26.887207 C60.7431649,26.9643559 60.8901361,27.0727532 61.0083008,27.2124023 C61.1264654,27.3520515 61.21582,27.5175772 61.2763672,27.7089844 C61.3369144,27.9003916 61.3671875,28.1103504 61.3671875,28.3388672 L61.3671875,28.6347656 L59.1699219,28.6347656 C59.1816407,28.7578131 59.2119138,28.8720698 59.2607422,28.9775391 C59.3095706,29.0830083 59.3735348,29.174316 59.4526367,29.2514648 C59.5317387,29.3286137 59.6245112,29.3891599 59.730957,29.4331055 C59.8374029,29.477051 59.9541009,29.4990234 60.0810547,29.4990234 C60.25879,29.4990234 60.4223625,29.4638675 60.5717773,29.3935547 C60.7211922,29.3232418 60.842773,29.2265631 60.9365234,29.1035156 L61.3173828,29.4609375 C61.2666013,29.5371098 61.2011723,29.6108395 61.1210938,29.6821289 C61.0410152,29.7534183 60.9472662,29.8168943 60.8398438,29.8725586 C60.7324213,29.9282229 60.6118171,29.9731444 60.4780273,30.0073242 C60.3442376,30.0415041 60.198243,30.0585938 60.0400391,30.0585938 Z M59.9550781,27.3369141 C59.8574214,27.3369141 59.766602,27.354492 59.6826172,27.3896484 C59.5986324,27.4248049 59.5234378,27.4760739 59.4570312,27.543457 C59.3906247,27.6108402 59.3344729,27.6928706 59.2885742,27.7895508 C59.2426756,27.886231 59.209961,27.9960931 59.1904297,28.1191406 L60.6757812,28.1191406 L60.6757812,28.0664062 C60.6699218,27.9726558 60.6518556,27.8823247 60.621582,27.7954102 C60.5913084,27.7084957 60.5468753,27.6308597 60.4882812,27.5625 C60.4296872,27.4941403 60.3559575,27.4394533 60.2670898,27.3984375 C60.1782222,27.3574217 60.0742193,27.3369141 59.9550781,27.3369141 Z M1.10644531,34.8300781 L2.796875,34.8300781 L2.796875,37.4199219 L3.73730469,37.4199219 L3.73730469,38 L1.10644531,38 L1.10644531,37.4199219 L2.09082031,37.4199219 L2.09082031,35.4130859 L1.10644531,35.4130859 L1.10644531,34.8300781 Z M2.03222656,34.0097656 C2.03222656,33.9003901 2.06738246,33.810059 2.13769531,33.7387695 C2.20800816,33.6674801 2.30663999,33.6318359 2.43359375,33.6318359 C2.56250064,33.6318359 2.6625973,33.6674801 2.73388672,33.7387695 C2.80517614,33.810059 2.84082031,33.9003901 2.84082031,34.0097656 C2.84082031,34.1191412 2.80517614,34.2094723 2.73388672,34.2807617 C2.6625973,34.3520511 2.56250064,34.3876953 2.43359375,34.3876953 C2.30663999,34.3876953 2.20800816,34.3520511 2.13769531,34.2807617 C2.06738246,34.2094723 2.03222656,34.1191412 2.03222656,34.0097656 Z M5.1875,34.8300781 L5.23144531,35.2695312 C5.34668026,35.1113273 5.48583903,34.98877 5.64892578,34.9018555 C5.81201253,34.814941 5.99316307,34.7714844 6.19238281,34.7714844 C6.354493,34.7714844 6.50244074,34.7949216 6.63623047,34.8417969 C6.7700202,34.8886721 6.88525342,34.9619136 6.98193359,35.0615234 C7.07861376,35.1611333 7.15380833,35.2900383 7.20751953,35.4482422 C7.26123074,35.6064461 7.28808594,35.7968739 7.28808594,36.0195312 L7.28808594,38 L6.58789062,38 L6.58789062,36.03125 C6.58789062,35.90039 6.57275406,35.7910161 6.54248047,35.703125 C6.51220688,35.6152339 6.46923856,35.5449221 6.41357422,35.4921875 C6.35790988,35.4394529 6.29003946,35.4018556 6.20996094,35.3793945 C6.12988241,35.3569335 6.03906301,35.3457031 5.9375,35.3457031 C5.78320235,35.3457031 5.64892635,35.3798825 5.53466797,35.4482422 C5.42040958,35.5166019 5.32812535,35.6093744 5.2578125,35.7265625 L5.2578125,38 L4.5546875,38 L4.5546875,34.8300781 L5.1875,34.8300781 Z M9.03125,37.5810547 C9.03125,37.512695 9.04248036,37.4482425 9.06494141,37.3876953 C9.08740246,37.3271481 9.12011697,37.2749026 9.16308594,37.230957 C9.2060549,37.1870115 9.25927703,37.1523439 9.32275391,37.1269531 C9.38623079,37.1015624 9.45898396,37.0888672 9.54101562,37.0888672 C9.62304729,37.0888672 9.69580046,37.1015624 9.75927734,37.1269531 C9.82275422,37.1523439 9.87646462,37.1870115 9.92041016,37.230957 C9.96435569,37.2749026 9.99755848,37.3271481 10.0200195,37.3876953 C10.0424806,37.4482425 10.0537109,37.512695 10.0537109,37.5810547 C10.0537109,37.6494144 10.0424806,37.7124021 10.0200195,37.7700195 C9.99755848,37.827637 9.96435569,37.8779295 9.92041016,37.9208984 C9.87646462,37.9638674 9.82275422,37.9975585 9.75927734,38.0219727 C9.69580046,38.0463868 9.62304729,38.0585938 9.54101562,38.0585938 C9.45898396,38.0585938 9.38623079,38.0463868 9.32275391,38.0219727 C9.25927703,37.9975585 9.2060549,37.9638674 9.16308594,37.9208984 C9.12011697,37.8779295 9.08740246,37.827637 9.06494141,37.7700195 C9.04248036,37.7124021 9.03125,37.6494144 9.03125,37.5810547 Z" id="We-work-with-bold-br"></path>
                    </g>
                    <use id="iphone" stroke="#000000" mask="url(#mask-14)" stroke-width="4" fill="#FFFFFF" xlink:href="#path-13"></use>
                    <use id="iphone" stroke="#000000" mask="url(#mask-16)" stroke-width="4" fill="#FFFFFF" opacity="0.143399004" xlink:href="#path-15"></use>
                    <use id="Oval" stroke="#000000" mask="url(#mask-18)" stroke-width="4" fill="#FFFFFF" opacity="0.2" xlink:href="#path-17"></use>
                    <use id="Oval" stroke="#000000" mask="url(#mask-20)" stroke-width="4" fill="#FFFFFF" opacity="0.2" xlink:href="#path-19"></use>
                    <path d="M150,50 L150,128 L156,128 L156,130 L150,130 L150,136 L148,136 L148,130 L70,130 L70,136 L68,136 L68,130 L62,130 L62,128 L68,128 L68,50 L62,50 L62,48 L68,48 L68,42 L70,42 L70,48 L148,48 L148,42 L150,42 L150,48 L156,48 L156,50 L150,50 Z M148,50 L70,50 L70,128 L148,128 L148,50 Z" id="Combined-Shape" fill="#000000" opacity="0.100000001"></path>
                    <path d="M173,261 L173,51 L162,51 L162,49 L173,49 L173,39 L175,39 L175,49 L293,49 L293,39 L295,39 L295,49 L304,49 L304,51 L295,51 L295,261 L304,261 L304,263 L295,263 L295,271 L293,271 L293,263 L175,263 L175,271 L173,271 L173,263 L162,263 L162,261 L173,261 Z M175,261 L293,261 L293,51 L175,51 L175,261 Z" id="Combined-Shape" fill="#000000" opacity="0.100000001"></path>
                    <g id="ruler" transform="translate(53.492100, 53.974856) rotate(-315.000000) translate(-53.492100, -53.974856) translate(43.992100, -11.525144)">
                        <path d="M-1.42108547e-13,0.992517766 C-1.42108547e-13,0.44436534 0.441829856,1.27897692e-13 1.00091757,1.27897692e-13 L17.6158367,1.27897692e-13 C18.1686282,1.27897692e-13 18.6167543,0.446322636 18.6167543,0.992517766 L18.6167543,129.324762 C18.6167543,129.872914 18.1749244,130.31728 17.6158367,130.31728 L1.00091757,130.31728 C0.448126059,130.31728 -1.42108547e-13,129.870957 -1.42108547e-13,129.324762 L-1.42108547e-13,0.992517766 Z M9.30837713,11.9679135 C10.7771985,11.9679135 11.9679135,10.7771985 11.9679135,9.30837713 C11.9679135,7.83955578 10.7771985,6.64884081 9.30837713,6.64884081 C7.83955578,6.64884081 6.64884081,7.83955578 6.64884081,9.30837713 C6.64884081,10.7771985 7.83955578,11.9679135 9.30837713,11.9679135 Z" id="Rectangle-120" stroke="#000000" stroke-width="2" fill="#FFFFFF"></path>
                        <rect id="Rectangle-122" fill="#000000" opacity="0.221649058" x="10.6381453" y="123.668439" width="6.64884081" height="2"></rect>
                        <rect id="Rectangle-122-Copy-10" fill="#000000" opacity="0.221649058" x="10.6381453" y="70.4777126" width="6.64884081" height="2"></rect>
                        <rect id="Rectangle-122-Copy-5" fill="#000000" opacity="0.221649058" x="7.97860897" y="97.0730758" width="9.30837713" height="2"></rect>
                        <rect id="Rectangle-122-Copy-15" fill="#000000" opacity="0.221649058" x="7.97860897" y="43.8823493" width="9.30837713" height="2"></rect>
                        <rect id="Rectangle-122-Copy" fill="#000000" opacity="0.221649058" x="14.6274498" y="118.349366" width="2.65953632" height="2"></rect>
                        <rect id="Rectangle-122-Copy-2" fill="#000000" opacity="0.221649058" x="14.6274498" y="113.030294" width="2.65953632" height="2"></rect>
                        <rect id="Rectangle-122-Copy-3" fill="#000000" opacity="0.221649058" x="14.6274498" y="107.711221" width="2.65953632" height="2"></rect>
                        <rect id="Rectangle-122-Copy-4" fill="#000000" opacity="0.221649058" x="14.6274498" y="102.392148" width="2.65953632" height="2"></rect>
                        <rect id="Rectangle-122-Copy-6" fill="#000000" opacity="0.221649058" x="14.6274498" y="91.7540032" width="2.65953632" height="2"></rect>
                        <rect id="Rectangle-122-Copy-7" fill="#000000" opacity="0.221649058" x="14.6274498" y="86.4349305" width="2.65953632" height="2"></rect>
                        <rect id="Rectangle-122-Copy-8" fill="#000000" opacity="0.221649058" x="14.6274498" y="81.1158579" width="2.65953632" height="2"></rect>
                        <rect id="Rectangle-122-Copy-9" fill="#000000" opacity="0.221649058" x="14.6274498" y="75.7967852" width="2.65953632" height="2"></rect>
                        <rect id="Rectangle-122-Copy-19" fill="#000000" opacity="0.221649058" x="10.6381453" y="17.2869861" width="6.64884081" height="2"></rect>
                        <rect id="Rectangle-122-Copy-16" fill="#000000" opacity="0.221649058" x="14.6274498" y="38.5632767" width="2.65953632" height="2"></rect>
                        <rect id="Rectangle-122-Copy-17" fill="#000000" opacity="0.221649058" x="14.6274498" y="33.244204" width="2.65953632" height="2"></rect>
                        <rect id="Rectangle-122-Copy-20" fill="#000000" opacity="0.221649058" x="14.6274498" y="27.9251314" width="2.65953632" height="2"></rect>
                        <rect id="Rectangle-122-Copy-18" fill="#000000" opacity="0.221649058" x="14.6274498" y="22.6060587" width="2.65953632" height="2"></rect>
                        <rect id="Rectangle-122-Copy-14" fill="#000000" opacity="0.221649058" x="14.6274498" y="65.1586399" width="2.65953632" height="2"></rect>
                        <rect id="Rectangle-122-Copy-11" fill="#000000" opacity="0.221649058" x="14.6274498" y="59.8395673" width="2.65953632" height="2"></rect>
                        <rect id="Rectangle-122-Copy-12" fill="#000000" opacity="0.221649058" x="14.6274498" y="54.5204946" width="2.65953632" height="2"></rect>
                        <rect id="Rectangle-122-Copy-13" fill="#000000" opacity="0.221649058" x="14.6274498" y="49.201422" width="2.65953632" height="2"></rect>
                    </g>
                    <g id="pencil" transform="translate(444.779960, 197.072853) rotate(-45.000000) translate(-444.779960, -197.072853) translate(436.779960, 146.572853)">
                        <polygon id="Rectangle-92-Copy-2" stroke="#000000" stroke-width="2" fill="#FFFFFF" points="4 5.68434189e-14 7 3 7 13 4 13"></polygon>
                        <rect id="Rectangle-92" stroke="#000000" stroke-width="2" fill="#FFFFFF" x="2" y="8" width="7" height="13"></rect>
                        <rect id="Rectangle-90" fill="#000000" x="1" y="93" width="9" height="8" rx="1"></rect>
                        <rect id="Rectangle-88" stroke="#000000" stroke-width="2" fill="#FFFFFF" x="-8.81072992e-13" y="11" width="11" height="71" rx="1"></rect>
                        <rect id="Rectangle-88-Copy" stroke="#000000" stroke-width="2" fill="#FFFFFF" x="-8.52651283e-14" y="82" width="11" height="15" rx="1"></rect>
                        <rect id="Rectangle-91" fill="#C6C6C6" opacity="0.383512127" x="1" y="17" width="9" height="24"></rect>
                        <path d="M16,87.5009232 L16,60.9990768 L16,59 L14.5,59 C13.6715729,59 13,60.3431458 13,62 C13,63.3062188 13.4174038,64.4174579 14,64.8292943 L14,88 L11.9998075,88 C11.4437166,88 11,88.4477153 11,89 C11,89.5561352 11.4476291,90 11.9998075,90 L15.0001925,90 C15.5562834,90 16,89.5522847 16,89 L16,87.5009232 Z" id="Rectangle-101" fill="#000000"></path>
                    </g>
                    <g id="iphone" transform="translate(173.000000, 48.000000)">
                        <use stroke="#000000" mask="url(#mask-22)" stroke-width="4" fill="#EDEDED" xlink:href="#path-21"></use>
                        <use stroke="#000000" mask="url(#mask-24)" stroke-width="4" fill="#FFFFFF" xlink:href="#path-23"></use>
                        <use id="Rectangle-2" stroke="#000000" mask="url(#mask-26)" stroke-width="2" fill="#D8D8D8" xlink:href="#path-25"></use>
                        <use id="Oval-2" stroke="#000000" mask="url(#mask-28)" stroke-width="4" fill="#EDEDED" xlink:href="#path-27"></use>
                        <use id="Rectangle" stroke="#000000" mask="url(#mask-30)" stroke-width="4" fill="#FFFFFF" xlink:href="#path-29"></use>
                        <use id="Rectangle" stroke="#000000" mask="url(#mask-32)" stroke-width="4" fill="#FFFFFF" xlink:href="#path-31"></use>
                        <use id="Oval-13" stroke="#000000" mask="url(#mask-34)" stroke-width="4" fill="#FFFFFF" xlink:href="#path-33"></use>
                        <use id="Oval-13" stroke="#000000" mask="url(#mask-36)" stroke-width="4" fill="#FFFFFF" xlink:href="#path-35"></use>
                        <use id="Rectangle" stroke="#000000" mask="url(#mask-38)" stroke-width="4" fill="#FFFFFF" xlink:href="#path-37"></use>
                        <rect id="Rectangle-22" fill="#33CC33" x="25" y="170" width="8" height="8" rx="2"></rect>
                        <rect id="Rectangle-22" fill="#000000" x="46" y="170" width="8" height="8" rx="2"></rect>
                        <rect id="Rectangle-22" fill="#000000" x="67" y="170" width="8" height="8" rx="2"></rect>
                        <rect id="Rectangle-22" fill="#000000" x="88" y="170" width="8" height="8" rx="2"></rect>
                        <use id="Rectangle" stroke="#000000" mask="url(#mask-40)" stroke-width="4" fill="#FFFFFF" xlink:href="#path-39"></use>
                        <rect id="Rectangle-2" fill="#000000" x="41" y="33" width="40" height="4" rx="1"></rect>
                    </g>
                </g>
            </g>
        </g>
    </g>
</svg>